<?xml version="1.0" encoding="UTF-8" standalone="no"?>
<svg
   id="verlauf"
   viewBox="0 0 649.99999 125"
   version="1.1"
   sodipodi:docname="APD-Logo-2022.svg"
   width="650"
   height="125"
   inkscape:version="1.1.2 (b8e25be833, 2022-02-05)"
   xmlns:inkscape="http://www.inkscape.org/namespaces/inkscape"
   xmlns:sodipodi="http://sodipodi.sourceforge.net/DTD/sodipodi-0.dtd"
   xmlns="http://www.w3.org/2000/svg"
   xmlns:svg="http://www.w3.org/2000/svg">
  <sodipodi:namedview
     id="namedview44"
     pagecolor="#ffffff"
     bordercolor="#666666"
     borderopacity="1.0"
     inkscape:pageshadow="2"
     inkscape:pageopacity="0.0"
     inkscape:pagecheckerboard="0"
     showgrid="false"
     units="px"
     inkscape:zoom="1.3739808"
     inkscape:cx="141.55947"
     inkscape:cy="125.1837"
     inkscape:window-width="1920"
     inkscape:window-height="1017"
     inkscape:window-x="1912"
     inkscape:window-y="-8"
     inkscape:window-maximized="1"
     inkscape:current-layer="verlauf" />
  <defs
     id="defs9">
    <style
       id="style2">.cls-1{fill:#323232;}.cls-2{fill:url(#Unbenannter_Verlauf_15);fill-rule:evenodd;}</style>
    <linearGradient
       id="Unbenannter_Verlauf_15"
       x1="0"
       y1="62.68"
       x2="131.67"
       y2="62.68"
       gradientUnits="userSpaceOnUse">
      <stop
         offset="0"
         stop-color="#1e824c"
         id="stop4" />
      <stop
         offset="1"
         stop-color="#6aaa4e"
         id="stop6" />
    </linearGradient>
  </defs>
  <path
     class="cls-2"
     d="m 8.98,0 c 4.6,0 7.36,4.92 7.36,4.92 1.89,10.74 7.62,15.65 17.18,14.72 1.84,7.39 16.61,14.13 22.08,9.82 2.79,-2.2 2.13,-14.58 2.46,-14.72 1.24,-0.58 6.59,22.42 7.22,1.67 0.02,-0.48 0.31,-0.64 0.39,-0.17 2.71,13.35 13.12,-1.28 12.02,10.76 12.16,-10.03 20.1,-9.22 26.99,-24.53 4.04,11.46 -16.7,19.23 -22.08,29.45 1.06,5.48 12.09,0.99 17.17,2.45 -20.55,-6.91 -1.95,-0.49 4.91,-9.82 -1.7,-6.12 -6.54,4.56 -12.27,2.46 C 97.16,21.88 120,13.72 124.31,0 c 4.56,8.75 -14.3,15.09 -17.18,24.54 5.55,2.04 16.51,-2.86 22.08,-12.26 4.15,14.83 -18.63,23.86 -34.35,26.99 9.72,7.16 24.75,-8.68 36.8,-2.45 -15.75,10.09 -2.18,22.9 -30.05,14.07 6.8,-2.89 9.63,-4.45 17.15,-4.58 -13.91,-3.46 -34.54,0.91 -41.08,-4.58 0.53,10.92 12.41,9.69 17.64,15.91 29.38,-6.86 -12.6,12.91 -20.09,-3.64 -5.19,-6.01 2.58,3.66 7.36,2.45 -0.5,-9.32 -10.32,-9.31 -9.82,-19.62 -7.19,2.08 2.12,8.18 0,12.27 -12.02,23.22 -10.89,64.78 -33.79,75.84 -0.27,0.13 -1.01,0.63 -1.36,0.36 -0.29,-0.23 -0.21,-1.16 -0.21,-1.59 0.13,-6.94 3.7,-18.7 12.05,-20.84 0.89,-0.22 2.16,-0.24 2.74,-0.23 C 62.33,82.5 64.8,71.21 67.87,44.2 65.98,60.78 15.37,56.44 1.62,27.02 -1.9,19.5 1.23,22.2 2.38,18.8 9.77,28.27 35.48,35.2 40.87,34.38 33.65,30.24 -4.57,21.6 8.98,0"
     id="path11" />
  <g
     id="g41">
    <path
       class="cls-1"
       d="m 158.32,73.3 -1.59,-5.91 h -7.92 l -1.74,5.91 h -2.85 l 6.93,-21.39 h 3.84 l 6.12,21.39 z m -4.98,-19.38 h -0.54 l -3.33,11.34 h 6.75 z"
       id="path13" />
    <path
       class="cls-1"
       d="m 182.91,72.88 c -0.3,0.22 -0.67,0.4 -1.12,0.52 -0.45,0.13 -0.94,0.19 -1.46,0.19 -1.26,0 -2.19,-0.34 -2.79,-1.02 -0.6,-0.68 -0.9,-1.66 -0.9,-2.94 v -2.1 c 0,-0.66 -0.11,-1.27 -0.33,-1.82 -0.22,-0.55 -0.54,-1.01 -0.94,-1.4 -0.41,-0.38 -0.89,-0.67 -1.44,-0.88 -0.55,-0.21 -1.15,-0.31 -1.81,-0.31 h -1.98 v 10.17 h -2.67 V 51.87 h 5.01 c 1.1,0 2.1,0.12 3.02,0.34 0.91,0.23 1.69,0.58 2.34,1.04 0.65,0.46 1.16,1.04 1.52,1.74 0.36,0.7 0.54,1.51 0.54,2.43 0,0.64 -0.12,1.23 -0.35,1.75 -0.23,0.53 -0.54,1 -0.92,1.4 -0.38,0.4 -0.81,0.74 -1.27,1.02 -0.47,0.28 -0.96,0.48 -1.46,0.6 1.14,0.4 1.99,1.08 2.55,2.02 0.56,0.95 0.84,2.06 0.84,3.32 v 1.92 c 0,0.54 0.08,1.01 0.24,1.41 0.16,0.4 0.48,0.6 0.96,0.6 0.34,0 0.62,-0.04 0.84,-0.12 0.22,-0.08 0.44,-0.18 0.66,-0.3 l 0.93,1.83 z m -5.85,-15.42 c 0,-0.6 -0.12,-1.11 -0.36,-1.54 -0.24,-0.43 -0.57,-0.79 -0.98,-1.07 -0.41,-0.28 -0.9,-0.49 -1.45,-0.63 -0.56,-0.14 -1.16,-0.21 -1.8,-0.21 h -2.34 v 6.93 h 2.37 c 1.32,0 2.41,-0.29 3.27,-0.89 0.86,-0.59 1.29,-1.46 1.29,-2.59 z"
       id="path15" />
    <path
       class="cls-1"
       d="m 199.13,56.11 c -0.48,-0.68 -1.06,-1.23 -1.76,-1.64 -0.69,-0.41 -1.51,-0.61 -2.47,-0.61 -0.88,0 -1.64,0.25 -2.27,0.75 -0.63,0.5 -1.15,1.17 -1.54,2 -0.4,0.83 -0.69,1.78 -0.87,2.86 -0.18,1.08 -0.27,2.21 -0.27,3.39 0,1.18 0.09,2.26 0.27,3.3 0.18,1.04 0.47,1.96 0.88,2.75 0.41,0.79 0.94,1.42 1.58,1.89 0.64,0.47 1.42,0.71 2.34,0.71 0.98,0 1.79,-0.18 2.42,-0.54 0.63,-0.36 1.22,-0.77 1.76,-1.23 l 1.77,1.77 c -0.64,0.62 -1.46,1.15 -2.46,1.57 -1,0.43 -2.16,0.65 -3.48,0.65 -1.42,0 -2.64,-0.27 -3.66,-0.82 -1.02,-0.55 -1.85,-1.31 -2.49,-2.28 -0.64,-0.97 -1.11,-2.11 -1.41,-3.44 -0.3,-1.32 -0.45,-2.76 -0.45,-4.32 0,-1.64 0.17,-3.15 0.52,-4.52 0.35,-1.37 0.86,-2.55 1.53,-3.54 0.67,-0.99 1.5,-1.76 2.5,-2.32 1,-0.56 2.15,-0.84 3.45,-0.84 1.4,0 2.61,0.28 3.63,0.84 1.02,0.56 1.87,1.27 2.55,2.13 l -2.07,1.5 z"
       id="path17" />
    <path
       class="cls-1"
       d="M 219.68,73.3 V 63.1 h -9.51 v 10.2 h -2.64 V 51.88 h 2.67 v 9.06 h 9.48 v -9.06 h 2.61 V 73.3 Z"
       id="path19" />
    <path
       class="cls-1"
       d="M 230.46,73.3 V 51.91 h 2.61 V 73.3 Z"
       id="path21" />
    <path
       class="cls-1"
       d="m 249.32,73.3 h -3.51 l -6.39,-21.09 2.91,-0.51 5.28,19.62 5.19,-19.62 2.91,0.54 z"
       id="path23" />
    <path
       class="cls-1"
       d="m 274.24,58.18 c 0,0.94 -0.19,1.79 -0.58,2.55 -0.39,0.76 -0.93,1.41 -1.6,1.95 -0.68,0.54 -1.5,0.96 -2.44,1.25 -0.95,0.29 -1.98,0.44 -3.08,0.44 h -1.89 v 8.94 h -2.58 V 51.92 h 4.77 c 2.34,0 4.16,0.56 5.46,1.68 1.3,1.12 1.95,2.65 1.95,4.59 z m -2.85,0 c 0,-1.32 -0.39,-2.35 -1.17,-3.1 -0.78,-0.75 -1.91,-1.12 -3.39,-1.12 h -2.19 v 8.34 h 1.89 c 0.72,0 1.38,-0.09 1.97,-0.27 0.59,-0.18 1.1,-0.44 1.53,-0.8 0.43,-0.35 0.77,-0.78 1,-1.29 0.24,-0.51 0.36,-1.09 0.36,-1.75 z"
       id="path25" />
    <path
       class="cls-1"
       d="m 296.77,62.56 c 0,1.54 -0.16,2.98 -0.48,4.32 -0.32,1.34 -0.81,2.51 -1.48,3.51 -0.67,1 -1.51,1.79 -2.52,2.37 -1.01,0.58 -2.21,0.87 -3.58,0.87 -1.37,0 -2.61,-0.27 -3.63,-0.79 -1.02,-0.53 -1.86,-1.28 -2.52,-2.25 -0.66,-0.97 -1.15,-2.13 -1.47,-3.48 -0.32,-1.35 -0.48,-2.85 -0.48,-4.52 0,-1.67 0.17,-3.04 0.5,-4.38 0.33,-1.34 0.82,-2.51 1.48,-3.5 0.66,-0.99 1.5,-1.76 2.52,-2.33 1.02,-0.56 2.22,-0.84 3.6,-0.84 1.38,0 2.61,0.29 3.63,0.87 1.02,0.58 1.86,1.37 2.52,2.37 0.66,1 1.14,2.17 1.46,3.49 0.31,1.33 0.46,2.76 0.46,4.27 z m -2.94,0.03 c 0,-1.2 -0.1,-2.34 -0.31,-3.44 -0.21,-1.09 -0.52,-2.05 -0.95,-2.88 -0.42,-0.83 -0.96,-1.49 -1.6,-1.98 -0.65,-0.49 -1.41,-0.74 -2.26,-0.74 -0.92,0 -1.71,0.25 -2.35,0.74 -0.65,0.49 -1.19,1.15 -1.6,1.98 -0.42,0.83 -0.73,1.79 -0.92,2.88 -0.19,1.09 -0.29,2.23 -0.29,3.44 0,1.28 0.09,2.47 0.29,3.57 0.19,1.1 0.49,2.06 0.9,2.87 0.41,0.81 0.94,1.45 1.59,1.92 0.65,0.47 1.44,0.71 2.39,0.71 0.95,0 1.73,-0.24 2.38,-0.72 0.65,-0.48 1.18,-1.13 1.59,-1.96 0.41,-0.83 0.71,-1.79 0.89,-2.88 0.18,-1.09 0.27,-2.25 0.27,-3.5 z"
       id="path27" />
    <path
       class="cls-1"
       d="m 319.66,72.88 c -0.3,0.22 -0.67,0.4 -1.12,0.52 -0.45,0.13 -0.94,0.19 -1.46,0.19 -1.26,0 -2.19,-0.34 -2.79,-1.02 -0.6,-0.68 -0.9,-1.66 -0.9,-2.94 v -2.1 c 0,-0.66 -0.11,-1.27 -0.33,-1.82 -0.22,-0.55 -0.54,-1.01 -0.94,-1.4 -0.41,-0.38 -0.89,-0.67 -1.44,-0.88 -0.55,-0.21 -1.15,-0.31 -1.81,-0.31 h -1.98 v 10.17 h -2.67 V 51.87 h 5.01 c 1.1,0 2.1,0.12 3.02,0.34 0.91,0.23 1.69,0.58 2.34,1.04 0.65,0.46 1.16,1.04 1.52,1.74 0.36,0.7 0.54,1.51 0.54,2.43 0,0.64 -0.12,1.23 -0.35,1.75 -0.23,0.53 -0.54,1 -0.92,1.4 -0.38,0.4 -0.81,0.74 -1.27,1.02 -0.47,0.28 -0.96,0.48 -1.46,0.6 1.14,0.4 1.99,1.08 2.55,2.02 0.56,0.95 0.84,2.06 0.84,3.32 v 1.92 c 0,0.54 0.08,1.01 0.24,1.41 0.16,0.4 0.48,0.6 0.96,0.6 0.34,0 0.62,-0.04 0.84,-0.12 0.22,-0.08 0.44,-0.18 0.66,-0.3 l 0.93,1.83 z m -5.85,-15.42 c 0,-0.6 -0.12,-1.11 -0.36,-1.54 -0.24,-0.43 -0.57,-0.79 -0.98,-1.07 -0.41,-0.28 -0.9,-0.49 -1.45,-0.63 -0.56,-0.14 -1.16,-0.21 -1.8,-0.21 h -2.34 v 6.93 h 2.37 c 1.32,0 2.41,-0.29 3.27,-0.89 0.86,-0.59 1.29,-1.46 1.29,-2.59 z"
       id="path29" />
    <path
       class="cls-1"
       d="m 336.6,54.22 h -5.79 V 73.3 h -2.7 V 54.22 h -5.76 v -2.31 h 14.46 z"
       id="path31" />
    <path
       class="cls-1"
       d="m 352.86,73.3 -1.59,-5.91 h -7.92 l -1.74,5.91 h -2.85 l 6.93,-21.39 h 3.84 l 6.12,21.39 z m -4.98,-19.38 h -0.54 l -3.33,11.34 h 6.75 z"
       id="path33" />
    <path
       class="cls-1"
       d="M 372.53,73.3 H 362 V 51.91 h 2.58 v 19.17 h 8.16 z"
       id="path35" />
    <path
       class="cls-1"
       d="M 375.59,63.81 V 61.5 h 8.67 v 2.31 z"
       id="path37" />
    <path
       class="cls-1"
       d="m 406.74,62.71 c 0,1.48 -0.23,2.86 -0.67,4.15 -0.45,1.29 -1.12,2.41 -2,3.36 -0.88,0.95 -1.96,1.7 -3.24,2.25 -1.28,0.55 -2.75,0.83 -4.41,0.83 h -4.05 V 51.91 h 4.05 c 1.74,0 3.25,0.27 4.54,0.81 1.29,0.54 2.37,1.29 3.23,2.25 0.86,0.96 1.5,2.1 1.92,3.42 0.42,1.32 0.63,2.76 0.63,4.32 z m -2.85,0 c 0,-1.22 -0.16,-2.36 -0.48,-3.42 -0.32,-1.06 -0.79,-1.98 -1.42,-2.75 -0.63,-0.77 -1.4,-1.38 -2.33,-1.81 -0.93,-0.44 -2.01,-0.66 -3.24,-0.66 h -1.38 v 16.98 h 1.38 c 1.22,0 2.3,-0.21 3.24,-0.65 0.93,-0.43 1.71,-1.02 2.33,-1.77 0.62,-0.75 1.09,-1.63 1.42,-2.65 0.33,-1.02 0.48,-2.11 0.48,-3.27 z"
       id="path39" />
  </g>
</svg>
