<?xml version="1.0" encoding="utf-8"?>
<!-- Generator: Adobe Illustrator 26.5.0, SVG Export Plug-In . SVG Version: 6.00 Build 0)  -->
<svg version="1.1" id="a" xmlns="http://www.w3.org/2000/svg" xmlns:xlink="http://www.w3.org/1999/xlink" x="0px" y="0px"
	 viewBox="0 0 533.6 125.4" style="enable-background:new 0 0 533.6 125.4;" xml:space="preserve">
<style type="text/css">
	.st0{fill-rule:evenodd;clip-rule:evenodd;fill:url(#SVGID_1_);}
	.st1{enable-background:new    ;}
	.st2{fill:#323232;}
</style>
<linearGradient id="SVGID_1_" gradientUnits="userSpaceOnUse" x1="-3.397506e-03" y1="16750.748" x2="131.66" y2="16750.748" gradientTransform="matrix(1 0 0 1 0 -16688.0586)">
	<stop  offset="0" style="stop-color:#00818E"/>
	<stop  offset="1" style="stop-color:#00B5C2"/>
</linearGradient>
<path class="st0" d="M9,0c4.6,0,7.4,4.9,7.4,4.9c1.9,10.7,7.6,15.6,17.2,14.7c1.8,7.4,16.6,14.1,22.1,9.8c2.8-2.2,2.1-14.6,2.5-14.7
	c1.2-0.6,6.6,22.4,7.2,1.7c0-0.5,0.3-0.6,0.4-0.2c2.7,13.4,13.1-1.3,12,10.8c12.2-10,20.1-9.2,27-24.5c4,11.5-16.7,19.2-22.1,29.5
	c1.1,5.5,12.1,1,17.2,2.5c-20.5-6.9-1.9-0.5,4.9-9.8c-1.7-6.1-6.5,4.6-12.3,2.5c4.8-5.1,27.6-13.3,31.9-27
	c4.6,8.8-14.3,15.1-17.2,24.5c5.6,2,16.5-2.9,22.1-12.3c4.1,14.8-18.6,23.9-34.3,27c9.7,7.2,24.8-8.7,36.8-2.5
	c-15.8,10.1-2.2,22.9-30.1,14.1c6.8-2.9,9.6-4.5,17.2-4.6c-13.9-3.5-34.5,0.9-41.1-4.6c0.5,10.9,12.4,9.7,17.6,15.9
	c29.4-6.9-12.6,12.9-20.1-3.6c-5.2-6,2.6,3.7,7.4,2.5c-0.5-9.3-10.3-9.3-9.8-19.6c-7.2,2.1,2.1,8.2,0,12.3
	c-12,23.2-10.9,64.8-33.8,75.8c-0.3,0.1-1,0.6-1.4,0.4c-0.3-0.2-0.2-1.2-0.2-1.6c0.1-6.9,3.7-18.7,12-20.8c0.9-0.2,2.2-0.2,2.7-0.2
	c10.1-20.1,12.6-31.4,15.7-58.4C66,60.8,15.4,56.4,1.6,27c-3.5-7.5-0.4-4.8,0.8-8.2c7.4,9.5,33.1,16.4,38.5,15.6
	C33.7,30.2-4.6,21.6,9,0"/>
<g class="st1">
	<path class="st2" d="M157.3,35.8c-0.7-0.6-1.4-1-2.2-1.4c-0.8-0.4-1.6-0.6-2.5-0.6c-0.5,0-0.9,0.1-1.3,0.2
		c-0.4,0.1-0.8,0.3-1.1,0.6s-0.6,0.6-0.7,0.9s-0.3,0.8-0.3,1.3c0,0.5,0.1,1,0.3,1.4c0.2,0.4,0.5,0.8,0.9,1.1
		c0.4,0.3,0.8,0.7,1.2,0.9c0.4,0.3,0.9,0.6,1.4,0.9c0.7,0.4,1.4,0.9,2.1,1.3c0.7,0.4,1.3,0.9,1.8,1.4s0.9,1.1,1.2,1.7
		c0.3,0.7,0.5,1.4,0.5,2.4c0,0.9-0.2,1.6-0.5,2.4c-0.3,0.7-0.8,1.3-1.3,1.8c-0.6,0.5-1.2,0.9-2,1.2s-1.6,0.4-2.5,0.4
		c-0.8,0-1.5-0.1-2.1-0.2s-1.2-0.3-1.8-0.6c-0.5-0.2-1-0.5-1.5-0.8s-0.9-0.6-1.3-1l1.6-2.1c0.3,0.3,0.7,0.6,1,0.8
		c0.4,0.3,0.8,0.5,1.2,0.8c0.4,0.2,0.9,0.4,1.4,0.6c0.5,0.2,1,0.2,1.6,0.2c1,0,1.8-0.3,2.4-0.9c0.6-0.6,1-1.4,1-2.3
		c0-0.6-0.1-1.2-0.4-1.6c-0.3-0.5-0.6-0.9-1-1.3c-0.4-0.4-0.9-0.7-1.5-1c-0.6-0.3-1.1-0.6-1.7-1c-0.6-0.4-1.2-0.7-1.7-1.1
		c-0.6-0.4-1.1-0.8-1.5-1.3c-0.4-0.5-0.8-1-1.1-1.7c-0.3-0.6-0.4-1.4-0.4-2.2c0-0.9,0.2-1.6,0.5-2.3c0.3-0.7,0.8-1.3,1.4-1.7
		s1.2-0.8,1.9-1.1c0.7-0.2,1.5-0.4,2.2-0.4c1.3,0,2.5,0.2,3.6,0.7c1.1,0.4,2.1,1,2.9,1.6L157.3,35.8z"/>
</g>
<g class="st1">
	<path class="st2" d="M178.1,53.3l-1.6-5.9h-7.9l-1.7,5.9H164l6.9-21.4h3.8l6.1,21.4H178.1z M173.1,33.9h-0.5l-3.3,11.3h6.8
		L173.1,33.9z"/>
</g>
<g class="st1">
	<path class="st2" d="M206.3,53.3l-2.4-16.5l-5,16.5h-2.2l-5.5-16.6l-1.8,16.6h-2.8l2.8-21l2.5-0.6l6,18.5l5.1-18l2.6-0.4l3.6,21.6
		H206.3z"/>
</g>
<g class="st1">
	<path class="st2" d="M234.8,53.3l-2.4-16.5l-5,16.5h-2.2l-5.5-16.6l-1.8,16.6H215l2.8-21l2.5-0.6l6,18.5l5.1-18l2.6-0.4l3.6,21.6
		H234.8z"/>
</g>
<g class="st1">
	<path class="st2" d="M254.9,53.3h-10.5V31.9h2.6v19.2h8.2L254.9,53.3z"/>
</g>
<g class="st1">
	<path class="st2" d="M274.4,47.1c0,1-0.2,1.9-0.5,2.7c-0.3,0.8-0.8,1.5-1.4,2c-0.6,0.6-1.3,1-2.1,1.3c-0.8,0.3-1.8,0.5-2.8,0.5
		c-1,0-1.9-0.1-2.8-0.4c-0.8-0.3-1.5-0.7-2.1-1.2c-0.6-0.5-1-1.2-1.4-1.9c-0.3-0.8-0.5-1.6-0.5-2.6V31.9h2.7v15.3
		c0,1.3,0.4,2.4,1.1,3.1c0.7,0.7,1.7,1.1,3,1.1c1.3,0,2.3-0.4,3-1.1s1.1-1.7,1.1-3.1V31.9h2.6V47.1z"/>
</g>
<g class="st1">
	<path class="st2" d="M293.6,53.3l-6.7-13.8c-0.2-0.5-0.4-0.9-0.6-1.3c-0.2-0.4-0.3-0.7-0.4-1.1c-0.1-0.3-0.3-0.7-0.4-1
		c-0.1-0.3-0.3-0.8-0.5-1.2c0,1,0,2,0,3.1c0,1,0.1,2.2,0.1,3.4v12h-2.5V32.6l3.1-1.1l6.9,14.2c0.4,0.9,0.8,1.8,1.2,2.6
		c0.3,0.9,0.7,1.7,1.2,2.6c0-1,0-2.1,0-3.2s-0.1-2.2-0.1-3.2V31.9h2.5v21.4H293.6z"/>
</g>
<g class="st1">
	<path class="st2" d="M317.6,35.8c-0.6-0.6-1.4-1.1-2.1-1.5c-0.8-0.4-1.7-0.6-2.7-0.6c-0.9,0-1.7,0.2-2.3,0.7
		c-0.6,0.5-1.2,1.1-1.6,1.9c-0.4,0.8-0.7,1.7-0.9,2.8c-0.2,1-0.3,2.1-0.3,3.3c0,1.2,0.1,2.3,0.3,3.4c0.2,1.1,0.4,2.1,0.8,2.9
		c0.4,0.8,0.9,1.5,1.5,2c0.6,0.5,1.4,0.8,2.4,0.8c0.7,0,1.4,0,2-0.1c0.6-0.1,1.2-0.2,1.8-0.4v-7.9h-4.1l0.4-2.1h6.2v11
		c-0.8,0.5-1.7,0.9-2.8,1.2c-1.1,0.3-2.3,0.5-3.5,0.5c-1.4,0-2.6-0.3-3.6-0.9s-1.8-1.4-2.5-2.4c-0.6-1-1.1-2.2-1.4-3.6
		c-0.3-1.4-0.4-2.8-0.4-4.4s0.2-3,0.5-4.4c0.3-1.3,0.9-2.5,1.5-3.4s1.5-1.7,2.5-2.2c1-0.5,2.1-0.8,3.4-0.8c1.4,0,2.7,0.2,3.8,0.7
		c1.1,0.5,2,1.1,2.8,2L317.6,35.8z"/>
</g>
<g class="st1">
	<path class="st2" d="M337.9,35.8c-0.7-0.6-1.4-1-2.2-1.4c-0.8-0.4-1.6-0.6-2.5-0.6c-0.5,0-0.9,0.1-1.3,0.2s-0.8,0.3-1.1,0.6
		c-0.3,0.2-0.6,0.6-0.7,0.9c-0.2,0.4-0.3,0.8-0.3,1.3c0,0.5,0.1,1,0.3,1.4s0.5,0.8,0.9,1.1s0.8,0.7,1.2,0.9c0.4,0.3,0.9,0.6,1.3,0.9
		c0.7,0.4,1.4,0.9,2.1,1.3c0.7,0.4,1.3,0.9,1.8,1.4c0.5,0.5,0.9,1.1,1.2,1.7c0.3,0.7,0.5,1.4,0.5,2.4c0,0.9-0.2,1.6-0.5,2.4
		c-0.3,0.7-0.8,1.3-1.3,1.8s-1.2,0.9-2,1.2c-0.8,0.3-1.6,0.4-2.5,0.4c-0.8,0-1.5-0.1-2.1-0.2c-0.6-0.1-1.2-0.3-1.8-0.6
		c-0.5-0.2-1-0.5-1.5-0.8s-0.9-0.6-1.3-1l1.6-2.1c0.3,0.3,0.7,0.6,1,0.8s0.8,0.5,1.2,0.8c0.4,0.2,0.9,0.4,1.4,0.6
		c0.5,0.2,1,0.2,1.6,0.2c1,0,1.8-0.3,2.4-0.9c0.6-0.6,1-1.4,1-2.3c0-0.6-0.1-1.2-0.4-1.6s-0.6-0.9-1-1.3c-0.4-0.4-0.9-0.7-1.5-1
		c-0.5-0.3-1.1-0.6-1.7-1c-0.6-0.4-1.2-0.7-1.7-1.1c-0.6-0.4-1.1-0.8-1.5-1.3s-0.8-1-1.1-1.7c-0.3-0.6-0.4-1.4-0.4-2.2
		c0-0.9,0.2-1.6,0.5-2.3c0.3-0.7,0.8-1.3,1.4-1.7c0.6-0.5,1.2-0.8,1.9-1.1c0.7-0.2,1.5-0.4,2.2-0.4c1.3,0,2.5,0.2,3.6,0.7
		c1.1,0.4,2.1,1,2.9,1.6L337.9,35.8z"/>
</g>
<g class="st1">
	<path class="st2" d="M358.5,35.8c-0.6-0.6-1.4-1.1-2.1-1.5c-0.8-0.4-1.7-0.6-2.7-0.6c-0.9,0-1.7,0.2-2.3,0.7
		c-0.6,0.5-1.2,1.1-1.6,1.9c-0.4,0.8-0.7,1.7-0.9,2.8c-0.2,1-0.3,2.1-0.3,3.3c0,1.2,0.1,2.3,0.3,3.4c0.2,1.1,0.5,2.1,0.8,2.9
		c0.4,0.8,0.9,1.5,1.5,2c0.6,0.5,1.4,0.8,2.4,0.8c0.7,0,1.4,0,2-0.1c0.6-0.1,1.2-0.2,1.8-0.4v-7.9h-4.1l0.4-2.1h6.2v11
		c-0.8,0.5-1.7,0.9-2.8,1.2c-1.1,0.3-2.3,0.5-3.5,0.5c-1.4,0-2.6-0.3-3.6-0.9s-1.8-1.4-2.5-2.4c-0.6-1-1.1-2.2-1.4-3.6
		c-0.3-1.4-0.4-2.8-0.4-4.4s0.2-3,0.5-4.4c0.3-1.3,0.9-2.5,1.5-3.4s1.5-1.7,2.5-2.2s2.1-0.8,3.5-0.8c1.4,0,2.7,0.2,3.8,0.7
		s2,1.1,2.8,2L358.5,35.8z"/>
</g>
<g class="st1">
	<path class="st2" d="M381.3,47.1c0,1-0.2,1.9-0.5,2.7c-0.3,0.8-0.8,1.5-1.4,2c-0.6,0.6-1.3,1-2.1,1.3c-0.8,0.3-1.8,0.5-2.8,0.5
		c-1,0-1.9-0.1-2.8-0.4c-0.8-0.3-1.5-0.7-2.1-1.2c-0.6-0.5-1-1.2-1.4-1.9c-0.3-0.8-0.5-1.6-0.5-2.6V31.9h2.7v15.3
		c0,1.3,0.4,2.4,1.1,3.1c0.7,0.7,1.7,1.1,3,1.1c1.3,0,2.3-0.4,3-1.1s1.1-1.7,1.1-3.1V31.9h2.6V47.1z"/>
</g>
<g class="st1">
	<path class="st2" d="M401.8,34.2H396v19.1h-2.7V34.2h-5.8v-2.3H402L401.8,34.2z"/>
</g>
<g class="st1">
	<path class="st2" d="M431.5,53.3l-1.6-5.9H422l-1.7,5.9h-2.9l6.9-21.4h3.8l6.1,21.4H431.5z M426.5,33.9H426l-3.3,11.3h6.8
		L426.5,33.9z"/>
</g>
<g class="st1">
	<path class="st2" d="M453.5,47.1c0,1-0.2,1.9-0.5,2.7c-0.3,0.8-0.8,1.5-1.4,2c-0.6,0.6-1.3,1-2.1,1.3c-0.8,0.3-1.8,0.5-2.8,0.5
		c-1,0-1.9-0.1-2.8-0.4c-0.8-0.3-1.5-0.7-2.1-1.2c-0.6-0.5-1-1.2-1.4-1.9c-0.3-0.8-0.5-1.6-0.5-2.6V31.9h2.7v15.3
		c0,1.3,0.4,2.4,1.1,3.1c0.7,0.7,1.7,1.1,3,1.1c1.3,0,2.3-0.4,3-1.1s1.1-1.7,1.1-3.1V31.9h2.6V47.1z"/>
</g>
<g class="st1">
	<path class="st2" d="M472.1,35.8c-0.7-0.6-1.4-1-2.2-1.4s-1.6-0.6-2.5-0.6c-0.5,0-0.9,0.1-1.3,0.2c-0.4,0.1-0.8,0.3-1.1,0.6
		c-0.3,0.2-0.6,0.6-0.7,0.9c-0.2,0.4-0.3,0.8-0.3,1.3c0,0.5,0.1,1,0.3,1.4c0.2,0.4,0.5,0.8,0.9,1.1c0.4,0.3,0.8,0.7,1.2,0.9
		c0.4,0.3,0.9,0.6,1.4,0.9c0.7,0.4,1.4,0.9,2.1,1.3s1.3,0.9,1.8,1.4c0.5,0.5,0.9,1.1,1.2,1.7c0.3,0.7,0.5,1.4,0.5,2.4
		c0,0.9-0.2,1.6-0.5,2.4c-0.3,0.7-0.8,1.3-1.3,1.8c-0.6,0.5-1.2,0.9-2,1.2c-0.8,0.3-1.6,0.4-2.5,0.4c-0.8,0-1.5-0.1-2.1-0.2
		c-0.7-0.1-1.2-0.3-1.8-0.6c-0.5-0.2-1-0.5-1.5-0.8s-0.9-0.6-1.3-1l1.6-2.1c0.3,0.3,0.7,0.6,1,0.8c0.4,0.3,0.8,0.5,1.2,0.8
		c0.4,0.2,0.9,0.4,1.4,0.6c0.5,0.2,1,0.2,1.6,0.2c1,0,1.8-0.3,2.4-0.9s1-1.4,1-2.3c0-0.6-0.1-1.2-0.4-1.6c-0.3-0.5-0.6-0.9-1-1.3
		c-0.4-0.4-0.9-0.7-1.5-1c-0.6-0.3-1.1-0.6-1.7-1c-0.6-0.4-1.2-0.7-1.7-1.1c-0.6-0.4-1.1-0.8-1.5-1.3c-0.4-0.5-0.8-1-1.1-1.7
		s-0.4-1.4-0.4-2.2c0-0.9,0.2-1.6,0.5-2.3c0.3-0.7,0.8-1.3,1.4-1.7c0.6-0.5,1.2-0.8,1.9-1.1c0.7-0.2,1.5-0.4,2.2-0.4
		c1.3,0,2.5,0.2,3.6,0.7c1.1,0.4,2.1,1,2.9,1.6L472.1,35.8z"/>
</g>
<g class="st1">
	<path class="st2" d="M157.6,89.3l-6.3-10H149v10h-2.7V67.9h2.7v9h2.2l6.5-9.2l2.2,1.4l-6.6,8.9l7.6,11.3H157.6z"/>
</g>
<g class="st1">
	<path class="st2" d="M181.3,78.6c0,1.5-0.2,3-0.5,4.3c-0.3,1.3-0.8,2.5-1.5,3.5c-0.7,1-1.5,1.8-2.5,2.4c-1,0.6-2.2,0.9-3.6,0.9
		c-1.4,0-2.6-0.3-3.6-0.8c-1-0.5-1.9-1.3-2.5-2.2c-0.7-1-1.1-2.1-1.5-3.5c-0.3-1.3-0.5-2.9-0.5-4.5c0-1.6,0.2-3,0.5-4.4
		c0.3-1.3,0.8-2.5,1.5-3.5s1.5-1.8,2.5-2.3c1-0.6,2.2-0.8,3.6-0.8c1.4,0,2.6,0.3,3.6,0.9s1.9,1.4,2.5,2.4s1.1,2.2,1.5,3.5
		C181.1,75.6,181.3,77,181.3,78.6z M178.3,78.6c0-1.2-0.1-2.3-0.3-3.4s-0.5-2.1-0.9-2.9c-0.4-0.8-1-1.5-1.6-2s-1.4-0.7-2.3-0.7
		c-0.9,0-1.7,0.2-2.4,0.7c-0.7,0.5-1.2,1.2-1.6,2c-0.4,0.8-0.7,1.8-0.9,2.9c-0.2,1.1-0.3,2.2-0.3,3.4c0,1.3,0.1,2.5,0.3,3.6
		c0.2,1.1,0.5,2.1,0.9,2.9c0.4,0.8,0.9,1.5,1.6,1.9c0.6,0.5,1.4,0.7,2.4,0.7c0.9,0,1.7-0.2,2.4-0.7c0.6-0.5,1.2-1.1,1.6-2
		s0.7-1.8,0.9-2.9S178.3,79.8,178.3,78.6z"/>
</g>
<g class="st1">
	<path class="st2" d="M199.3,89.3h-10.5V67.9h2.6v19.2h8.2L199.3,89.3z"/>
</g>
<g class="st1">
	<path class="st2" d="M220.5,78.6c0,1.5-0.2,3-0.5,4.3c-0.3,1.3-0.8,2.5-1.5,3.5c-0.7,1-1.5,1.8-2.5,2.4c-1,0.6-2.2,0.9-3.6,0.9
		c-1.4,0-2.6-0.3-3.6-0.8c-1-0.5-1.9-1.3-2.5-2.2c-0.7-1-1.1-2.1-1.5-3.5c-0.3-1.3-0.5-2.9-0.5-4.5c0-1.6,0.2-3,0.5-4.4
		c0.3-1.3,0.8-2.5,1.5-3.5s1.5-1.8,2.5-2.3c1-0.6,2.2-0.8,3.6-0.8c1.4,0,2.6,0.3,3.6,0.9s1.9,1.4,2.5,2.4s1.1,2.2,1.5,3.5
		C220.4,75.6,220.5,77,220.5,78.6z M217.6,78.6c0-1.2-0.1-2.3-0.3-3.4s-0.5-2.1-0.9-2.9c-0.4-0.8-1-1.5-1.6-2s-1.4-0.7-2.3-0.7
		c-0.9,0-1.7,0.2-2.4,0.7c-0.7,0.5-1.2,1.2-1.6,2c-0.4,0.8-0.7,1.8-0.9,2.9c-0.2,1.1-0.3,2.2-0.3,3.4c0,1.3,0.1,2.5,0.3,3.6
		c0.2,1.1,0.5,2.1,0.9,2.9c0.4,0.8,0.9,1.5,1.6,1.9c0.6,0.5,1.4,0.7,2.4,0.7c0.9,0,1.7-0.2,2.4-0.7c0.6-0.5,1.2-1.1,1.6-2
		s0.7-1.8,0.9-2.9S217.6,79.8,217.6,78.6z"/>
</g>
<g class="st1">
	<path class="st2" d="M239,89.3l-6.7-13.8c-0.2-0.5-0.4-0.9-0.6-1.3c-0.2-0.4-0.3-0.7-0.4-1.1c-0.1-0.3-0.3-0.7-0.4-1
		c-0.1-0.3-0.3-0.8-0.5-1.2c0,1,0,2,0,3.1c0,1,0.1,2.2,0.1,3.4v12H228V68.6l3.1-1.1l6.9,14.2c0.4,0.9,0.8,1.8,1.2,2.6
		c0.3,0.9,0.7,1.7,1.2,2.6c0-1,0-2.1,0-3.2s-0.1-2.2-0.1-3.2V67.9h2.5v21.4H239z"/>
</g>
<g class="st1">
	<path class="st2" d="M250.9,89.3V67.9h2.6v21.4H250.9z"/>
	<path class="st2" d="M274,89.3l-1.6-5.9h-7.9l-1.7,5.9H260l6.9-21.4h3.8l6.1,21.4H274z M269.1,69.9h-0.5l-3.3,11.3h6.8L269.1,69.9z
		"/>
</g>
<g class="st1">
	<path class="st2" d="M293.6,89.3h-10.5V67.9h2.6v19.2h8.2L293.6,89.3z"/>
</g>
<g class="st1">
	<path class="st2" d="M310.8,70.1h-8.2v6.7h6.8l-0.4,2.2h-6.4V87h8.6l-0.3,2.3H300V67.9l11.2,0L310.8,70.1z"/>
</g>
<g class="st1">
	<path class="st2" d="M329,89.3l-6.7-13.8c-0.2-0.5-0.4-0.9-0.6-1.3c-0.2-0.4-0.3-0.7-0.4-1.1c-0.1-0.3-0.3-0.7-0.4-1
		c-0.1-0.3-0.3-0.8-0.5-1.2c0,1,0,2,0,3.1c0,1,0.1,2.2,0.1,3.4v12H318V68.6l3.1-1.1l6.9,14.2c0.4,0.9,0.8,1.8,1.2,2.6
		c0.3,0.9,0.7,1.7,1.2,2.6c0-1,0-2.1,0-3.2s-0.1-2.2-0.1-3.2V67.9h2.5v21.4H329z"/>
</g>
<g class="st1">
	<path class="st2" d="M364.3,89.3l-6.3-10h-2.2v10H353V67.9h2.7v9h2.2l6.5-9.2l2.2,1.4L360,78l7.6,11.3H364.3z"/>
</g>
<g class="st1">
	<path class="st2" d="M388,78.6c0,1.5-0.2,3-0.5,4.3c-0.3,1.3-0.8,2.5-1.5,3.5s-1.5,1.8-2.5,2.4c-1,0.6-2.2,0.9-3.6,0.9
		c-1.4,0-2.6-0.3-3.6-0.8c-1-0.5-1.9-1.3-2.5-2.2s-1.2-2.1-1.5-3.5c-0.3-1.3-0.5-2.9-0.5-4.5c0-1.6,0.2-3,0.5-4.4s0.8-2.5,1.5-3.5
		s1.5-1.8,2.5-2.3c1-0.6,2.2-0.8,3.6-0.8c1.4,0,2.6,0.3,3.6,0.9c1,0.6,1.9,1.4,2.5,2.4s1.1,2.2,1.5,3.5C387.8,75.6,388,77,388,78.6z
		 M385,78.6c0-1.2-0.1-2.3-0.3-3.4s-0.5-2.1-0.9-2.9c-0.4-0.8-1-1.5-1.6-2c-0.7-0.5-1.4-0.7-2.3-0.7c-0.9,0-1.7,0.2-2.4,0.7
		c-0.7,0.5-1.2,1.2-1.6,2c-0.4,0.8-0.7,1.8-0.9,2.9c-0.2,1.1-0.3,2.2-0.3,3.4c0,1.3,0.1,2.5,0.3,3.6c0.2,1.1,0.5,2.1,0.9,2.9
		c0.4,0.8,0.9,1.5,1.6,1.9c0.7,0.5,1.4,0.7,2.4,0.7c0.9,0,1.7-0.2,2.4-0.7c0.6-0.5,1.2-1.1,1.6-2s0.7-1.8,0.9-2.9
		C384.9,81,385,79.8,385,78.6z"/>
</g>
<g class="st1">
	<path class="st2" d="M406.4,89.3l-6.7-13.8c-0.2-0.5-0.4-0.9-0.6-1.3c-0.2-0.4-0.3-0.7-0.4-1.1c-0.1-0.3-0.3-0.7-0.4-1
		s-0.3-0.8-0.5-1.2c0,1,0,2,0,3.1c0,1,0.1,2.2,0.1,3.4v12h-2.5V68.6l3.1-1.1l6.9,14.2c0.4,0.9,0.8,1.8,1.2,2.6
		c0.3,0.9,0.7,1.7,1.2,2.6c0-1,0-2.1,0-3.2s-0.1-2.2-0.1-3.2V67.9h2.5v21.4H406.4z"/>
</g>
<g class="st1">
	<path class="st2" d="M430.6,70.2h-5.8v19.1h-2.7V70.2h-5.8v-2.3h14.5L430.6,70.2z"/>
</g>
<g class="st1">
	<path class="st2" d="M447.7,70.1h-8.2v6.7h6.8l-0.4,2.2h-6.4V87h8.6l-0.3,2.3h-10.9V67.9l11.2,0L447.7,70.1z"/>
</g>
<g class="st1">
	<path class="st2" d="M466.4,89.3l-4.5-8.7l-4.5,8.7H454l6.4-10.9l-6.4-9.9l3.1-0.8l4.8,8.5l4.8-8.5l2.9,0.9l-6.3,9.9l6.6,10.9
		H466.4z"/>
</g>
<g class="st1">
	<path class="st2" d="M489.3,70.2h-5.8v19.1h-2.7V70.2H475v-2.3h14.5L489.3,70.2z"/>
</g>
<g class="st1">
	<path class="st2" d="M506.3,70.1h-8.2v6.7h6.8l-0.4,2.2h-6.4V87h8.6l-0.3,2.3h-10.9V67.9l11.2,0L506.3,70.1z"/>
</g>
<g class="st1">
	<path class="st2" d="M524.5,89.3l-6.7-13.8c-0.2-0.5-0.4-0.9-0.6-1.3c-0.2-0.4-0.3-0.7-0.4-1.1c-0.1-0.3-0.3-0.7-0.4-1
		s-0.3-0.8-0.5-1.2c0,1,0,2,0,3.1c0,1,0.1,2.2,0.1,3.4v12h-2.5V68.6l3.1-1.1l6.9,14.2c0.4,0.9,0.8,1.8,1.2,2.6
		c0.3,0.9,0.7,1.7,1.2,2.6c0-1,0-2.1,0-3.2s-0.1-2.2-0.1-3.2V67.9h2.5v21.4H524.5z"/>
</g>
</svg>
