<?xml version="1.0" encoding="UTF-8" standalone="no"?>
<!-- Generator: Adobe Illustrator 26.5.0, SVG Export Plug-In . SVG Version: 6.00 Build 0)  -->

<svg
   version="1.1"
   id="a"
   x="0px"
   y="0px"
   viewBox="0 0 650.00004 125"
   xml:space="preserve"
   sodipodi:docname="CCC_Logo_RGB.svg"
   width="650"
   height="125"
   inkscape:version="1.1.2 (b8e25be833, 2022-02-05)"
   xmlns:inkscape="http://www.inkscape.org/namespaces/inkscape"
   xmlns:sodipodi="http://sodipodi.sourceforge.net/DTD/sodipodi-0.dtd"
   xmlns="http://www.w3.org/2000/svg"
   xmlns:svg="http://www.w3.org/2000/svg"><defs
   id="defs148" /><sodipodi:namedview
   id="namedview146"
   pagecolor="#ffffff"
   bordercolor="#666666"
   borderopacity="1.0"
   inkscape:pageshadow="2"
   inkscape:pageopacity="0.0"
   inkscape:pagecheckerboard="0"
   showgrid="false"
   inkscape:zoom="2.1158172"
   inkscape:cx="404.3355"
   inkscape:cy="62.859873"
   inkscape:window-width="1920"
   inkscape:window-height="1017"
   inkscape:window-x="1912"
   inkscape:window-y="-8"
   inkscape:window-maximized="1"
   inkscape:current-layer="a" />
<style
   type="text/css"
   id="style2">
	.st0{fill-rule:evenodd;clip-rule:evenodd;fill:url(#SVGID_1_);}
	.st1{enable-background:new    ;}
	.st2{fill:#323232;}
</style>
<linearGradient
   id="SVGID_1_"
   gradientUnits="userSpaceOnUse"
   x1="-0.003397506"
   y1="16750.748"
   x2="131.66"
   y2="16750.748"
   gradientTransform="translate(0,-16688.059)">
	<stop
   offset="0"
   style="stop-color:#00818E"
   id="stop4" />
	<stop
   offset="1"
   style="stop-color:#00B5C2"
   id="stop6" />
</linearGradient>
<path
   class="st0"
   d="m 9,0 c 4.6,0 7.4,4.9 7.4,4.9 1.9,10.7 7.6,15.6 17.2,14.7 1.8,7.4 16.6,14.1 22.1,9.8 2.8,-2.2 2.1,-14.6 2.5,-14.7 1.2,-0.6 6.6,22.4 7.2,1.7 0,-0.5 0.3,-0.6 0.4,-0.2 2.7,13.4 13.1,-1.3 12,10.8 12.2,-10 20.1,-9.2 27,-24.5 4,11.5 -16.7,19.2 -22.1,29.5 1.1,5.5 12.1,1 17.2,2.5 -20.5,-6.9 -1.9,-0.5 4.9,-9.8 -1.7,-6.1 -6.5,4.6 -12.3,2.5 4.8,-5.1 27.6,-13.3 31.9,-27 4.6,8.8 -14.3,15.1 -17.2,24.5 5.6,2 16.5,-2.9 22.1,-12.3 4.1,14.8 -18.6,23.9 -34.3,27 9.7,7.2 24.8,-8.7 36.8,-2.5 C 116,47 129.6,59.8 101.7,51 c 6.8,-2.9 9.6,-4.5 17.2,-4.6 -13.9,-3.5 -34.5,0.9 -41.1,-4.6 0.5,10.9 12.4,9.7 17.6,15.9 29.4,-6.9 -12.6,12.9 -20.1,-3.6 -5.2,-6 2.6,3.7 7.4,2.5 -0.5,-9.3 -10.3,-9.3 -9.8,-19.6 -7.2,2.1 2.1,8.2 0,12.3 -12,23.2 -10.9,64.8 -33.8,75.8 -0.3,0.1 -1,0.6 -1.4,0.4 -0.3,-0.2 -0.2,-1.2 -0.2,-1.6 0.1,-6.9 3.7,-18.7 12,-20.8 0.9,-0.2 2.2,-0.2 2.7,-0.2 C 62.3,82.8 64.8,71.5 67.9,44.5 66,60.8 15.4,56.4 1.6,27 -1.9,19.5 1.2,22.2 2.4,18.8 9.8,28.3 35.5,35.2 40.9,34.4 33.7,30.2 -4.6,21.6 9,0"
   id="path9" />
<g
   class="st1"
   id="g13">
	<path
   class="st2"
   d="m 157.3,35.8 c -0.7,-0.6 -1.4,-1 -2.2,-1.4 -0.8,-0.4 -1.6,-0.6 -2.5,-0.6 -0.5,0 -0.9,0.1 -1.3,0.2 -0.4,0.1 -0.8,0.3 -1.1,0.6 -0.3,0.3 -0.6,0.6 -0.7,0.9 -0.1,0.3 -0.3,0.8 -0.3,1.3 0,0.5 0.1,1 0.3,1.4 0.2,0.4 0.5,0.8 0.9,1.1 0.4,0.3 0.8,0.7 1.2,0.9 0.4,0.3 0.9,0.6 1.4,0.9 0.7,0.4 1.4,0.9 2.1,1.3 0.7,0.4 1.3,0.9 1.8,1.4 0.5,0.5 0.9,1.1 1.2,1.7 0.3,0.7 0.5,1.4 0.5,2.4 0,0.9 -0.2,1.6 -0.5,2.4 -0.3,0.7 -0.8,1.3 -1.3,1.8 -0.6,0.5 -1.2,0.9 -2,1.2 -0.8,0.3 -1.6,0.4 -2.5,0.4 -0.8,0 -1.5,-0.1 -2.1,-0.2 -0.6,-0.1 -1.2,-0.3 -1.8,-0.6 -0.5,-0.2 -1,-0.5 -1.5,-0.8 -0.5,-0.3 -0.9,-0.6 -1.3,-1 l 1.6,-2.1 c 0.3,0.3 0.7,0.6 1,0.8 0.4,0.3 0.8,0.5 1.2,0.8 0.4,0.2 0.9,0.4 1.4,0.6 0.5,0.2 1,0.2 1.6,0.2 1,0 1.8,-0.3 2.4,-0.9 0.6,-0.6 1,-1.4 1,-2.3 0,-0.6 -0.1,-1.2 -0.4,-1.6 -0.3,-0.5 -0.6,-0.9 -1,-1.3 -0.4,-0.4 -0.9,-0.7 -1.5,-1 -0.6,-0.3 -1.1,-0.6 -1.7,-1 -0.6,-0.4 -1.2,-0.7 -1.7,-1.1 -0.6,-0.4 -1.1,-0.8 -1.5,-1.3 -0.4,-0.5 -0.8,-1 -1.1,-1.7 -0.3,-0.6 -0.4,-1.4 -0.4,-2.2 0,-0.9 0.2,-1.6 0.5,-2.3 0.3,-0.7 0.8,-1.3 1.4,-1.7 0.6,-0.4 1.2,-0.8 1.9,-1.1 0.7,-0.2 1.5,-0.4 2.2,-0.4 1.3,0 2.5,0.2 3.6,0.7 1.1,0.4 2.1,1 2.9,1.6 z"
   id="path11" />
</g>
<g
   class="st1"
   id="g17">
	<path
   class="st2"
   d="m 178.1,53.3 -1.6,-5.9 h -7.9 l -1.7,5.9 H 164 l 6.9,-21.4 h 3.8 l 6.1,21.4 z m -5,-19.4 h -0.5 l -3.3,11.3 h 6.8 z"
   id="path15" />
</g>
<g
   class="st1"
   id="g21">
	<path
   class="st2"
   d="m 206.3,53.3 -2.4,-16.5 -5,16.5 h -2.2 l -5.5,-16.6 -1.8,16.6 h -2.8 l 2.8,-21 2.5,-0.6 6,18.5 5.1,-18 2.6,-0.4 3.6,21.6 h -2.9 z"
   id="path19" />
</g>
<g
   class="st1"
   id="g25">
	<path
   class="st2"
   d="m 234.8,53.3 -2.4,-16.5 -5,16.5 h -2.2 l -5.5,-16.6 -1.8,16.6 H 215 l 2.8,-21 2.5,-0.6 6,18.5 5.1,-18 2.6,-0.4 3.6,21.6 h -2.8 z"
   id="path23" />
</g>
<g
   class="st1"
   id="g29">
	<path
   class="st2"
   d="M 254.9,53.3 H 244.4 V 31.9 h 2.6 v 19.2 h 8.2 z"
   id="path27" />
</g>
<g
   class="st1"
   id="g33">
	<path
   class="st2"
   d="m 274.4,47.1 c 0,1 -0.2,1.9 -0.5,2.7 -0.3,0.8 -0.8,1.5 -1.4,2 -0.6,0.6 -1.3,1 -2.1,1.3 -0.8,0.3 -1.8,0.5 -2.8,0.5 -1,0 -1.9,-0.1 -2.8,-0.4 -0.8,-0.3 -1.5,-0.7 -2.1,-1.2 -0.6,-0.5 -1,-1.2 -1.4,-1.9 -0.3,-0.8 -0.5,-1.6 -0.5,-2.6 V 31.9 h 2.7 v 15.3 c 0,1.3 0.4,2.4 1.1,3.1 0.7,0.7 1.7,1.1 3,1.1 1.3,0 2.3,-0.4 3,-1.1 0.7,-0.7 1.1,-1.7 1.1,-3.1 V 31.9 h 2.6 v 15.2 z"
   id="path31" />
</g>
<g
   class="st1"
   id="g37">
	<path
   class="st2"
   d="m 293.6,53.3 -6.7,-13.8 c -0.2,-0.5 -0.4,-0.9 -0.6,-1.3 -0.2,-0.4 -0.3,-0.7 -0.4,-1.1 -0.1,-0.3 -0.3,-0.7 -0.4,-1 -0.1,-0.3 -0.3,-0.8 -0.5,-1.2 0,1 0,2 0,3.1 0,1 0.1,2.2 0.1,3.4 v 12 h -2.5 V 32.6 l 3.1,-1.1 6.9,14.2 c 0.4,0.9 0.8,1.8 1.2,2.6 0.3,0.9 0.7,1.7 1.2,2.6 0,-1 0,-2.1 0,-3.2 0,-1.1 -0.1,-2.2 -0.1,-3.2 V 31.9 h 2.5 v 21.4 z"
   id="path35" />
</g>
<g
   class="st1"
   id="g41">
	<path
   class="st2"
   d="m 317.6,35.8 c -0.6,-0.6 -1.4,-1.1 -2.1,-1.5 -0.8,-0.4 -1.7,-0.6 -2.7,-0.6 -0.9,0 -1.7,0.2 -2.3,0.7 -0.6,0.5 -1.2,1.1 -1.6,1.9 -0.4,0.8 -0.7,1.7 -0.9,2.8 -0.2,1 -0.3,2.1 -0.3,3.3 0,1.2 0.1,2.3 0.3,3.4 0.2,1.1 0.4,2.1 0.8,2.9 0.4,0.8 0.9,1.5 1.5,2 0.6,0.5 1.4,0.8 2.4,0.8 0.7,0 1.4,0 2,-0.1 0.6,-0.1 1.2,-0.2 1.8,-0.4 v -7.9 h -4.1 l 0.4,-2.1 h 6.2 v 11 c -0.8,0.5 -1.7,0.9 -2.8,1.2 -1.1,0.3 -2.3,0.5 -3.5,0.5 -1.4,0 -2.6,-0.3 -3.6,-0.9 -1,-0.6 -1.8,-1.4 -2.5,-2.4 -0.6,-1 -1.1,-2.2 -1.4,-3.6 -0.3,-1.4 -0.4,-2.8 -0.4,-4.4 0,-1.6 0.2,-3 0.5,-4.4 0.3,-1.3 0.9,-2.5 1.5,-3.4 0.6,-0.9 1.5,-1.7 2.5,-2.2 1,-0.5 2.1,-0.8 3.4,-0.8 1.4,0 2.7,0.2 3.8,0.7 1.1,0.5 2,1.1 2.8,2 z"
   id="path39" />
</g>
<g
   class="st1"
   id="g45">
	<path
   class="st2"
   d="m 337.9,35.8 c -0.7,-0.6 -1.4,-1 -2.2,-1.4 -0.8,-0.4 -1.6,-0.6 -2.5,-0.6 -0.5,0 -0.9,0.1 -1.3,0.2 -0.4,0.1 -0.8,0.3 -1.1,0.6 -0.3,0.2 -0.6,0.6 -0.7,0.9 -0.2,0.4 -0.3,0.8 -0.3,1.3 0,0.5 0.1,1 0.3,1.4 0.2,0.4 0.5,0.8 0.9,1.1 0.4,0.3 0.8,0.7 1.2,0.9 0.4,0.3 0.9,0.6 1.3,0.9 0.7,0.4 1.4,0.9 2.1,1.3 0.7,0.4 1.3,0.9 1.8,1.4 0.5,0.5 0.9,1.1 1.2,1.7 0.3,0.7 0.5,1.4 0.5,2.4 0,0.9 -0.2,1.6 -0.5,2.4 -0.3,0.7 -0.8,1.3 -1.3,1.8 -0.5,0.5 -1.2,0.9 -2,1.2 -0.8,0.3 -1.6,0.4 -2.5,0.4 -0.8,0 -1.5,-0.1 -2.1,-0.2 -0.6,-0.1 -1.2,-0.3 -1.8,-0.6 -0.5,-0.2 -1,-0.5 -1.5,-0.8 -0.5,-0.3 -0.9,-0.6 -1.3,-1 l 1.6,-2.1 c 0.3,0.3 0.7,0.6 1,0.8 0.3,0.2 0.8,0.5 1.2,0.8 0.4,0.2 0.9,0.4 1.4,0.6 0.5,0.2 1,0.2 1.6,0.2 1,0 1.8,-0.3 2.4,-0.9 0.6,-0.6 1,-1.4 1,-2.3 0,-0.6 -0.1,-1.2 -0.4,-1.6 -0.3,-0.4 -0.6,-0.9 -1,-1.3 -0.4,-0.4 -0.9,-0.7 -1.5,-1 -0.5,-0.3 -1.1,-0.6 -1.7,-1 -0.6,-0.4 -1.2,-0.7 -1.7,-1.1 -0.6,-0.4 -1.1,-0.8 -1.5,-1.3 -0.4,-0.5 -0.8,-1 -1.1,-1.7 -0.3,-0.6 -0.4,-1.4 -0.4,-2.2 0,-0.9 0.2,-1.6 0.5,-2.3 0.3,-0.7 0.8,-1.3 1.4,-1.7 0.6,-0.5 1.2,-0.8 1.9,-1.1 0.7,-0.2 1.5,-0.4 2.2,-0.4 1.3,0 2.5,0.2 3.6,0.7 1.1,0.4 2.1,1 2.9,1.6 z"
   id="path43" />
</g>
<g
   class="st1"
   id="g49">
	<path
   class="st2"
   d="m 358.5,35.8 c -0.6,-0.6 -1.4,-1.1 -2.1,-1.5 -0.8,-0.4 -1.7,-0.6 -2.7,-0.6 -0.9,0 -1.7,0.2 -2.3,0.7 -0.6,0.5 -1.2,1.1 -1.6,1.9 -0.4,0.8 -0.7,1.7 -0.9,2.8 -0.2,1 -0.3,2.1 -0.3,3.3 0,1.2 0.1,2.3 0.3,3.4 0.2,1.1 0.5,2.1 0.8,2.9 0.4,0.8 0.9,1.5 1.5,2 0.6,0.5 1.4,0.8 2.4,0.8 0.7,0 1.4,0 2,-0.1 0.6,-0.1 1.2,-0.2 1.8,-0.4 v -7.9 h -4.1 l 0.4,-2.1 h 6.2 v 11 c -0.8,0.5 -1.7,0.9 -2.8,1.2 -1.1,0.3 -2.3,0.5 -3.5,0.5 -1.4,0 -2.6,-0.3 -3.6,-0.9 -1,-0.6 -1.8,-1.4 -2.5,-2.4 -0.6,-1 -1.1,-2.2 -1.4,-3.6 -0.3,-1.4 -0.4,-2.8 -0.4,-4.4 0,-1.6 0.2,-3 0.5,-4.4 0.3,-1.3 0.9,-2.5 1.5,-3.4 0.6,-0.9 1.5,-1.7 2.5,-2.2 1,-0.5 2.1,-0.8 3.5,-0.8 1.4,0 2.7,0.2 3.8,0.7 1.1,0.5 2,1.1 2.8,2 z"
   id="path47" />
</g>
<g
   class="st1"
   id="g53">
	<path
   class="st2"
   d="m 381.3,47.1 c 0,1 -0.2,1.9 -0.5,2.7 -0.3,0.8 -0.8,1.5 -1.4,2 -0.6,0.6 -1.3,1 -2.1,1.3 -0.8,0.3 -1.8,0.5 -2.8,0.5 -1,0 -1.9,-0.1 -2.8,-0.4 -0.8,-0.3 -1.5,-0.7 -2.1,-1.2 -0.6,-0.5 -1,-1.2 -1.4,-1.9 -0.3,-0.8 -0.5,-1.6 -0.5,-2.6 V 31.9 h 2.7 v 15.3 c 0,1.3 0.4,2.4 1.1,3.1 0.7,0.7 1.7,1.1 3,1.1 1.3,0 2.3,-0.4 3,-1.1 0.7,-0.7 1.1,-1.7 1.1,-3.1 V 31.9 h 2.6 v 15.2 z"
   id="path51" />
</g>
<g
   class="st1"
   id="g57">
	<path
   class="st2"
   d="M 401.8,34.2 H 396 v 19.1 h -2.7 V 34.2 h -5.8 V 31.9 H 402 Z"
   id="path55" />
</g>
<g
   class="st1"
   id="g61">
	<path
   class="st2"
   d="m 431.5,53.3 -1.6,-5.9 H 422 l -1.7,5.9 h -2.9 l 6.9,-21.4 h 3.8 l 6.1,21.4 z m -5,-19.4 H 426 l -3.3,11.3 h 6.8 z"
   id="path59" />
</g>
<g
   class="st1"
   id="g65">
	<path
   class="st2"
   d="m 453.5,47.1 c 0,1 -0.2,1.9 -0.5,2.7 -0.3,0.8 -0.8,1.5 -1.4,2 -0.6,0.6 -1.3,1 -2.1,1.3 -0.8,0.3 -1.8,0.5 -2.8,0.5 -1,0 -1.9,-0.1 -2.8,-0.4 -0.8,-0.3 -1.5,-0.7 -2.1,-1.2 -0.6,-0.5 -1,-1.2 -1.4,-1.9 -0.3,-0.8 -0.5,-1.6 -0.5,-2.6 V 31.9 h 2.7 v 15.3 c 0,1.3 0.4,2.4 1.1,3.1 0.7,0.7 1.7,1.1 3,1.1 1.3,0 2.3,-0.4 3,-1.1 0.7,-0.7 1.1,-1.7 1.1,-3.1 V 31.9 h 2.6 v 15.2 z"
   id="path63" />
</g>
<g
   class="st1"
   id="g69">
	<path
   class="st2"
   d="m 472.1,35.8 c -0.7,-0.6 -1.4,-1 -2.2,-1.4 -0.8,-0.4 -1.6,-0.6 -2.5,-0.6 -0.5,0 -0.9,0.1 -1.3,0.2 -0.4,0.1 -0.8,0.3 -1.1,0.6 -0.3,0.2 -0.6,0.6 -0.7,0.9 -0.2,0.4 -0.3,0.8 -0.3,1.3 0,0.5 0.1,1 0.3,1.4 0.2,0.4 0.5,0.8 0.9,1.1 0.4,0.3 0.8,0.7 1.2,0.9 0.4,0.3 0.9,0.6 1.4,0.9 0.7,0.4 1.4,0.9 2.1,1.3 0.7,0.4 1.3,0.9 1.8,1.4 0.5,0.5 0.9,1.1 1.2,1.7 0.3,0.7 0.5,1.4 0.5,2.4 0,0.9 -0.2,1.6 -0.5,2.4 -0.3,0.7 -0.8,1.3 -1.3,1.8 -0.6,0.5 -1.2,0.9 -2,1.2 -0.8,0.3 -1.6,0.4 -2.5,0.4 -0.8,0 -1.5,-0.1 -2.1,-0.2 -0.7,-0.1 -1.2,-0.3 -1.8,-0.6 -0.5,-0.2 -1,-0.5 -1.5,-0.8 -0.5,-0.3 -0.9,-0.6 -1.3,-1 L 462,49 c 0.3,0.3 0.7,0.6 1,0.8 0.4,0.3 0.8,0.5 1.2,0.8 0.4,0.2 0.9,0.4 1.4,0.6 0.5,0.2 1,0.2 1.6,0.2 1,0 1.8,-0.3 2.4,-0.9 0.6,-0.6 1,-1.4 1,-2.3 0,-0.6 -0.1,-1.2 -0.4,-1.6 -0.3,-0.5 -0.6,-0.9 -1,-1.3 -0.4,-0.4 -0.9,-0.7 -1.5,-1 -0.6,-0.3 -1.1,-0.6 -1.7,-1 -0.6,-0.4 -1.2,-0.7 -1.7,-1.1 -0.6,-0.4 -1.1,-0.8 -1.5,-1.3 -0.4,-0.5 -0.8,-1 -1.1,-1.7 -0.3,-0.7 -0.4,-1.4 -0.4,-2.2 0,-0.9 0.2,-1.6 0.5,-2.3 0.3,-0.7 0.8,-1.3 1.4,-1.7 0.6,-0.5 1.2,-0.8 1.9,-1.1 0.7,-0.2 1.5,-0.4 2.2,-0.4 1.3,0 2.5,0.2 3.6,0.7 1.1,0.4 2.1,1 2.9,1.6 z"
   id="path67" />
</g>
<g
   class="st1"
   id="g73">
	<path
   class="st2"
   d="m 157.6,89.3 -6.3,-10 H 149 v 10 h -2.7 V 67.9 h 2.7 v 9 h 2.2 l 6.5,-9.2 2.2,1.4 -6.6,8.9 7.6,11.3 z"
   id="path71" />
</g>
<g
   class="st1"
   id="g77">
	<path
   class="st2"
   d="m 181.3,78.6 c 0,1.5 -0.2,3 -0.5,4.3 -0.3,1.3 -0.8,2.5 -1.5,3.5 -0.7,1 -1.5,1.8 -2.5,2.4 -1,0.6 -2.2,0.9 -3.6,0.9 -1.4,0 -2.6,-0.3 -3.6,-0.8 -1,-0.5 -1.9,-1.3 -2.5,-2.2 -0.7,-1 -1.1,-2.1 -1.5,-3.5 -0.3,-1.3 -0.5,-2.9 -0.5,-4.5 0,-1.6 0.2,-3 0.5,-4.4 0.3,-1.3 0.8,-2.5 1.5,-3.5 0.7,-1 1.5,-1.8 2.5,-2.3 1,-0.6 2.2,-0.8 3.6,-0.8 1.4,0 2.6,0.3 3.6,0.9 1,0.6 1.9,1.4 2.5,2.4 0.6,1 1.1,2.2 1.5,3.5 0.3,1.1 0.5,2.5 0.5,4.1 z m -3,0 c 0,-1.2 -0.1,-2.3 -0.3,-3.4 -0.2,-1.1 -0.5,-2.1 -0.9,-2.9 -0.4,-0.8 -1,-1.5 -1.6,-2 -0.6,-0.5 -1.4,-0.7 -2.3,-0.7 -0.9,0 -1.7,0.2 -2.4,0.7 -0.7,0.5 -1.2,1.2 -1.6,2 -0.4,0.8 -0.7,1.8 -0.9,2.9 -0.2,1.1 -0.3,2.2 -0.3,3.4 0,1.3 0.1,2.5 0.3,3.6 0.2,1.1 0.5,2.1 0.9,2.9 0.4,0.8 0.9,1.5 1.6,1.9 0.6,0.5 1.4,0.7 2.4,0.7 0.9,0 1.7,-0.2 2.4,-0.7 0.6,-0.5 1.2,-1.1 1.6,-2 0.4,-0.9 0.7,-1.8 0.9,-2.9 0.2,-1.1 0.2,-2.3 0.2,-3.5 z"
   id="path75" />
</g>
<g
   class="st1"
   id="g81">
	<path
   class="st2"
   d="M 199.3,89.3 H 188.8 V 67.9 h 2.6 v 19.2 h 8.2 z"
   id="path79" />
</g>
<g
   class="st1"
   id="g85">
	<path
   class="st2"
   d="m 220.5,78.6 c 0,1.5 -0.2,3 -0.5,4.3 -0.3,1.3 -0.8,2.5 -1.5,3.5 -0.7,1 -1.5,1.8 -2.5,2.4 -1,0.6 -2.2,0.9 -3.6,0.9 -1.4,0 -2.6,-0.3 -3.6,-0.8 -1,-0.5 -1.9,-1.3 -2.5,-2.2 -0.7,-1 -1.1,-2.1 -1.5,-3.5 -0.3,-1.3 -0.5,-2.9 -0.5,-4.5 0,-1.6 0.2,-3 0.5,-4.4 0.3,-1.3 0.8,-2.5 1.5,-3.5 0.7,-1 1.5,-1.8 2.5,-2.3 1,-0.6 2.2,-0.8 3.6,-0.8 1.4,0 2.6,0.3 3.6,0.9 1,0.6 1.9,1.4 2.5,2.4 0.6,1 1.1,2.2 1.5,3.5 0.4,1.1 0.5,2.5 0.5,4.1 z m -2.9,0 c 0,-1.2 -0.1,-2.3 -0.3,-3.4 -0.2,-1.1 -0.5,-2.1 -0.9,-2.9 -0.4,-0.8 -1,-1.5 -1.6,-2 -0.6,-0.5 -1.4,-0.7 -2.3,-0.7 -0.9,0 -1.7,0.2 -2.4,0.7 -0.7,0.5 -1.2,1.2 -1.6,2 -0.4,0.8 -0.7,1.8 -0.9,2.9 -0.2,1.1 -0.3,2.2 -0.3,3.4 0,1.3 0.1,2.5 0.3,3.6 0.2,1.1 0.5,2.1 0.9,2.9 0.4,0.8 0.9,1.5 1.6,1.9 0.6,0.5 1.4,0.7 2.4,0.7 0.9,0 1.7,-0.2 2.4,-0.7 0.6,-0.5 1.2,-1.1 1.6,-2 0.4,-0.9 0.7,-1.8 0.9,-2.9 0.2,-1.1 0.2,-2.3 0.2,-3.5 z"
   id="path83" />
</g>
<g
   class="st1"
   id="g89">
	<path
   class="st2"
   d="m 239,89.3 -6.7,-13.8 c -0.2,-0.5 -0.4,-0.9 -0.6,-1.3 -0.2,-0.4 -0.3,-0.7 -0.4,-1.1 -0.1,-0.3 -0.3,-0.7 -0.4,-1 -0.1,-0.3 -0.3,-0.8 -0.5,-1.2 0,1 0,2 0,3.1 0,1 0.1,2.2 0.1,3.4 v 12 H 228 V 68.6 l 3.1,-1.1 6.9,14.2 c 0.4,0.9 0.8,1.8 1.2,2.6 0.3,0.9 0.7,1.7 1.2,2.6 0,-1 0,-2.1 0,-3.2 0,-1.1 -0.1,-2.2 -0.1,-3.2 V 67.9 h 2.5 v 21.4 z"
   id="path87" />
</g>
<g
   class="st1"
   id="g95">
	<path
   class="st2"
   d="M 250.9,89.3 V 67.9 h 2.6 v 21.4 z"
   id="path91" />
	<path
   class="st2"
   d="m 274,89.3 -1.6,-5.9 h -7.9 l -1.7,5.9 H 260 l 6.9,-21.4 h 3.8 l 6.1,21.4 z m -4.9,-19.4 h -0.5 l -3.3,11.3 h 6.8 z"
   id="path93" />
</g>
<g
   class="st1"
   id="g99">
	<path
   class="st2"
   d="M 293.6,89.3 H 283.1 V 67.9 h 2.6 v 19.2 h 8.2 z"
   id="path97" />
</g>
<g
   class="st1"
   id="g103">
	<path
   class="st2"
   d="m 310.8,70.1 h -8.2 v 6.7 h 6.8 L 309,79 h -6.4 v 8 h 8.6 l -0.3,2.3 H 300 V 67.9 h 11.2 z"
   id="path101" />
</g>
<g
   class="st1"
   id="g107">
	<path
   class="st2"
   d="m 329,89.3 -6.7,-13.8 c -0.2,-0.5 -0.4,-0.9 -0.6,-1.3 -0.2,-0.4 -0.3,-0.7 -0.4,-1.1 -0.1,-0.3 -0.3,-0.7 -0.4,-1 -0.1,-0.3 -0.3,-0.8 -0.5,-1.2 0,1 0,2 0,3.1 0,1 0.1,2.2 0.1,3.4 v 12 H 318 V 68.6 l 3.1,-1.1 6.9,14.2 c 0.4,0.9 0.8,1.8 1.2,2.6 0.3,0.9 0.7,1.7 1.2,2.6 0,-1 0,-2.1 0,-3.2 0,-1.1 -0.1,-2.2 -0.1,-3.2 V 67.9 h 2.5 v 21.4 z"
   id="path105" />
</g>
<g
   class="st1"
   id="g111">
	<path
   class="st2"
   d="m 364.3,89.3 -6.3,-10 h -2.2 v 10 H 353 V 67.9 h 2.7 v 9 h 2.2 l 6.5,-9.2 2.2,1.4 -6.6,8.9 7.6,11.3 z"
   id="path109" />
</g>
<g
   class="st1"
   id="g115">
	<path
   class="st2"
   d="m 388,78.6 c 0,1.5 -0.2,3 -0.5,4.3 -0.3,1.3 -0.8,2.5 -1.5,3.5 -0.7,1 -1.5,1.8 -2.5,2.4 -1,0.6 -2.2,0.9 -3.6,0.9 -1.4,0 -2.6,-0.3 -3.6,-0.8 -1,-0.5 -1.9,-1.3 -2.5,-2.2 -0.6,-0.9 -1.2,-2.1 -1.5,-3.5 -0.3,-1.3 -0.5,-2.9 -0.5,-4.5 0,-1.6 0.2,-3 0.5,-4.4 0.3,-1.4 0.8,-2.5 1.5,-3.5 0.7,-1 1.5,-1.8 2.5,-2.3 1,-0.6 2.2,-0.8 3.6,-0.8 1.4,0 2.6,0.3 3.6,0.9 1,0.6 1.9,1.4 2.5,2.4 0.6,1 1.1,2.2 1.5,3.5 0.3,1.1 0.5,2.5 0.5,4.1 z m -3,0 c 0,-1.2 -0.1,-2.3 -0.3,-3.4 -0.2,-1.1 -0.5,-2.1 -0.9,-2.9 -0.4,-0.8 -1,-1.5 -1.6,-2 -0.7,-0.5 -1.4,-0.7 -2.3,-0.7 -0.9,0 -1.7,0.2 -2.4,0.7 -0.7,0.5 -1.2,1.2 -1.6,2 -0.4,0.8 -0.7,1.8 -0.9,2.9 -0.2,1.1 -0.3,2.2 -0.3,3.4 0,1.3 0.1,2.5 0.3,3.6 0.2,1.1 0.5,2.1 0.9,2.9 0.4,0.8 0.9,1.5 1.6,1.9 0.7,0.5 1.4,0.7 2.4,0.7 0.9,0 1.7,-0.2 2.4,-0.7 0.6,-0.5 1.2,-1.1 1.6,-2 0.4,-0.9 0.7,-1.8 0.9,-2.9 0.1,-1.1 0.2,-2.3 0.2,-3.5 z"
   id="path113" />
</g>
<g
   class="st1"
   id="g119">
	<path
   class="st2"
   d="m 406.4,89.3 -6.7,-13.8 c -0.2,-0.5 -0.4,-0.9 -0.6,-1.3 -0.2,-0.4 -0.3,-0.7 -0.4,-1.1 -0.1,-0.3 -0.3,-0.7 -0.4,-1 -0.1,-0.3 -0.3,-0.8 -0.5,-1.2 0,1 0,2 0,3.1 0,1 0.1,2.2 0.1,3.4 v 12 h -2.5 V 68.6 l 3.1,-1.1 6.9,14.2 c 0.4,0.9 0.8,1.8 1.2,2.6 0.3,0.9 0.7,1.7 1.2,2.6 0,-1 0,-2.1 0,-3.2 0,-1.1 -0.1,-2.2 -0.1,-3.2 V 67.9 h 2.5 v 21.4 z"
   id="path117" />
</g>
<g
   class="st1"
   id="g123">
	<path
   class="st2"
   d="m 430.6,70.2 h -5.8 v 19.1 h -2.7 V 70.2 h -5.8 v -2.3 h 14.5 z"
   id="path121" />
</g>
<g
   class="st1"
   id="g127">
	<path
   class="st2"
   d="m 447.7,70.1 h -8.2 v 6.7 h 6.8 l -0.4,2.2 h -6.4 v 8 h 8.6 l -0.3,2.3 H 436.9 V 67.9 h 11.2 z"
   id="path125" />
</g>
<g
   class="st1"
   id="g131">
	<path
   class="st2"
   d="m 466.4,89.3 -4.5,-8.7 -4.5,8.7 H 454 l 6.4,-10.9 -6.4,-9.9 3.1,-0.8 4.8,8.5 4.8,-8.5 2.9,0.9 -6.3,9.9 6.6,10.9 h -3.5 z"
   id="path129" />
</g>
<g
   class="st1"
   id="g135">
	<path
   class="st2"
   d="m 489.3,70.2 h -5.8 v 19.1 h -2.7 V 70.2 H 475 v -2.3 h 14.5 z"
   id="path133" />
</g>
<g
   class="st1"
   id="g139">
	<path
   class="st2"
   d="m 506.3,70.1 h -8.2 v 6.7 h 6.8 l -0.4,2.2 h -6.4 v 8 h 8.6 l -0.3,2.3 H 495.5 V 67.9 h 11.2 z"
   id="path137" />
</g>
<g
   class="st1"
   id="g143">
	<path
   class="st2"
   d="m 524.5,89.3 -6.7,-13.8 c -0.2,-0.5 -0.4,-0.9 -0.6,-1.3 -0.2,-0.4 -0.3,-0.7 -0.4,-1.1 -0.1,-0.3 -0.3,-0.7 -0.4,-1 -0.1,-0.3 -0.3,-0.8 -0.5,-1.2 0,1 0,2 0,3.1 0,1 0.1,2.2 0.1,3.4 v 12 h -2.5 V 68.6 l 3.1,-1.1 6.9,14.2 c 0.4,0.9 0.8,1.8 1.2,2.6 0.3,0.9 0.7,1.7 1.2,2.6 0,-1 0,-2.1 0,-3.2 0,-1.1 -0.1,-2.2 -0.1,-3.2 V 67.9 h 2.5 v 21.4 z"
   id="path141" />
</g>
</svg>
