<?xml version="1.0" encoding="UTF-8" standalone="no"?>
<!-- Generator: Adobe Illustrator 16.0.0, SVG Export Plug-In . SVG Version: 6.00 Build 0)  -->

<svg
   version="1.1"
   id="neu"
   x="0px"
   y="0px"
   width="650"
   height="125"
   viewBox="0 0 649.99999 125"
   enable-background="new 0 0 644.656 125.363"
   xml:space="preserve"
   sodipodi:docname="DDB_Logo_RGB_Reduziert_Claim.svg"
   inkscape:version="1.1.2 (b8e25be833, 2022-02-05)"
   xmlns:inkscape="http://www.inkscape.org/namespaces/inkscape"
   xmlns:sodipodi="http://sodipodi.sourceforge.net/DTD/sodipodi-0.dtd"
   xmlns="http://www.w3.org/2000/svg"
   xmlns:svg="http://www.w3.org/2000/svg"><defs
   id="defs112" /><sodipodi:namedview
   id="namedview110"
   pagecolor="#ffffff"
   bordercolor="#666666"
   borderopacity="1.0"
   inkscape:pageshadow="2"
   inkscape:pageopacity="0.0"
   inkscape:pagecheckerboard="0"
   showgrid="false"
   inkscape:zoom="0.87566081"
   inkscape:cx="110.20249"
   inkscape:cy="231.82492"
   inkscape:window-width="1920"
   inkscape:window-height="1017"
   inkscape:window-x="1912"
   inkscape:window-y="-8"
   inkscape:window-maximized="1"
   inkscape:current-layer="neu" />
<g
   id="g9">
	
		<linearGradient
   id="SVGID_1_"
   gradientUnits="userSpaceOnUse"
   x1="0"
   y1="-16190.738"
   x2="131.66701"
   y2="-16190.738"
   gradientTransform="matrix(1,0,0,-1,0,-16128.059)">
		<stop
   offset="0"
   style="stop-color:#A5003B"
   id="stop2" />
		<stop
   offset="1"
   style="stop-color:#EC0A3C"
   id="stop4" />
	</linearGradient>
	<path
   fill-rule="evenodd"
   clip-rule="evenodd"
   fill="url(#SVGID_1_)"
   d="m 8.981,0 c 4.597,-0.003 7.363,4.918 7.363,4.918 1.887,10.738 7.621,15.648 17.176,14.721 1.839,7.395 16.613,14.133 22.081,9.817 2.787,-2.195 2.126,-14.579 2.456,-14.721 1.235,-0.578 6.59,22.417 7.218,1.669 0.018,-0.481 0.308,-0.638 0.394,-0.168 2.713,13.348 13.115,-1.281 12.02,10.762 12.163,-10.032 20.105,-9.221 26.988,-24.535 4.037,11.457 -16.703,19.233 -22.081,29.446 1.056,5.484 12.087,0.994 17.17,2.451 -20.55,-6.906 -1.952,-0.491 4.91,-9.817 -1.7,-6.119 -6.542,4.555 -12.271,2.455 C 97.161,21.883 120,13.723 124.312,0 c 4.557,8.746 -14.303,15.092 -17.183,24.542 5.551,2.038 16.507,-2.855 22.084,-12.265 4.148,14.83 -18.633,23.864 -34.35,26.989 9.724,7.164 24.753,-8.683 36.802,-2.45 -15.752,10.088 -2.185,22.901 -30.055,14.072 6.8,-2.887 9.629,-4.445 17.152,-4.585 -13.907,-3.459 -34.541,0.91 -41.075,-4.582 0.532,10.919 12.407,9.69 17.637,15.911 29.377,-6.858 -12.6,12.908 -20.089,-3.64 -5.186,-6.009 2.58,3.661 7.36,2.449 -0.498,-9.324 -10.322,-9.307 -9.822,-19.625 -7.188,2.083 2.124,8.178 0,12.267 -12.022,23.218 -10.891,64.784 -33.792,75.841 -0.273,0.132 -1.01,0.628 -1.361,0.36 -0.288,-0.228 -0.214,-1.157 -0.206,-1.589 0.133,-6.941 3.704,-18.699 12.046,-20.844 0.886,-0.224 2.159,-0.241 2.74,-0.231 C 62.326,82.483 64.797,71.189 67.872,44.177 65.983,60.752 15.374,56.422 1.622,26.998 -1.899,19.479 1.23,22.173 2.383,18.78 9.77,28.254 35.483,35.177 40.876,34.36 33.654,30.242 -4.567,21.597 8.981,0"
   id="path7" />
</g>
<g
   id="g63">
	<path
   fill="#323232"
   d="m 160.688,52.195 c 0,1.48 -0.225,2.865 -0.675,4.155 -0.45,1.29 -1.115,2.41 -1.995,3.36 -0.88,0.95 -1.96,1.7 -3.24,2.25 -1.28,0.55 -2.75,0.825 -4.41,0.825 h -4.05 v -21.39 h 4.05 c 1.74,0 3.255,0.27 4.545,0.81 1.29,0.54 2.365,1.29 3.225,2.25 0.86,0.96 1.5,2.1 1.92,3.42 0.42,1.32 0.63,2.76 0.63,4.32 z m -2.85,0 c 0,-1.22 -0.161,-2.36 -0.482,-3.42 -0.321,-1.06 -0.793,-1.975 -1.415,-2.745 -0.622,-0.77 -1.399,-1.375 -2.333,-1.815 -0.934,-0.44 -2.012,-0.66 -3.236,-0.66 h -1.385 v 16.98 h 1.385 c 1.224,0 2.302,-0.215 3.236,-0.645 0.933,-0.43 1.711,-1.02 2.333,-1.77 0.622,-0.75 1.094,-1.635 1.415,-2.655 0.321,-1.02 0.482,-2.11 0.482,-3.27 z"
   id="path11" />
	<path
   fill="#323232"
   d="m 178.441,43.585 h -8.19 v 6.72 h 6.78 l -0.36,2.25 h -6.42 v 7.92 h 8.61 l -0.33,2.31 h -10.86 v -21.42 l 11.22,0.029 z"
   id="path13" />
	<path
   fill="#323232"
   d="m 199.207,56.605 c 0,1 -0.16,1.9 -0.48,2.7 -0.32,0.8 -0.775,1.48 -1.365,2.04 -0.59,0.56 -1.305,0.99 -2.145,1.29 -0.84,0.3 -1.78,0.45 -2.82,0.45 -1.02,0 -1.94,-0.135 -2.76,-0.405 -0.82,-0.27 -1.525,-0.665 -2.115,-1.185 -0.59,-0.52 -1.045,-1.155 -1.365,-1.905 -0.32,-0.75 -0.48,-1.615 -0.48,-2.595 v -15.6 h 2.67 v 15.27 c 0,1.34 0.36,2.375 1.08,3.105 0.72,0.73 1.71,1.095 2.97,1.095 1.28,0 2.295,-0.36 3.045,-1.08 0.75,-0.72 1.125,-1.74 1.125,-3.06 v -15.33 h 2.64 z"
   id="path15" />
	<path
   fill="#323232"
   d="m 219.661,43.705 h -5.79 v 19.08 h -2.7 v -19.08 h -5.76 v -2.31 h 14.46 z"
   id="path17" />
	<path
   fill="#323232"
   d="m 236.539,45.325 c -0.7,-0.56 -1.445,-1.03 -2.235,-1.41 -0.791,-0.379 -1.625,-0.57 -2.505,-0.57 -0.46,0 -0.896,0.06 -1.305,0.18 -0.41,0.12 -0.77,0.305 -1.08,0.555 -0.31,0.25 -0.555,0.565 -0.735,0.945 -0.18,0.38 -0.27,0.82 -0.27,1.32 0,0.54 0.11,1.015 0.33,1.425 0.22,0.41 0.51,0.785 0.87,1.125 0.36,0.34 0.76,0.655 1.2,0.945 0.44,0.29 0.89,0.575 1.35,0.855 0.7,0.44 1.385,0.87 2.055,1.29 0.669,0.42 1.265,0.88 1.785,1.38 0.52,0.5 0.935,1.075 1.245,1.725 0.31,0.65 0.465,1.435 0.465,2.355 0,0.86 -0.16,1.645 -0.48,2.355 -0.32,0.71 -0.765,1.315 -1.335,1.815 -0.57,0.5 -1.245,0.89 -2.025,1.17 -0.78,0.28 -1.62,0.42 -2.52,0.42 -0.78,0 -1.495,-0.07 -2.145,-0.21 -0.65,-0.14 -1.245,-0.33 -1.785,-0.57 -0.54,-0.24 -1.04,-0.51 -1.5,-0.81 -0.46,-0.3 -0.89,-0.62 -1.29,-0.96 l 1.62,-2.1 c 0.32,0.28 0.665,0.56 1.035,0.84 0.37,0.28 0.77,0.54 1.2,0.78 0.43,0.24 0.895,0.435 1.395,0.585 0.5,0.15 1.04,0.225 1.62,0.225 0.98,0 1.79,-0.295 2.43,-0.885 0.64,-0.59 0.96,-1.365 0.96,-2.325 0,-0.62 -0.13,-1.165 -0.39,-1.635 -0.26,-0.47 -0.605,-0.89 -1.035,-1.26 -0.431,-0.37 -0.92,-0.715 -1.47,-1.035 -0.55,-0.32 -1.105,-0.65 -1.665,-0.99 -0.58,-0.36 -1.15,-0.735 -1.71,-1.125 -0.56,-0.39 -1.065,-0.83 -1.515,-1.32 -0.45,-0.49 -0.815,-1.05 -1.095,-1.68 -0.28,-0.63 -0.42,-1.365 -0.42,-2.205 0,-0.86 0.175,-1.63 0.525,-2.31 0.35,-0.68 0.805,-1.255 1.365,-1.725 0.56,-0.47 1.2,-0.825 1.92,-1.065 0.72,-0.24 1.46,-0.36 2.22,-0.36 1.28,0 2.465,0.221 3.555,0.66 1.09,0.44 2.055,0.99 2.895,1.65 z"
   id="path19" />
	<path
   fill="#323232"
   d="m 256.455,45.595 c -0.48,-0.68 -1.065,-1.225 -1.755,-1.635 -0.69,-0.41 -1.515,-0.615 -2.475,-0.615 -0.88,0 -1.635,0.25 -2.265,0.75 -0.63,0.5 -1.145,1.165 -1.545,1.995 -0.4,0.83 -0.69,1.785 -0.87,2.865 -0.18,1.08 -0.27,2.21 -0.27,3.39 0,1.16 0.09,2.26 0.27,3.3 0.18,1.041 0.475,1.955 0.885,2.745 0.41,0.791 0.935,1.42 1.575,1.89 0.64,0.47 1.42,0.705 2.34,0.705 0.98,0 1.785,-0.18 2.415,-0.54 0.63,-0.36 1.215,-0.77 1.755,-1.23 l 1.77,1.77 c -0.64,0.62 -1.46,1.145 -2.46,1.575 -1,0.43 -2.16,0.645 -3.48,0.645 -1.42,0 -2.64,-0.275 -3.66,-0.825 -1.02,-0.55 -1.85,-1.31 -2.49,-2.28 -0.64,-0.97 -1.11,-2.115 -1.41,-3.435 -0.3,-1.32 -0.45,-2.76 -0.45,-4.32 0,-1.64 0.175,-3.145 0.525,-4.515 0.35,-1.37 0.86,-2.55 1.53,-3.54 0.669,-0.99 1.504,-1.765 2.505,-2.325 1,-0.56 2.149,-0.84 3.45,-0.84 1.4,0 2.61,0.28 3.63,0.84 1.02,0.56 1.87,1.27 2.55,2.13 z"
   id="path21" />
	<path
   fill="#323232"
   d="m 277.008,62.785 v -10.2 h -9.51 v 10.2 h -2.64 v -21.42 h 2.67 v 9.06 h 9.48 v -9.06 h 2.61 v 21.42 z"
   id="path23" />
	<path
   fill="#323232"
   d="m 298.572,43.585 h -8.19 v 6.72 h 6.78 l -0.36,2.25 h -6.42 v 7.92 h 8.61 l -0.33,2.31 h -10.86 v -21.42 l 11.22,0.029 z"
   id="path25" />
	<path
   fill="#323232"
   d="m 332.411,52.195 c 0,1.48 -0.225,2.865 -0.675,4.155 -0.45,1.29 -1.115,2.41 -1.995,3.36 -0.88,0.95 -1.96,1.7 -3.24,2.25 -1.28,0.55 -2.75,0.825 -4.41,0.825 h -4.05 v -21.39 h 4.05 c 1.74,0 3.255,0.27 4.545,0.81 1.29,0.54 2.365,1.29 3.225,2.25 0.86,0.96 1.5,2.1 1.92,3.42 0.42,1.32 0.63,2.76 0.63,4.32 z m -2.849,0 c 0,-1.22 -0.161,-2.36 -0.482,-3.42 -0.321,-1.06 -0.793,-1.975 -1.415,-2.745 -0.622,-0.77 -1.399,-1.375 -2.333,-1.815 -0.934,-0.44 -2.012,-0.66 -3.236,-0.66 h -1.385 v 16.98 h 1.385 c 1.224,0 2.302,-0.215 3.236,-0.645 0.933,-0.43 1.711,-1.02 2.333,-1.77 0.622,-0.75 1.094,-1.635 1.415,-2.655 0.32,-1.02 0.482,-2.11 0.482,-3.27 z"
   id="path27" />
	<path
   fill="#323232"
   d="m 339.443,62.785 v -21.39 h 2.609 v 21.39 z"
   id="path29" />
	<path
   fill="#323232"
   d="m 362.396,45.325 c -0.641,-0.64 -1.355,-1.15 -2.146,-1.53 -0.79,-0.379 -1.675,-0.57 -2.654,-0.57 -0.921,0 -1.7,0.235 -2.34,0.705 -0.641,0.47 -1.166,1.105 -1.575,1.905 -0.41,0.8 -0.705,1.721 -0.886,2.76 -0.18,1.04 -0.27,2.14 -0.27,3.3 0,1.181 0.085,2.315 0.255,3.405 0.17,1.09 0.45,2.055 0.84,2.895 0.391,0.84 0.905,1.51 1.545,2.01 0.641,0.5 1.43,0.75 2.37,0.75 0.7,0 1.37,-0.04 2.01,-0.12 0.641,-0.08 1.23,-0.2 1.771,-0.36 v -7.89 h -4.08 l 0.36,-2.1 h 6.239 v 11.01 c -0.76,0.48 -1.689,0.87 -2.79,1.17 -1.1,0.3 -2.27,0.45 -3.51,0.45 -1.42,0 -2.63,-0.29 -3.63,-0.87 -1,-0.58 -1.82,-1.37 -2.46,-2.37 -0.641,-1 -1.11,-2.185 -1.41,-3.555 -0.3,-1.37 -0.45,-2.845 -0.45,-4.425 0,-1.58 0.175,-3.03 0.525,-4.35 0.35,-1.32 0.859,-2.46 1.53,-3.42 0.67,-0.96 1.505,-1.71 2.505,-2.25 1,-0.54 2.149,-0.81 3.45,-0.81 1.439,0 2.694,0.235 3.765,0.705 1.069,0.47 2.015,1.125 2.835,1.965 z"
   id="path31" />
	<path
   fill="#323232"
   d="m 371.828,62.785 v -21.39 h 2.609 v 21.39 z"
   id="path33" />
	<path
   fill="#323232"
   d="m 394.891,43.705 h -5.79 v 19.08 h -2.7 v -19.08 h -5.76 v -2.31 h 14.46 z"
   id="path35" />
	<path
   fill="#323232"
   d="m 411.151,62.785 -1.59,-5.91 h -7.92 l -1.74,5.91 h -2.851 l 6.931,-21.39 h 3.84 l 6.12,21.39 z m -4.98,-19.38 h -0.54 l -3.33,11.34 h 6.75 z"
   id="path37" />
	<path
   fill="#323232"
   d="m 430.819,62.785 h -10.53 v -21.39 h 2.58 v 19.17 h 8.16 z"
   id="path39" />
	<path
   fill="#323232"
   d="m 447.986,43.585 h -8.189 v 6.72 h 6.779 l -0.359,2.25 h -6.42 v 7.92 h 8.609 l -0.33,2.31 h -10.859 v -21.42 l 11.22,0.029 z"
   id="path41" />
	<path
   fill="#323232"
   d="m 480.146,56.575 c 0,0.94 -0.17,1.795 -0.51,2.565 -0.34,0.77 -0.825,1.425 -1.455,1.965 -0.63,0.54 -1.38,0.956 -2.25,1.245 -0.87,0.29 -1.835,0.435 -2.895,0.435 h -5.58 v -21.39 h 5.16 c 1.039,0 1.995,0.115 2.864,0.345 0.87,0.23 1.61,0.57 2.221,1.02 0.609,0.45 1.084,1 1.425,1.65 0.34,0.65 0.51,1.395 0.51,2.235 0,1.121 -0.311,2.06 -0.93,2.82 -0.62,0.76 -1.4,1.34 -2.34,1.74 1.14,0.42 2.055,1.09 2.745,2.01 0.69,0.92 1.035,2.04 1.035,3.36 z m -3.27,-9.72 c 0,-1.18 -0.396,-2.044 -1.186,-2.595 -0.79,-0.55 -1.814,-0.825 -3.074,-0.825 h -2.61 v 6.87 h 2.79 c 1.279,0 2.28,-0.315 3,-0.945 0.72,-0.63 1.08,-1.464 1.08,-2.505 z m 0.45,9.72 c 0,-1.26 -0.416,-2.29 -1.245,-3.09 -0.83,-0.8 -1.936,-1.2 -3.315,-1.2 h -2.76 v 8.4 h 3.03 c 1.439,0 2.515,-0.379 3.225,-1.14 0.71,-0.76 1.065,-1.75 1.065,-2.97 z"
   id="path43" />
	<path
   fill="#323232"
   d="m 487.143,62.785 v -21.39 h 2.609 v 21.39 z"
   id="path45" />
	<path
   fill="#323232"
   d="m 510.616,56.575 c 0,0.94 -0.17,1.795 -0.51,2.565 -0.34,0.77 -0.825,1.425 -1.455,1.965 -0.63,0.54 -1.38,0.956 -2.25,1.245 -0.87,0.29 -1.835,0.435 -2.895,0.435 h -5.58 v -21.39 h 5.16 c 1.039,0 1.995,0.115 2.864,0.345 0.87,0.23 1.61,0.57 2.221,1.02 0.609,0.45 1.084,1 1.425,1.65 0.34,0.65 0.51,1.395 0.51,2.235 0,1.121 -0.311,2.06 -0.93,2.82 -0.62,0.76 -1.4,1.34 -2.34,1.74 1.14,0.42 2.055,1.09 2.745,2.01 0.69,0.92 1.035,2.04 1.035,3.36 z m -3.269,-9.72 c 0,-1.18 -0.396,-2.044 -1.186,-2.595 -0.79,-0.55 -1.814,-0.825 -3.074,-0.825 h -2.61 v 6.87 h 2.79 c 1.279,0 2.28,-0.315 3,-0.945 0.719,-0.63 1.08,-1.464 1.08,-2.505 z m 0.45,9.72 c 0,-1.26 -0.416,-2.29 -1.245,-3.09 -0.83,-0.8 -1.936,-1.2 -3.315,-1.2 h -2.76 v 8.4 h 3.03 c 1.439,0 2.515,-0.379 3.225,-1.14 0.709,-0.76 1.065,-1.75 1.065,-2.97 z"
   id="path47" />
	<path
   fill="#323232"
   d="m 528.158,62.785 h -10.53 v -21.39 h 2.58 v 19.17 h 8.16 z"
   id="path49" />
	<path
   fill="#323232"
   d="m 534.553,62.785 v -21.39 h 2.609 v 21.39 z"
   id="path51" />
	<path
   fill="#323232"
   d="m 560.866,52.045 c 0,1.541 -0.161,2.98 -0.48,4.32 -0.32,1.34 -0.815,2.51 -1.485,3.51 -0.67,1 -1.51,1.791 -2.52,2.37 -1.011,0.58 -2.205,0.87 -3.585,0.87 -1.4,0 -2.61,-0.266 -3.63,-0.795 -1.021,-0.53 -1.86,-1.28 -2.521,-2.25 -0.661,-0.97 -1.15,-2.13 -1.47,-3.48 -0.32,-1.35 -0.48,-2.855 -0.48,-4.515 0,-1.58 0.165,-3.04 0.495,-4.38 0.33,-1.34 0.825,-2.505 1.485,-3.495 0.66,-0.99 1.5,-1.765 2.52,-2.325 1.021,-0.56 2.221,-0.84 3.601,-0.84 1.399,0 2.609,0.29 3.63,0.87 1.02,0.58 1.86,1.37 2.52,2.37 0.66,1 1.146,2.165 1.455,3.495 0.31,1.331 0.465,2.755 0.465,4.275 z m -2.94,0.03 c 0,-1.2 -0.105,-2.345 -0.315,-3.435 -0.21,-1.09 -0.524,-2.05 -0.944,-2.88 -0.42,-0.83 -0.956,-1.49 -1.605,-1.98 -0.65,-0.49 -1.405,-0.735 -2.265,-0.735 -0.92,0 -1.705,0.246 -2.355,0.735 -0.649,0.49 -1.185,1.15 -1.604,1.98 -0.42,0.83 -0.726,1.79 -0.915,2.88 -0.19,1.09 -0.285,2.235 -0.285,3.435 0,1.28 0.095,2.47 0.285,3.57 0.189,1.1 0.489,2.055 0.899,2.865 0.41,0.81 0.94,1.45 1.591,1.92 0.649,0.47 1.444,0.705 2.385,0.705 0.939,0 1.734,-0.24 2.385,-0.72 0.649,-0.48 1.18,-1.135 1.59,-1.965 0.41,-0.83 0.705,-1.79 0.885,-2.88 0.178,-1.09 0.268,-2.255 0.268,-3.495 z"
   id="path53" />
	<path
   fill="#323232"
   d="m 579.993,43.705 h -5.79 v 19.08 h -2.7 v -19.08 h -5.76 v -2.31 h 14.46 z"
   id="path55" />
	<path
   fill="#323232"
   d="m 598.395,62.785 v -10.2 h -9.51 v 10.2 h -2.64 v -21.42 h 2.67 v 9.06 h 9.479 v -9.06 h 2.61 v 21.42 z"
   id="path57" />
	<path
   fill="#323232"
   d="m 619.959,43.585 h -8.189 v 6.72 h 6.779 l -0.359,2.25 h -6.42 v 7.92 h 8.609 l -0.33,2.31 H 609.19 v -21.42 l 11.22,0.029 z"
   id="path59" />
	<path
   fill="#323232"
   d="m 638.445,62.785 -6.33,-9.99 h -2.22 v 9.99 h -2.7 v -21.39 h 2.67 v 9.03 h 2.16 l 6.54,-9.24 2.22,1.38 -6.63,8.91 7.59,11.31 z"
   id="path61" />
</g>
<g
   id="g107">
	<path
   fill="#a5003b"
   d="m 184.123,98.252 -5.908,-9.324 h -2.072 v 9.324 h -2.52 V 78.288 h 2.492 v 8.428 h 2.016 l 6.104,-8.624 2.072,1.288 -6.188,8.316 7.084,10.556 z"
   id="path65" />
	<path
   fill="#a5003b"
   d="m 203.524,97.86 c -0.28,0.187 -0.64,0.336 -1.078,0.448 -0.439,0.112 -0.901,0.168 -1.386,0.168 -0.616,0 -1.162,-0.159 -1.638,-0.476 -0.476,-0.317 -0.835,-0.84 -1.078,-1.568 -0.131,0.206 -0.308,0.425 -0.532,0.658 -0.224,0.234 -0.495,0.458 -0.812,0.672 -0.317,0.215 -0.682,0.392 -1.092,0.532 -0.411,0.14 -0.859,0.21 -1.344,0.21 -1.344,0 -2.385,-0.392 -3.122,-1.176 -0.737,-0.784 -1.106,-1.857 -1.106,-3.22 V 83.776 h 2.38 v 10.332 c 0,0.84 0.205,1.461 0.616,1.862 0.411,0.402 0.915,0.602 1.512,0.602 0.354,0 0.704,-0.07 1.05,-0.21 0.345,-0.14 0.658,-0.322 0.938,-0.546 0.28,-0.224 0.532,-0.471 0.756,-0.742 0.224,-0.27 0.392,-0.527 0.504,-0.77 V 83.776 h 2.38 v 10.808 c 0,0.56 0.065,1.041 0.196,1.442 0.13,0.402 0.429,0.602 0.896,0.602 0.261,0 0.495,-0.042 0.7,-0.126 0.205,-0.084 0.392,-0.172 0.56,-0.266 z"
   id="path67" />
	<path
   fill="#a5003b"
   d="m 213.271,97.188 c -0.411,0.392 -0.919,0.7 -1.526,0.924 -0.607,0.224 -1.237,0.336 -1.89,0.336 -1.102,0 -1.918,-0.34 -2.45,-1.022 -0.532,-0.681 -0.798,-1.61 -0.798,-2.786 V 77.168 h 2.352 V 94.08 c 0,0.336 0.014,0.653 0.042,0.952 0.028,0.299 0.084,0.56 0.168,0.784 0.084,0.224 0.201,0.402 0.35,0.532 0.149,0.131 0.354,0.196 0.616,0.196 0.336,0 0.672,-0.088 1.008,-0.266 0.336,-0.177 0.672,-0.396 1.008,-0.658 z"
   id="path69" />
	<path
   fill="#a5003b"
   d="m 222.957,97.188 c -0.411,0.392 -0.92,0.7 -1.526,0.924 -0.606,0.224 -1.236,0.336 -1.89,0.336 -1.102,0 -1.918,-0.34 -2.45,-1.02 -0.532,-0.68 -0.798,-1.606 -0.798,-2.78 v -9.081 h -2.128 v -1.792 h 2.156 l 0.84,-4.704 h 1.484 v 4.704 h 3.752 v 1.792 h -3.724 v 8.518 c 0,0.335 0.014,0.652 0.042,0.95 0.028,0.298 0.079,0.559 0.154,0.782 0.074,0.224 0.186,0.4 0.336,0.531 0.149,0.13 0.354,0.195 0.616,0.195 0.336,0 0.672,-0.088 1.008,-0.266 0.336,-0.177 0.672,-0.396 1.008,-0.658 z"
   id="path71" />
	<path
   fill="#a5003b"
   d="m 239.188,97.86 c -0.28,0.187 -0.64,0.336 -1.078,0.448 -0.439,0.112 -0.901,0.168 -1.386,0.168 -0.616,0 -1.162,-0.159 -1.638,-0.476 -0.476,-0.317 -0.835,-0.84 -1.078,-1.568 -0.131,0.206 -0.308,0.425 -0.532,0.658 -0.224,0.234 -0.495,0.458 -0.812,0.672 -0.317,0.215 -0.682,0.392 -1.092,0.532 -0.411,0.14 -0.859,0.21 -1.344,0.21 -1.344,0 -2.385,-0.392 -3.122,-1.176 C 226.369,96.544 226,95.471 226,94.108 V 83.776 h 2.38 v 10.332 c 0,0.84 0.205,1.461 0.616,1.862 0.411,0.402 0.915,0.602 1.512,0.602 0.354,0 0.704,-0.07 1.05,-0.21 0.345,-0.14 0.658,-0.322 0.938,-0.546 0.28,-0.224 0.532,-0.471 0.756,-0.742 0.224,-0.27 0.392,-0.527 0.504,-0.77 V 83.776 h 2.38 v 10.808 c 0,0.56 0.065,1.041 0.196,1.442 0.13,0.402 0.429,0.602 0.896,0.602 0.261,0 0.495,-0.042 0.7,-0.126 0.205,-0.084 0.392,-0.172 0.56,-0.266 z"
   id="path73" />
	<path
   fill="#a5003b"
   d="m 249.209,86.044 c -0.112,-0.037 -0.229,-0.07 -0.35,-0.098 -0.122,-0.028 -0.257,-0.042 -0.406,-0.042 -0.766,0 -1.442,0.229 -2.03,0.688 -0.588,0.459 -1.097,1.034 -1.526,1.726 v 9.934 h -2.324 v -14.56 l 1.82,-0.196 0.476,2.744 c 0.429,-0.709 0.942,-1.334 1.54,-1.876 0.598,-0.541 1.279,-0.812 2.044,-0.812 0.56,0 1.11,0.074 1.652,0.222 z"
   id="path75" />
	<path
   fill="#a5003b"
   d="m 275.893,97.86 c -0.28,0.187 -0.64,0.336 -1.078,0.448 -0.439,0.112 -0.901,0.168 -1.386,0.168 -0.616,0 -1.162,-0.159 -1.638,-0.476 -0.476,-0.317 -0.835,-0.84 -1.078,-1.568 -0.131,0.206 -0.308,0.425 -0.532,0.658 -0.224,0.234 -0.495,0.458 -0.812,0.672 -0.317,0.215 -0.682,0.392 -1.092,0.532 -0.411,0.14 -0.859,0.21 -1.344,0.21 -1.344,0 -2.385,-0.392 -3.122,-1.176 -0.737,-0.784 -1.106,-1.857 -1.106,-3.22 V 83.776 h 2.38 v 10.332 c 0,0.84 0.205,1.461 0.616,1.862 0.411,0.402 0.915,0.602 1.512,0.602 0.354,0 0.704,-0.07 1.05,-0.21 0.345,-0.14 0.658,-0.322 0.938,-0.546 0.28,-0.224 0.532,-0.471 0.756,-0.742 0.224,-0.27 0.392,-0.527 0.504,-0.77 V 83.776 h 2.38 v 10.808 c 0,0.56 0.065,1.041 0.196,1.442 0.13,0.402 0.429,0.602 0.896,0.602 0.261,0 0.495,-0.042 0.7,-0.126 0.205,-0.084 0.392,-0.172 0.56,-0.266 z"
   id="path77" />
	<path
   fill="#a5003b"
   d="m 292.717,97.86 c -0.653,0.411 -1.475,0.616 -2.464,0.616 -0.952,0 -1.685,-0.336 -2.198,-1.008 -0.514,-0.672 -0.77,-1.624 -0.77,-2.856 v -6.664 c 0,-0.765 -0.178,-1.376 -0.532,-1.834 -0.354,-0.457 -0.868,-0.686 -1.54,-0.686 -0.709,0 -1.372,0.248 -1.988,0.742 -0.616,0.495 -1.139,1.097 -1.568,1.806 v 10.276 h -2.38 V 83.888 l 2.044,-0.308 0.336,2.492 c 0.41,-0.709 0.914,-1.306 1.512,-1.792 0.597,-0.485 1.354,-0.728 2.268,-0.728 1.232,0 2.245,0.374 3.038,1.12 0.793,0.747 1.19,1.802 1.19,3.164 v 6.748 c 0,0.542 0.065,1.018 0.196,1.428 0.13,0.411 0.429,0.616 0.896,0.616 0.243,0 0.467,-0.042 0.672,-0.126 0.205,-0.084 0.401,-0.172 0.588,-0.266 z"
   id="path79" />
	<path
   fill="#a5003b"
   d="m 308.622,97.86 c -0.318,0.206 -0.691,0.36 -1.12,0.462 -0.43,0.103 -0.877,0.154 -1.344,0.154 -0.71,0 -1.284,-0.173 -1.722,-0.518 -0.439,-0.345 -0.761,-0.816 -0.966,-1.414 -0.094,0.168 -0.229,0.364 -0.406,0.588 -0.178,0.224 -0.401,0.444 -0.672,0.658 -0.271,0.215 -0.588,0.396 -0.952,0.546 -0.364,0.149 -0.789,0.224 -1.274,0.224 -0.915,0 -1.694,-0.192 -2.338,-0.574 -0.644,-0.382 -1.172,-0.91 -1.582,-1.582 -0.411,-0.672 -0.709,-1.46 -0.896,-2.366 -0.187,-0.905 -0.28,-1.871 -0.28,-2.898 0,-0.989 0.112,-1.937 0.336,-2.842 0.224,-0.905 0.55,-1.703 0.98,-2.394 0.429,-0.69 0.97,-1.241 1.624,-1.652 0.653,-0.41 1.409,-0.616 2.268,-0.616 0.672,0 1.241,0.131 1.708,0.392 0.467,0.262 0.877,0.57 1.232,0.924 v -7.784 h 2.352 v 17.416 c 0,0.56 0.065,1.041 0.196,1.442 0.13,0.402 0.438,0.602 0.924,0.602 0.261,0 0.49,-0.042 0.686,-0.126 0.196,-0.084 0.378,-0.172 0.546,-0.266 z m -5.404,-10.528 c -0.224,-0.485 -0.574,-0.905 -1.05,-1.26 -0.476,-0.354 -1.05,-0.532 -1.722,-0.532 -0.542,0 -0.99,0.159 -1.344,0.476 -0.355,0.317 -0.64,0.732 -0.854,1.246 -0.215,0.514 -0.369,1.106 -0.462,1.778 -0.094,0.672 -0.14,1.363 -0.14,2.072 0,0.71 0.046,1.4 0.14,2.072 0.093,0.672 0.247,1.265 0.462,1.778 0.214,0.514 0.499,0.929 0.854,1.246 0.354,0.317 0.802,0.476 1.344,0.476 0.336,0 0.653,-0.079 0.952,-0.238 0.298,-0.158 0.569,-0.354 0.812,-0.588 0.243,-0.233 0.453,-0.48 0.63,-0.742 0.177,-0.261 0.303,-0.485 0.378,-0.672 z"
   id="path81" />
	<path
   fill="#a5003b"
   d="m 337.854,98.252 h -3.276 l -3.528,-15.82 -3.808,15.82 h -3.276 l -5.236,-19.628 2.688,-0.532 4.172,18.284 4.284,-18.088 h 2.324 l 4.144,18.088 4.144,-18.284 2.632,0.7 z"
   id="path83" />
	<path
   fill="#a5003b"
   d="M 347.934,98.252 V 85.54 h -2.744 v -1.596 l 5.151,-0.336 v 14.644 z m 2.883,-19.95 c 0,0.482 -0.173,0.894 -0.519,1.236 -0.346,0.343 -0.761,0.514 -1.246,0.514 -0.485,0 -0.9,-0.171 -1.246,-0.514 -0.345,-0.342 -0.518,-0.754 -0.518,-1.236 0,-0.481 0.173,-0.893 0.518,-1.236 0.346,-0.342 0.761,-0.514 1.246,-0.514 0.485,0 0.9,0.172 1.246,0.514 0.347,0.343 0.519,0.755 0.519,1.236 z"
   id="path85" />
	<path
   fill="#a5003b"
   d="m 364.935,94.388 c 0,0.709 -0.149,1.321 -0.448,1.834 -0.298,0.513 -0.695,0.938 -1.189,1.274 -0.495,0.336 -1.05,0.588 -1.666,0.756 -0.616,0.168 -1.232,0.252 -1.848,0.252 -0.859,0 -1.694,-0.131 -2.507,-0.392 -0.812,-0.261 -1.554,-0.662 -2.226,-1.204 l 1.092,-1.708 c 0.561,0.429 1.162,0.77 1.807,1.022 0.644,0.252 1.32,0.378 2.029,0.378 0.69,0 1.261,-0.154 1.708,-0.462 0.448,-0.308 0.672,-0.835 0.672,-1.582 0,-0.354 -0.079,-0.663 -0.237,-0.924 -0.159,-0.261 -0.374,-0.49 -0.645,-0.686 -0.271,-0.196 -0.578,-0.373 -0.924,-0.532 -0.346,-0.159 -0.705,-0.322 -1.078,-0.49 -0.43,-0.186 -0.882,-0.401 -1.357,-0.644 -0.477,-0.242 -0.91,-0.541 -1.303,-0.896 -0.392,-0.354 -0.714,-0.774 -0.966,-1.26 -0.252,-0.486 -0.378,-1.073 -0.378,-1.764 0,-0.634 0.14,-1.194 0.42,-1.68 0.28,-0.486 0.645,-0.882 1.092,-1.19 0.448,-0.308 0.947,-0.541 1.498,-0.7 0.551,-0.159 1.097,-0.238 1.639,-0.238 0.802,0 1.577,0.122 2.323,0.364 0.747,0.243 1.466,0.56 2.156,0.952 l -0.924,1.624 c -0.542,-0.299 -1.088,-0.556 -1.638,-0.77 -0.551,-0.214 -1.135,-0.322 -1.75,-0.322 -0.654,0 -1.19,0.168 -1.61,0.504 -0.42,0.336 -0.63,0.831 -0.63,1.484 0,0.374 0.093,0.69 0.28,0.952 0.186,0.262 0.429,0.49 0.728,0.686 0.299,0.196 0.625,0.374 0.98,0.532 0.354,0.159 0.699,0.322 1.036,0.49 0.447,0.224 0.899,0.458 1.357,0.7 0.457,0.243 0.872,0.527 1.246,0.854 0.373,0.327 0.677,0.714 0.91,1.162 0.234,0.448 0.351,0.989 0.351,1.624 z"
   id="path87" />
	<path
   fill="#a5003b"
   d="m 378.612,94.388 c 0,0.709 -0.149,1.321 -0.448,1.834 -0.298,0.513 -0.695,0.938 -1.189,1.274 -0.495,0.336 -1.05,0.588 -1.666,0.756 -0.616,0.168 -1.232,0.252 -1.848,0.252 -0.859,0 -1.694,-0.131 -2.507,-0.392 -0.812,-0.261 -1.554,-0.662 -2.226,-1.204 L 369.82,95.2 c 0.561,0.429 1.162,0.77 1.807,1.022 0.644,0.252 1.32,0.378 2.029,0.378 0.69,0 1.261,-0.154 1.708,-0.462 0.448,-0.308 0.672,-0.835 0.672,-1.582 0,-0.354 -0.079,-0.663 -0.237,-0.924 -0.159,-0.261 -0.374,-0.49 -0.645,-0.686 -0.271,-0.196 -0.578,-0.373 -0.924,-0.532 -0.346,-0.159 -0.705,-0.322 -1.078,-0.49 -0.43,-0.186 -0.882,-0.401 -1.357,-0.644 -0.477,-0.242 -0.91,-0.541 -1.303,-0.896 -0.392,-0.354 -0.714,-0.774 -0.966,-1.26 -0.252,-0.486 -0.378,-1.073 -0.378,-1.764 0,-0.634 0.14,-1.194 0.42,-1.68 0.28,-0.486 0.645,-0.882 1.092,-1.19 0.448,-0.308 0.947,-0.541 1.498,-0.7 0.551,-0.159 1.097,-0.238 1.639,-0.238 0.802,0 1.577,0.122 2.323,0.364 0.747,0.243 1.466,0.56 2.156,0.952 l -0.924,1.624 c -0.542,-0.299 -1.088,-0.556 -1.638,-0.77 -0.551,-0.214 -1.135,-0.322 -1.75,-0.322 -0.654,0 -1.19,0.168 -1.61,0.504 -0.42,0.336 -0.63,0.831 -0.63,1.484 0,0.374 0.093,0.69 0.28,0.952 0.186,0.262 0.429,0.49 0.728,0.686 0.299,0.196 0.625,0.374 0.98,0.532 0.354,0.159 0.699,0.322 1.036,0.49 0.447,0.224 0.899,0.458 1.357,0.7 0.457,0.243 0.872,0.527 1.246,0.854 0.373,0.327 0.677,0.714 0.91,1.162 0.235,0.448 0.351,0.989 0.351,1.624 z"
   id="path89" />
	<path
   fill="#a5003b"
   d="m 393.158,87.92 c 0,0.896 -0.243,1.615 -0.728,2.156 -0.486,0.542 -1.106,0.971 -1.862,1.288 -0.756,0.318 -1.596,0.537 -2.521,0.658 -0.924,0.122 -1.834,0.21 -2.729,0.266 0.019,0.56 0.088,1.097 0.21,1.61 0.121,0.514 0.294,0.971 0.518,1.372 0.225,0.401 0.514,0.724 0.868,0.966 0.354,0.243 0.784,0.364 1.288,0.364 0.709,0 1.372,-0.117 1.988,-0.35 0.616,-0.233 1.194,-0.508 1.736,-0.826 l 1.063,1.82 c -0.635,0.374 -1.358,0.667 -2.17,0.882 -0.812,0.214 -1.676,0.322 -2.59,0.322 -0.971,0 -1.807,-0.196 -2.506,-0.588 -0.7,-0.392 -1.274,-0.928 -1.723,-1.61 -0.447,-0.681 -0.779,-1.488 -0.994,-2.422 -0.214,-0.934 -0.321,-1.932 -0.321,-2.996 0,-1.045 0.121,-2.011 0.363,-2.898 0.243,-0.887 0.603,-1.652 1.078,-2.296 0.477,-0.644 1.055,-1.148 1.736,-1.512 0.682,-0.364 1.47,-0.546 2.366,-0.546 0.69,0 1.339,0.103 1.946,0.308 0.605,0.206 1.129,0.5 1.567,0.882 0.438,0.383 0.784,0.84 1.036,1.372 0.255,0.532 0.381,1.125 0.381,1.778 z m -2.519,-0.014 c 0,-0.724 -0.225,-1.323 -0.673,-1.796 -0.447,-0.473 -1.026,-0.71 -1.735,-0.71 -0.561,0 -1.022,0.149 -1.386,0.446 -0.364,0.297 -0.658,0.687 -0.883,1.169 -0.224,0.483 -0.388,1.035 -0.489,1.657 -0.104,0.622 -0.164,1.258 -0.183,1.908 0.578,-0.056 1.181,-0.125 1.807,-0.209 0.625,-0.083 1.199,-0.213 1.722,-0.39 0.523,-0.177 0.956,-0.427 1.302,-0.752 0.345,-0.324 0.518,-0.765 0.518,-1.323 z"
   id="path91" />
	<path
   fill="#a5003b"
   d="m 411.244,97.86 c -0.654,0.411 -1.475,0.616 -2.464,0.616 -0.952,0 -1.686,-0.336 -2.198,-1.008 -0.514,-0.672 -0.771,-1.624 -0.771,-2.856 v -6.664 c 0,-0.765 -0.178,-1.376 -0.531,-1.834 -0.355,-0.457 -0.868,-0.686 -1.54,-0.686 -0.71,0 -1.372,0.248 -1.988,0.742 -0.616,0.495 -1.139,1.097 -1.568,1.806 v 10.276 h -2.38 V 83.888 l 2.044,-0.308 0.336,2.492 c 0.411,-0.709 0.915,-1.306 1.513,-1.792 0.597,-0.485 1.353,-0.728 2.268,-0.728 1.232,0 2.244,0.374 3.038,1.12 0.793,0.747 1.189,1.802 1.189,3.164 v 6.748 c 0,0.542 0.065,1.018 0.196,1.428 0.131,0.411 0.43,0.616 0.896,0.616 0.242,0 0.466,-0.042 0.672,-0.126 0.205,-0.084 0.401,-0.172 0.588,-0.266 z"
   id="path93" />
	<path
   fill="#a5003b"
   d="m 433.672,91 c 0,0.99 -0.112,1.932 -0.337,2.828 -0.224,0.896 -0.564,1.689 -1.021,2.38 -0.458,0.691 -1.031,1.242 -1.722,1.652 -0.691,0.411 -1.503,0.616 -2.437,0.616 -0.989,0 -1.844,-0.187 -2.562,-0.56 -0.719,-0.373 -1.308,-0.886 -1.765,-1.54 -0.457,-0.653 -0.798,-1.437 -1.021,-2.352 -0.225,-0.915 -0.336,-1.922 -0.336,-3.024 0,-1.008 0.126,-1.96 0.378,-2.856 0.252,-0.896 0.616,-1.685 1.092,-2.366 0.476,-0.681 1.068,-1.222 1.778,-1.624 0.709,-0.401 1.521,-0.602 2.436,-0.602 0.896,0 1.689,0.192 2.38,0.574 0.69,0.383 1.27,0.91 1.736,1.582 0.466,0.672 0.816,1.461 1.05,2.366 0.234,0.905 0.351,1.881 0.351,2.926 z m -2.576,0 c 0,-0.69 -0.042,-1.372 -0.126,-2.044 -0.084,-0.672 -0.238,-1.27 -0.462,-1.792 -0.225,-0.522 -0.528,-0.947 -0.91,-1.274 -0.383,-0.327 -0.864,-0.49 -1.442,-0.49 -0.598,0 -1.097,0.164 -1.498,0.49 -0.401,0.326 -0.724,0.751 -0.966,1.274 -0.243,0.522 -0.411,1.12 -0.504,1.792 -0.094,0.672 -0.14,1.354 -0.14,2.044 0,0.691 0.037,1.372 0.111,2.044 0.074,0.672 0.225,1.274 0.448,1.806 0.224,0.532 0.541,0.961 0.952,1.288 0.41,0.327 0.942,0.49 1.596,0.49 0.598,0 1.087,-0.168 1.47,-0.504 0.383,-0.336 0.682,-0.774 0.896,-1.316 0.214,-0.542 0.364,-1.148 0.448,-1.82 0.085,-0.672 0.127,-1.334 0.127,-1.988 z"
   id="path95" />
	<path
   fill="#a5003b"
   d="m 452.036,97.86 c -0.654,0.411 -1.475,0.616 -2.464,0.616 -0.952,0 -1.686,-0.336 -2.198,-1.008 -0.514,-0.672 -0.771,-1.624 -0.771,-2.856 v -6.664 c 0,-0.765 -0.178,-1.376 -0.531,-1.834 -0.355,-0.457 -0.868,-0.686 -1.54,-0.686 -0.71,0 -1.372,0.248 -1.988,0.742 -0.616,0.495 -1.139,1.097 -1.568,1.806 v 10.276 h -2.38 V 83.888 l 2.044,-0.308 0.336,2.492 c 0.411,-0.709 0.915,-1.306 1.513,-1.792 0.597,-0.485 1.353,-0.728 2.268,-0.728 1.232,0 2.244,0.374 3.038,1.12 0.793,0.747 1.189,1.802 1.189,3.164 v 6.748 c 0,0.542 0.065,1.018 0.196,1.428 0.131,0.411 0.43,0.616 0.896,0.616 0.242,0 0.466,-0.042 0.672,-0.126 0.205,-0.084 0.401,-0.172 0.588,-0.266 z"
   id="path97" />
	<path
   fill="#a5003b"
   d="m 461.782,97.188 c -0.411,0.392 -0.92,0.7 -1.526,0.924 -0.606,0.224 -1.236,0.336 -1.89,0.336 -1.102,0 -1.918,-0.34 -2.45,-1.022 -0.531,-0.681 -0.798,-1.61 -0.798,-2.786 V 77.168 h 2.353 V 94.08 c 0,0.336 0.014,0.653 0.042,0.952 0.027,0.299 0.084,0.56 0.168,0.784 0.084,0.224 0.2,0.402 0.35,0.532 0.149,0.131 0.354,0.196 0.616,0.196 0.336,0 0.672,-0.088 1.008,-0.266 0.336,-0.177 0.672,-0.396 1.008,-0.658 z"
   id="path99" />
	<path
   fill="#a5003b"
   d="M 464.748,98.252 V 85.54 h -2.744 v -1.596 l 5.151,-0.336 v 14.644 z m 2.884,-19.95 c 0,0.482 -0.173,0.894 -0.519,1.236 -0.346,0.343 -0.761,0.514 -1.246,0.514 -0.485,0 -0.9,-0.171 -1.246,-0.514 -0.345,-0.342 -0.518,-0.754 -0.518,-1.236 0,-0.481 0.173,-0.893 0.518,-1.236 0.346,-0.342 0.761,-0.514 1.246,-0.514 0.485,0 0.9,0.172 1.246,0.514 0.346,0.343 0.519,0.755 0.519,1.236 z"
   id="path101" />
	<path
   fill="#a5003b"
   d="m 486.35,97.86 c -0.654,0.411 -1.475,0.616 -2.464,0.616 -0.952,0 -1.686,-0.336 -2.198,-1.008 -0.514,-0.672 -0.771,-1.624 -0.771,-2.856 v -6.664 c 0,-0.765 -0.178,-1.376 -0.531,-1.834 -0.355,-0.457 -0.868,-0.686 -1.54,-0.686 -0.71,0 -1.372,0.248 -1.988,0.742 -0.616,0.495 -1.139,1.097 -1.568,1.806 v 10.276 h -2.38 V 83.888 l 2.044,-0.308 0.336,2.492 c 0.411,-0.709 0.915,-1.306 1.513,-1.792 0.597,-0.485 1.353,-0.728 2.268,-0.728 1.232,0 2.244,0.374 3.038,1.12 0.793,0.747 1.189,1.802 1.189,3.164 v 6.748 c 0,0.542 0.065,1.018 0.196,1.428 0.131,0.411 0.43,0.616 0.896,0.616 0.242,0 0.466,-0.042 0.672,-0.126 0.205,-0.084 0.401,-0.172 0.588,-0.266 z"
   id="path103" />
	<path
   fill="#a5003b"
   d="m 499.072,87.92 c 0,0.896 -0.243,1.615 -0.728,2.156 -0.486,0.542 -1.106,0.971 -1.862,1.288 -0.756,0.318 -1.596,0.537 -2.521,0.658 -0.924,0.122 -1.834,0.21 -2.729,0.266 0.019,0.56 0.088,1.097 0.21,1.61 0.121,0.514 0.294,0.971 0.518,1.372 0.225,0.401 0.514,0.724 0.868,0.966 0.354,0.243 0.784,0.364 1.288,0.364 0.709,0 1.372,-0.117 1.988,-0.35 0.616,-0.233 1.194,-0.508 1.736,-0.826 l 1.063,1.82 c -0.635,0.374 -1.358,0.667 -2.17,0.882 -0.812,0.214 -1.676,0.322 -2.59,0.322 -0.971,0 -1.807,-0.196 -2.506,-0.588 -0.7,-0.392 -1.274,-0.928 -1.723,-1.61 -0.447,-0.681 -0.779,-1.488 -0.994,-2.422 -0.214,-0.934 -0.321,-1.932 -0.321,-2.996 0,-1.045 0.121,-2.011 0.363,-2.898 0.243,-0.887 0.603,-1.652 1.078,-2.296 0.477,-0.644 1.055,-1.148 1.736,-1.512 0.682,-0.364 1.47,-0.546 2.366,-0.546 0.69,0 1.339,0.103 1.946,0.308 0.605,0.206 1.129,0.5 1.567,0.882 0.438,0.383 0.784,0.84 1.036,1.372 0.255,0.532 0.381,1.125 0.381,1.778 z m -2.519,-0.014 c 0,-0.724 -0.225,-1.323 -0.673,-1.796 -0.447,-0.473 -1.026,-0.71 -1.735,-0.71 -0.561,0 -1.022,0.149 -1.386,0.446 -0.364,0.297 -0.658,0.687 -0.883,1.169 -0.224,0.483 -0.388,1.035 -0.489,1.657 -0.104,0.622 -0.164,1.258 -0.183,1.908 0.578,-0.056 1.181,-0.125 1.807,-0.209 0.625,-0.083 1.199,-0.213 1.722,-0.39 0.523,-0.177 0.956,-0.427 1.302,-0.752 0.345,-0.324 0.518,-0.765 0.518,-1.323 z"
   id="path105" />
</g>
</svg>
