<?xml version="1.0" encoding="utf-8"?>
<!-- Generator: Adobe Illustrator 16.0.0, SVG Export Plug-In . SVG Version: 6.00 Build 0)  -->
<!DOCTYPE svg PUBLIC "-//W3C//DTD SVG 1.1//EN" "http://www.w3.org/Graphics/SVG/1.1/DTD/svg11.dtd">
<svg version="1.1" id="neu" xmlns="http://www.w3.org/2000/svg" xmlns:xlink="http://www.w3.org/1999/xlink" x="0px" y="0px"
	 width="644.656px" height="125.363px" viewBox="0 0 644.656 125.363" enable-background="new 0 0 644.656 125.363"
	 xml:space="preserve">
<g>
	
		<linearGradient id="SVGID_1_" gradientUnits="userSpaceOnUse" x1="0" y1="-16190.7383" x2="131.667" y2="-16190.7383" gradientTransform="matrix(1 0 0 -1 0 -16128.0586)">
		<stop  offset="0" style="stop-color:#A5003B"/>
		<stop  offset="1" style="stop-color:#EC0A3C"/>
	</linearGradient>
	<path fill-rule="evenodd" clip-rule="evenodd" fill="url(#SVGID_1_)" d="M8.981,0c4.597-0.003,7.363,4.918,7.363,4.918
		c1.887,10.738,7.621,15.648,17.176,14.721c1.839,7.395,16.613,14.133,22.081,9.817c2.787-2.195,2.126-14.579,2.456-14.721
		c1.235-0.578,6.59,22.417,7.218,1.669c0.018-0.481,0.308-0.638,0.394-0.168c2.713,13.348,13.115-1.281,12.02,10.762
		c12.163-10.032,20.105-9.221,26.988-24.535c4.037,11.457-16.703,19.233-22.081,29.446c1.056,5.484,12.087,0.994,17.17,2.451
		c-20.55-6.906-1.952-0.491,4.91-9.817c-1.7-6.119-6.542,4.555-12.271,2.455C97.161,21.883,120,13.723,124.312,0
		c4.557,8.746-14.303,15.092-17.183,24.542c5.551,2.038,16.507-2.855,22.084-12.265c4.148,14.83-18.633,23.864-34.35,26.989
		c9.724,7.164,24.753-8.683,36.802-2.45c-15.752,10.088-2.185,22.901-30.055,14.072c6.8-2.887,9.629-4.445,17.152-4.585
		c-13.907-3.459-34.541,0.91-41.075-4.582c0.532,10.919,12.407,9.69,17.637,15.911c29.377-6.858-12.6,12.908-20.089-3.64
		c-5.186-6.009,2.58,3.661,7.36,2.449c-0.498-9.324-10.322-9.307-9.822-19.625c-7.188,2.083,2.124,8.178,0,12.267
		c-12.022,23.218-10.891,64.784-33.792,75.841c-0.273,0.132-1.01,0.628-1.361,0.36c-0.288-0.228-0.214-1.157-0.206-1.589
		c0.133-6.941,3.704-18.699,12.046-20.844c0.886-0.224,2.159-0.241,2.74-0.231c10.126-20.137,12.597-31.431,15.672-58.443
		c-1.889,16.575-52.498,12.245-66.25-17.179c-3.521-7.519-0.392-4.825,0.761-8.218c7.387,9.474,33.1,16.397,38.493,15.58
		C33.654,30.242-4.567,21.597,8.981,0"/>
</g>
<g>
	<path fill="#323232" d="M160.688,52.195c0,1.48-0.225,2.865-0.675,4.155s-1.115,2.41-1.995,3.36c-0.88,0.95-1.96,1.7-3.24,2.25
		c-1.28,0.55-2.75,0.825-4.41,0.825h-4.05v-21.39h4.05c1.74,0,3.255,0.27,4.545,0.81s2.365,1.29,3.225,2.25
		c0.86,0.96,1.5,2.1,1.92,3.42C160.478,49.195,160.688,50.635,160.688,52.195z M157.838,52.195c0-1.22-0.161-2.36-0.482-3.42
		c-0.321-1.06-0.793-1.975-1.415-2.745c-0.622-0.77-1.399-1.375-2.333-1.815c-0.934-0.44-2.012-0.66-3.236-0.66h-1.385v16.98h1.385
		c1.224,0,2.302-0.215,3.236-0.645c0.933-0.43,1.711-1.02,2.333-1.77c0.622-0.75,1.094-1.635,1.415-2.655
		C157.677,54.445,157.838,53.355,157.838,52.195z"/>
	<path fill="#323232" d="M178.441,43.585h-8.19v6.72h6.78l-0.36,2.25h-6.42v7.92h8.61l-0.33,2.31h-10.86v-21.42l11.22,0.029
		L178.441,43.585z"/>
	<path fill="#323232" d="M199.207,56.605c0,1-0.16,1.9-0.48,2.7c-0.32,0.8-0.775,1.48-1.365,2.04c-0.59,0.56-1.305,0.99-2.145,1.29
		c-0.84,0.3-1.78,0.45-2.82,0.45c-1.02,0-1.94-0.135-2.76-0.405c-0.82-0.27-1.525-0.665-2.115-1.185
		c-0.59-0.52-1.045-1.155-1.365-1.905c-0.32-0.75-0.48-1.615-0.48-2.595v-15.6h2.67v15.27c0,1.34,0.36,2.375,1.08,3.105
		c0.72,0.73,1.71,1.095,2.97,1.095c1.28,0,2.295-0.36,3.045-1.08s1.125-1.74,1.125-3.06v-15.33h2.64V56.605z"/>
	<path fill="#323232" d="M219.661,43.705h-5.79v19.08h-2.7v-19.08h-5.76v-2.31h14.46L219.661,43.705z"/>
	<path fill="#323232" d="M236.539,45.325c-0.7-0.56-1.445-1.03-2.235-1.41c-0.791-0.379-1.625-0.57-2.505-0.57
		c-0.46,0-0.896,0.06-1.305,0.18c-0.41,0.12-0.77,0.305-1.08,0.555c-0.31,0.25-0.555,0.565-0.735,0.945s-0.27,0.82-0.27,1.32
		c0,0.54,0.11,1.015,0.33,1.425c0.22,0.41,0.51,0.785,0.87,1.125c0.36,0.34,0.76,0.655,1.2,0.945s0.89,0.575,1.35,0.855
		c0.7,0.44,1.385,0.87,2.055,1.29c0.669,0.42,1.265,0.88,1.785,1.38s0.935,1.075,1.245,1.725c0.31,0.65,0.465,1.435,0.465,2.355
		c0,0.86-0.16,1.645-0.48,2.355s-0.765,1.315-1.335,1.815c-0.57,0.5-1.245,0.89-2.025,1.17s-1.62,0.42-2.52,0.42
		c-0.78,0-1.495-0.07-2.145-0.21c-0.65-0.14-1.245-0.33-1.785-0.57c-0.54-0.24-1.04-0.51-1.5-0.81c-0.46-0.3-0.89-0.62-1.29-0.96
		l1.62-2.1c0.32,0.28,0.665,0.56,1.035,0.84c0.37,0.28,0.77,0.54,1.2,0.78c0.43,0.24,0.895,0.435,1.395,0.585s1.04,0.225,1.62,0.225
		c0.98,0,1.79-0.295,2.43-0.885c0.64-0.59,0.96-1.365,0.96-2.325c0-0.62-0.13-1.165-0.39-1.635c-0.26-0.47-0.605-0.89-1.035-1.26
		c-0.431-0.37-0.92-0.715-1.47-1.035c-0.55-0.32-1.105-0.65-1.665-0.99c-0.58-0.36-1.15-0.735-1.71-1.125
		c-0.56-0.39-1.065-0.83-1.515-1.32c-0.45-0.49-0.815-1.05-1.095-1.68c-0.28-0.63-0.42-1.365-0.42-2.205
		c0-0.86,0.175-1.63,0.525-2.31c0.35-0.68,0.805-1.255,1.365-1.725c0.56-0.47,1.2-0.825,1.92-1.065c0.72-0.24,1.46-0.36,2.22-0.36
		c1.28,0,2.465,0.221,3.555,0.66c1.09,0.44,2.055,0.99,2.895,1.65L236.539,45.325z"/>
	<path fill="#323232" d="M256.455,45.595c-0.48-0.68-1.065-1.225-1.755-1.635c-0.69-0.41-1.515-0.615-2.475-0.615
		c-0.88,0-1.635,0.25-2.265,0.75c-0.63,0.5-1.145,1.165-1.545,1.995c-0.4,0.83-0.69,1.785-0.87,2.865s-0.27,2.21-0.27,3.39
		c0,1.16,0.09,2.26,0.27,3.3c0.18,1.041,0.475,1.955,0.885,2.745c0.41,0.791,0.935,1.42,1.575,1.89c0.64,0.47,1.42,0.705,2.34,0.705
		c0.98,0,1.785-0.18,2.415-0.54c0.63-0.36,1.215-0.77,1.755-1.23l1.77,1.77c-0.64,0.62-1.46,1.145-2.46,1.575
		c-1,0.43-2.16,0.645-3.48,0.645c-1.42,0-2.64-0.275-3.66-0.825c-1.02-0.55-1.85-1.31-2.49-2.28c-0.64-0.97-1.11-2.115-1.41-3.435
		c-0.3-1.32-0.45-2.76-0.45-4.32c0-1.64,0.175-3.145,0.525-4.515c0.35-1.37,0.86-2.55,1.53-3.54c0.669-0.99,1.504-1.765,2.505-2.325
		c1-0.56,2.149-0.84,3.45-0.84c1.4,0,2.61,0.28,3.63,0.84s1.87,1.27,2.55,2.13L256.455,45.595z"/>
	<path fill="#323232" d="M277.008,62.785v-10.2h-9.51v10.2h-2.64v-21.42h2.67v9.06h9.48v-9.06h2.61v21.42H277.008z"/>
	<path fill="#323232" d="M298.572,43.585h-8.19v6.72h6.78l-0.36,2.25h-6.42v7.92h8.61l-0.33,2.31h-10.86v-21.42l11.22,0.029
		L298.572,43.585z"/>
	<path fill="#323232" d="M332.411,52.195c0,1.48-0.225,2.865-0.675,4.155s-1.115,2.41-1.995,3.36c-0.88,0.95-1.96,1.7-3.24,2.25
		c-1.28,0.55-2.75,0.825-4.41,0.825h-4.05v-21.39h4.05c1.74,0,3.255,0.27,4.545,0.81s2.365,1.29,3.225,2.25
		c0.86,0.96,1.5,2.1,1.92,3.42C332.201,49.195,332.411,50.635,332.411,52.195z M329.562,52.195c0-1.22-0.161-2.36-0.482-3.42
		c-0.321-1.06-0.793-1.975-1.415-2.745c-0.622-0.77-1.399-1.375-2.333-1.815c-0.934-0.44-2.012-0.66-3.236-0.66h-1.385v16.98h1.385
		c1.224,0,2.302-0.215,3.236-0.645c0.933-0.43,1.711-1.02,2.333-1.77c0.622-0.75,1.094-1.635,1.415-2.655
		C329.4,54.445,329.562,53.355,329.562,52.195z"/>
	<path fill="#323232" d="M339.443,62.785v-21.39h2.609v21.39H339.443z"/>
	<path fill="#323232" d="M362.396,45.325c-0.641-0.64-1.355-1.15-2.146-1.53c-0.79-0.379-1.675-0.57-2.654-0.57
		c-0.921,0-1.7,0.235-2.34,0.705c-0.641,0.47-1.166,1.105-1.575,1.905c-0.41,0.8-0.705,1.721-0.886,2.76
		c-0.18,1.04-0.27,2.14-0.27,3.3c0,1.181,0.085,2.315,0.255,3.405c0.17,1.09,0.45,2.055,0.84,2.895
		c0.391,0.84,0.905,1.51,1.545,2.01c0.641,0.5,1.43,0.75,2.37,0.75c0.7,0,1.37-0.04,2.01-0.12c0.641-0.08,1.23-0.2,1.771-0.36v-7.89
		h-4.08l0.36-2.1h6.239v11.01c-0.76,0.48-1.689,0.87-2.79,1.17c-1.1,0.3-2.27,0.45-3.51,0.45c-1.42,0-2.63-0.29-3.63-0.87
		c-1-0.58-1.82-1.37-2.46-2.37c-0.641-1-1.11-2.185-1.41-3.555c-0.3-1.37-0.45-2.845-0.45-4.425c0-1.58,0.175-3.03,0.525-4.35
		c0.35-1.32,0.859-2.46,1.53-3.42c0.67-0.96,1.505-1.71,2.505-2.25s2.149-0.81,3.45-0.81c1.439,0,2.694,0.235,3.765,0.705
		c1.069,0.47,2.015,1.125,2.835,1.965L362.396,45.325z"/>
	<path fill="#323232" d="M371.828,62.785v-21.39h2.609v21.39H371.828z"/>
	<path fill="#323232" d="M394.891,43.705h-5.79v19.08h-2.7v-19.08h-5.76v-2.31h14.46L394.891,43.705z"/>
	<path fill="#323232" d="M411.151,62.785l-1.59-5.91h-7.92l-1.74,5.91h-2.851l6.931-21.39h3.84l6.12,21.39H411.151z M406.171,43.405
		h-0.54l-3.33,11.34h6.75L406.171,43.405z"/>
	<path fill="#323232" d="M430.819,62.785h-10.53v-21.39h2.58v19.17h8.16L430.819,62.785z"/>
	<path fill="#323232" d="M447.986,43.585h-8.189v6.72h6.779l-0.359,2.25h-6.42v7.92h8.609l-0.33,2.31h-10.859v-21.42l11.22,0.029
		L447.986,43.585z"/>
	<path fill="#323232" d="M480.146,56.575c0,0.94-0.17,1.795-0.51,2.565c-0.34,0.77-0.825,1.425-1.455,1.965s-1.38,0.956-2.25,1.245
		c-0.87,0.29-1.835,0.435-2.895,0.435h-5.58v-21.39h5.16c1.039,0,1.995,0.115,2.864,0.345c0.87,0.23,1.61,0.57,2.221,1.02
		c0.609,0.45,1.084,1,1.425,1.65c0.34,0.65,0.51,1.395,0.51,2.235c0,1.121-0.311,2.06-0.93,2.82c-0.62,0.76-1.4,1.34-2.34,1.74
		c1.14,0.42,2.055,1.09,2.745,2.01C479.801,54.135,480.146,55.255,480.146,56.575z M476.876,46.855c0-1.18-0.396-2.044-1.186-2.595
		c-0.79-0.55-1.814-0.825-3.074-0.825h-2.61v6.87h2.79c1.279,0,2.28-0.315,3-0.945C476.516,48.73,476.876,47.896,476.876,46.855z
		 M477.326,56.575c0-1.26-0.416-2.29-1.245-3.09c-0.83-0.8-1.936-1.2-3.315-1.2h-2.76v8.4h3.03c1.439,0,2.515-0.379,3.225-1.14
		C476.971,58.785,477.326,57.795,477.326,56.575z"/>
	<path fill="#323232" d="M487.143,62.785v-21.39h2.609v21.39H487.143z"/>
	<path fill="#323232" d="M510.616,56.575c0,0.94-0.17,1.795-0.51,2.565c-0.34,0.77-0.825,1.425-1.455,1.965s-1.38,0.956-2.25,1.245
		c-0.87,0.29-1.835,0.435-2.895,0.435h-5.58v-21.39h5.16c1.039,0,1.995,0.115,2.864,0.345c0.87,0.23,1.61,0.57,2.221,1.02
		c0.609,0.45,1.084,1,1.425,1.65c0.34,0.65,0.51,1.395,0.51,2.235c0,1.121-0.311,2.06-0.93,2.82c-0.62,0.76-1.4,1.34-2.34,1.74
		c1.14,0.42,2.055,1.09,2.745,2.01C510.271,54.135,510.616,55.255,510.616,56.575z M507.347,46.855c0-1.18-0.396-2.044-1.186-2.595
		c-0.79-0.55-1.814-0.825-3.074-0.825h-2.61v6.87h2.79c1.279,0,2.28-0.315,3-0.945C506.986,48.73,507.347,47.896,507.347,46.855z
		 M507.797,56.575c0-1.26-0.416-2.29-1.245-3.09c-0.83-0.8-1.936-1.2-3.315-1.2h-2.76v8.4h3.03c1.439,0,2.515-0.379,3.225-1.14
		C507.441,58.785,507.797,57.795,507.797,56.575z"/>
	<path fill="#323232" d="M528.158,62.785h-10.53v-21.39h2.58v19.17h8.16L528.158,62.785z"/>
	<path fill="#323232" d="M534.553,62.785v-21.39h2.609v21.39H534.553z"/>
	<path fill="#323232" d="M560.866,52.045c0,1.541-0.161,2.98-0.48,4.32c-0.32,1.34-0.815,2.51-1.485,3.51
		c-0.67,1-1.51,1.791-2.52,2.37c-1.011,0.58-2.205,0.87-3.585,0.87c-1.4,0-2.61-0.266-3.63-0.795c-1.021-0.53-1.86-1.28-2.521-2.25
		s-1.15-2.13-1.47-3.48c-0.32-1.35-0.48-2.855-0.48-4.515c0-1.58,0.165-3.04,0.495-4.38s0.825-2.505,1.485-3.495
		c0.66-0.99,1.5-1.765,2.52-2.325c1.021-0.56,2.221-0.84,3.601-0.84c1.399,0,2.609,0.29,3.63,0.87c1.02,0.58,1.86,1.37,2.52,2.37
		c0.66,1,1.146,2.165,1.455,3.495C560.711,49.101,560.866,50.525,560.866,52.045z M557.926,52.075c0-1.2-0.105-2.345-0.315-3.435
		c-0.21-1.09-0.524-2.05-0.944-2.88c-0.42-0.83-0.956-1.49-1.605-1.98c-0.65-0.49-1.405-0.735-2.265-0.735
		c-0.92,0-1.705,0.246-2.355,0.735c-0.649,0.49-1.185,1.15-1.604,1.98c-0.42,0.83-0.726,1.79-0.915,2.88
		c-0.19,1.09-0.285,2.235-0.285,3.435c0,1.28,0.095,2.47,0.285,3.57c0.189,1.1,0.489,2.055,0.899,2.865s0.94,1.45,1.591,1.92
		c0.649,0.47,1.444,0.705,2.385,0.705c0.939,0,1.734-0.24,2.385-0.72c0.649-0.48,1.18-1.135,1.59-1.965
		c0.41-0.83,0.705-1.79,0.885-2.88C557.836,54.48,557.926,53.315,557.926,52.075z"/>
	<path fill="#323232" d="M579.993,43.705h-5.79v19.08h-2.7v-19.08h-5.76v-2.31h14.46L579.993,43.705z"/>
	<path fill="#323232" d="M598.395,62.785v-10.2h-9.51v10.2h-2.64v-21.42h2.67v9.06h9.479v-9.06h2.61v21.42H598.395z"/>
	<path fill="#323232" d="M619.959,43.585h-8.189v6.72h6.779l-0.359,2.25h-6.42v7.92h8.609l-0.33,2.31h-10.859v-21.42l11.22,0.029
		L619.959,43.585z"/>
	<path fill="#323232" d="M638.445,62.785l-6.33-9.99h-2.22v9.99h-2.7v-21.39h2.67v9.03h2.16l6.54-9.24l2.22,1.38l-6.63,8.91
		l7.59,11.31H638.445z"/>
</g>
<g>
	<path fill="#A5003B" d="M184.123,98.252l-5.908-9.324h-2.072v9.324h-2.52V78.288h2.492v8.428h2.016l6.104-8.624l2.072,1.288
		l-6.188,8.316l7.084,10.556H184.123z"/>
	<path fill="#A5003B" d="M203.524,97.86c-0.28,0.187-0.64,0.336-1.078,0.448c-0.439,0.112-0.901,0.168-1.386,0.168
		c-0.616,0-1.162-0.159-1.638-0.476c-0.476-0.317-0.835-0.84-1.078-1.568c-0.131,0.206-0.308,0.425-0.532,0.658
		c-0.224,0.234-0.495,0.458-0.812,0.672c-0.317,0.215-0.682,0.392-1.092,0.532c-0.411,0.14-0.859,0.21-1.344,0.21
		c-1.344,0-2.385-0.392-3.122-1.176c-0.737-0.784-1.106-1.857-1.106-3.22V83.776h2.38v10.332c0,0.84,0.205,1.461,0.616,1.862
		c0.411,0.402,0.915,0.602,1.512,0.602c0.354,0,0.704-0.07,1.05-0.21c0.345-0.14,0.658-0.322,0.938-0.546
		c0.28-0.224,0.532-0.471,0.756-0.742c0.224-0.27,0.392-0.527,0.504-0.77V83.776h2.38v10.808c0,0.56,0.065,1.041,0.196,1.442
		c0.13,0.402,0.429,0.602,0.896,0.602c0.261,0,0.495-0.042,0.7-0.126c0.205-0.084,0.392-0.172,0.56-0.266L203.524,97.86z"/>
	<path fill="#A5003B" d="M213.271,97.188c-0.411,0.392-0.919,0.7-1.526,0.924c-0.607,0.224-1.237,0.336-1.89,0.336
		c-1.102,0-1.918-0.34-2.45-1.022c-0.532-0.681-0.798-1.61-0.798-2.786V77.168h2.352V94.08c0,0.336,0.014,0.653,0.042,0.952
		c0.028,0.299,0.084,0.56,0.168,0.784s0.201,0.402,0.35,0.532c0.149,0.131,0.354,0.196,0.616,0.196c0.336,0,0.672-0.088,1.008-0.266
		c0.336-0.177,0.672-0.396,1.008-0.658L213.271,97.188z"/>
	<path fill="#A5003B" d="M222.957,97.188c-0.411,0.392-0.92,0.7-1.526,0.924c-0.606,0.224-1.236,0.336-1.89,0.336
		c-1.102,0-1.918-0.34-2.45-1.02c-0.532-0.68-0.798-1.606-0.798-2.78v-9.081h-2.128v-1.792h2.156l0.84-4.704h1.484v4.704h3.752
		v1.792h-3.724v8.518c0,0.335,0.014,0.652,0.042,0.95c0.028,0.298,0.079,0.559,0.154,0.782c0.074,0.224,0.186,0.4,0.336,0.531
		c0.149,0.13,0.354,0.195,0.616,0.195c0.336,0,0.672-0.088,1.008-0.266c0.336-0.177,0.672-0.396,1.008-0.658L222.957,97.188z"/>
	<path fill="#A5003B" d="M239.188,97.86c-0.28,0.187-0.64,0.336-1.078,0.448c-0.439,0.112-0.901,0.168-1.386,0.168
		c-0.616,0-1.162-0.159-1.638-0.476c-0.476-0.317-0.835-0.84-1.078-1.568c-0.131,0.206-0.308,0.425-0.532,0.658
		c-0.224,0.234-0.495,0.458-0.812,0.672c-0.317,0.215-0.682,0.392-1.092,0.532c-0.411,0.14-0.859,0.21-1.344,0.21
		c-1.344,0-2.385-0.392-3.122-1.176c-0.737-0.784-1.106-1.857-1.106-3.22V83.776h2.38v10.332c0,0.84,0.205,1.461,0.616,1.862
		c0.411,0.402,0.915,0.602,1.512,0.602c0.354,0,0.704-0.07,1.05-0.21c0.345-0.14,0.658-0.322,0.938-0.546
		c0.28-0.224,0.532-0.471,0.756-0.742c0.224-0.27,0.392-0.527,0.504-0.77V83.776h2.38v10.808c0,0.56,0.065,1.041,0.196,1.442
		c0.13,0.402,0.429,0.602,0.896,0.602c0.261,0,0.495-0.042,0.7-0.126c0.205-0.084,0.392-0.172,0.56-0.266L239.188,97.86z"/>
	<path fill="#A5003B" d="M249.209,86.044c-0.112-0.037-0.229-0.07-0.35-0.098c-0.122-0.028-0.257-0.042-0.406-0.042
		c-0.766,0-1.442,0.229-2.03,0.688s-1.097,1.034-1.526,1.726v9.934h-2.324v-14.56l1.82-0.196l0.476,2.744
		c0.429-0.709,0.942-1.334,1.54-1.876c0.598-0.541,1.279-0.812,2.044-0.812c0.56,0,1.11,0.074,1.652,0.222L249.209,86.044z"/>
	<path fill="#A5003B" d="M275.893,97.86c-0.28,0.187-0.64,0.336-1.078,0.448c-0.439,0.112-0.901,0.168-1.386,0.168
		c-0.616,0-1.162-0.159-1.638-0.476c-0.476-0.317-0.835-0.84-1.078-1.568c-0.131,0.206-0.308,0.425-0.532,0.658
		c-0.224,0.234-0.495,0.458-0.812,0.672c-0.317,0.215-0.682,0.392-1.092,0.532c-0.411,0.14-0.859,0.21-1.344,0.21
		c-1.344,0-2.385-0.392-3.122-1.176c-0.737-0.784-1.106-1.857-1.106-3.22V83.776h2.38v10.332c0,0.84,0.205,1.461,0.616,1.862
		c0.411,0.402,0.915,0.602,1.512,0.602c0.354,0,0.704-0.07,1.05-0.21c0.345-0.14,0.658-0.322,0.938-0.546
		c0.28-0.224,0.532-0.471,0.756-0.742c0.224-0.27,0.392-0.527,0.504-0.77V83.776h2.38v10.808c0,0.56,0.065,1.041,0.196,1.442
		c0.13,0.402,0.429,0.602,0.896,0.602c0.261,0,0.495-0.042,0.7-0.126c0.205-0.084,0.392-0.172,0.56-0.266L275.893,97.86z"/>
	<path fill="#A5003B" d="M292.717,97.86c-0.653,0.411-1.475,0.616-2.464,0.616c-0.952,0-1.685-0.336-2.198-1.008
		c-0.514-0.672-0.77-1.624-0.77-2.856v-6.664c0-0.765-0.178-1.376-0.532-1.834c-0.354-0.457-0.868-0.686-1.54-0.686
		c-0.709,0-1.372,0.248-1.988,0.742c-0.616,0.495-1.139,1.097-1.568,1.806v10.276h-2.38V83.888l2.044-0.308l0.336,2.492
		c0.41-0.709,0.914-1.306,1.512-1.792c0.597-0.485,1.354-0.728,2.268-0.728c1.232,0,2.245,0.374,3.038,1.12
		c0.793,0.747,1.19,1.802,1.19,3.164v6.748c0,0.542,0.065,1.018,0.196,1.428c0.13,0.411,0.429,0.616,0.896,0.616
		c0.243,0,0.467-0.042,0.672-0.126c0.205-0.084,0.401-0.172,0.588-0.266L292.717,97.86z"/>
	<path fill="#A5003B" d="M308.622,97.86c-0.318,0.206-0.691,0.36-1.12,0.462c-0.43,0.103-0.877,0.154-1.344,0.154
		c-0.71,0-1.284-0.173-1.722-0.518c-0.439-0.345-0.761-0.816-0.966-1.414c-0.094,0.168-0.229,0.364-0.406,0.588
		c-0.178,0.224-0.401,0.444-0.672,0.658c-0.271,0.215-0.588,0.396-0.952,0.546c-0.364,0.149-0.789,0.224-1.274,0.224
		c-0.915,0-1.694-0.192-2.338-0.574s-1.172-0.91-1.582-1.582c-0.411-0.672-0.709-1.46-0.896-2.366
		c-0.187-0.905-0.28-1.871-0.28-2.898c0-0.989,0.112-1.937,0.336-2.842c0.224-0.905,0.55-1.703,0.98-2.394
		c0.429-0.69,0.97-1.241,1.624-1.652c0.653-0.41,1.409-0.616,2.268-0.616c0.672,0,1.241,0.131,1.708,0.392
		c0.467,0.262,0.877,0.57,1.232,0.924v-7.784h2.352v17.416c0,0.56,0.065,1.041,0.196,1.442c0.13,0.402,0.438,0.602,0.924,0.602
		c0.261,0,0.49-0.042,0.686-0.126c0.196-0.084,0.378-0.172,0.546-0.266L308.622,97.86z M303.218,87.332
		c-0.224-0.485-0.574-0.905-1.05-1.26c-0.476-0.354-1.05-0.532-1.722-0.532c-0.542,0-0.99,0.159-1.344,0.476
		c-0.355,0.317-0.64,0.732-0.854,1.246c-0.215,0.514-0.369,1.106-0.462,1.778c-0.094,0.672-0.14,1.363-0.14,2.072
		c0,0.71,0.046,1.4,0.14,2.072c0.093,0.672,0.247,1.265,0.462,1.778c0.214,0.514,0.499,0.929,0.854,1.246
		c0.354,0.317,0.802,0.476,1.344,0.476c0.336,0,0.653-0.079,0.952-0.238c0.298-0.158,0.569-0.354,0.812-0.588
		c0.243-0.233,0.453-0.48,0.63-0.742c0.177-0.261,0.303-0.485,0.378-0.672V87.332z"/>
	<path fill="#A5003B" d="M337.854,98.252h-3.276l-3.528-15.82l-3.808,15.82h-3.276l-5.236-19.628l2.688-0.532l4.172,18.284
		l4.284-18.088h2.324l4.144,18.088l4.144-18.284l2.632,0.7L337.854,98.252z"/>
	<path fill="#A5003B" d="M347.934,98.252V85.54h-2.744v-1.596l5.151-0.336v14.644H347.934z M350.817,78.302
		c0,0.482-0.173,0.894-0.519,1.236c-0.346,0.343-0.761,0.514-1.246,0.514s-0.9-0.171-1.246-0.514
		c-0.345-0.342-0.518-0.754-0.518-1.236c0-0.481,0.173-0.893,0.518-1.236c0.346-0.342,0.761-0.514,1.246-0.514
		s0.9,0.172,1.246,0.514C350.645,77.409,350.817,77.821,350.817,78.302z"/>
	<path fill="#A5003B" d="M364.935,94.388c0,0.709-0.149,1.321-0.448,1.834c-0.298,0.513-0.695,0.938-1.189,1.274
		c-0.495,0.336-1.05,0.588-1.666,0.756s-1.232,0.252-1.848,0.252c-0.859,0-1.694-0.131-2.507-0.392
		c-0.812-0.261-1.554-0.662-2.226-1.204l1.092-1.708c0.561,0.429,1.162,0.77,1.807,1.022c0.644,0.252,1.32,0.378,2.029,0.378
		c0.69,0,1.261-0.154,1.708-0.462c0.448-0.308,0.672-0.835,0.672-1.582c0-0.354-0.079-0.663-0.237-0.924
		c-0.159-0.261-0.374-0.49-0.645-0.686c-0.271-0.196-0.578-0.373-0.924-0.532s-0.705-0.322-1.078-0.49
		c-0.43-0.186-0.882-0.401-1.357-0.644c-0.477-0.242-0.91-0.541-1.303-0.896c-0.392-0.354-0.714-0.774-0.966-1.26
		s-0.378-1.073-0.378-1.764c0-0.634,0.14-1.194,0.42-1.68s0.645-0.882,1.092-1.19c0.448-0.308,0.947-0.541,1.498-0.7
		s1.097-0.238,1.639-0.238c0.802,0,1.577,0.122,2.323,0.364c0.747,0.243,1.466,0.56,2.156,0.952l-0.924,1.624
		c-0.542-0.299-1.088-0.556-1.638-0.77c-0.551-0.214-1.135-0.322-1.75-0.322c-0.654,0-1.19,0.168-1.61,0.504s-0.63,0.831-0.63,1.484
		c0,0.374,0.093,0.69,0.28,0.952c0.186,0.262,0.429,0.49,0.728,0.686c0.299,0.196,0.625,0.374,0.98,0.532
		c0.354,0.159,0.699,0.322,1.036,0.49c0.447,0.224,0.899,0.458,1.357,0.7c0.457,0.243,0.872,0.527,1.246,0.854
		c0.373,0.327,0.677,0.714,0.91,1.162C364.818,93.212,364.935,93.753,364.935,94.388z"/>
	<path fill="#A5003B" d="M378.612,94.388c0,0.709-0.149,1.321-0.448,1.834c-0.298,0.513-0.695,0.938-1.189,1.274
		c-0.495,0.336-1.05,0.588-1.666,0.756s-1.232,0.252-1.848,0.252c-0.859,0-1.694-0.131-2.507-0.392
		c-0.812-0.261-1.554-0.662-2.226-1.204l1.092-1.708c0.561,0.429,1.162,0.77,1.807,1.022c0.644,0.252,1.32,0.378,2.029,0.378
		c0.69,0,1.261-0.154,1.708-0.462c0.448-0.308,0.672-0.835,0.672-1.582c0-0.354-0.079-0.663-0.237-0.924
		c-0.159-0.261-0.374-0.49-0.645-0.686c-0.271-0.196-0.578-0.373-0.924-0.532s-0.705-0.322-1.078-0.49
		c-0.43-0.186-0.882-0.401-1.357-0.644c-0.477-0.242-0.91-0.541-1.303-0.896c-0.392-0.354-0.714-0.774-0.966-1.26
		s-0.378-1.073-0.378-1.764c0-0.634,0.14-1.194,0.42-1.68s0.645-0.882,1.092-1.19c0.448-0.308,0.947-0.541,1.498-0.7
		s1.097-0.238,1.639-0.238c0.802,0,1.577,0.122,2.323,0.364c0.747,0.243,1.466,0.56,2.156,0.952l-0.924,1.624
		c-0.542-0.299-1.088-0.556-1.638-0.77c-0.551-0.214-1.135-0.322-1.75-0.322c-0.654,0-1.19,0.168-1.61,0.504s-0.63,0.831-0.63,1.484
		c0,0.374,0.093,0.69,0.28,0.952c0.186,0.262,0.429,0.49,0.728,0.686c0.299,0.196,0.625,0.374,0.98,0.532
		c0.354,0.159,0.699,0.322,1.036,0.49c0.447,0.224,0.899,0.458,1.357,0.7c0.457,0.243,0.872,0.527,1.246,0.854
		c0.373,0.327,0.677,0.714,0.91,1.162C378.496,93.212,378.612,93.753,378.612,94.388z"/>
	<path fill="#A5003B" d="M393.158,87.92c0,0.896-0.243,1.615-0.728,2.156c-0.486,0.542-1.106,0.971-1.862,1.288
		c-0.756,0.318-1.596,0.537-2.521,0.658c-0.924,0.122-1.834,0.21-2.729,0.266c0.019,0.56,0.088,1.097,0.21,1.61
		c0.121,0.514,0.294,0.971,0.518,1.372c0.225,0.401,0.514,0.724,0.868,0.966c0.354,0.243,0.784,0.364,1.288,0.364
		c0.709,0,1.372-0.117,1.988-0.35s1.194-0.508,1.736-0.826l1.063,1.82c-0.635,0.374-1.358,0.667-2.17,0.882
		c-0.812,0.214-1.676,0.322-2.59,0.322c-0.971,0-1.807-0.196-2.506-0.588c-0.7-0.392-1.274-0.928-1.723-1.61
		c-0.447-0.681-0.779-1.488-0.994-2.422c-0.214-0.934-0.321-1.932-0.321-2.996c0-1.045,0.121-2.011,0.363-2.898
		c0.243-0.887,0.603-1.652,1.078-2.296c0.477-0.644,1.055-1.148,1.736-1.512c0.682-0.364,1.47-0.546,2.366-0.546
		c0.69,0,1.339,0.103,1.946,0.308c0.605,0.206,1.129,0.5,1.567,0.882c0.438,0.383,0.784,0.84,1.036,1.372
		C393.032,86.674,393.158,87.267,393.158,87.92z M390.639,87.906c0-0.724-0.225-1.323-0.673-1.796
		c-0.447-0.473-1.026-0.71-1.735-0.71c-0.561,0-1.022,0.149-1.386,0.446c-0.364,0.297-0.658,0.687-0.883,1.169
		c-0.224,0.483-0.388,1.035-0.489,1.657c-0.104,0.622-0.164,1.258-0.183,1.908c0.578-0.056,1.181-0.125,1.807-0.209
		c0.625-0.083,1.199-0.213,1.722-0.39s0.956-0.427,1.302-0.752C390.466,88.905,390.639,88.464,390.639,87.906z"/>
	<path fill="#A5003B" d="M411.244,97.86c-0.654,0.411-1.475,0.616-2.464,0.616c-0.952,0-1.686-0.336-2.198-1.008
		c-0.514-0.672-0.771-1.624-0.771-2.856v-6.664c0-0.765-0.178-1.376-0.531-1.834c-0.355-0.457-0.868-0.686-1.54-0.686
		c-0.71,0-1.372,0.248-1.988,0.742c-0.616,0.495-1.139,1.097-1.568,1.806v10.276h-2.38V83.888l2.044-0.308l0.336,2.492
		c0.411-0.709,0.915-1.306,1.513-1.792c0.597-0.485,1.353-0.728,2.268-0.728c1.232,0,2.244,0.374,3.038,1.12
		c0.793,0.747,1.189,1.802,1.189,3.164v6.748c0,0.542,0.065,1.018,0.196,1.428c0.131,0.411,0.43,0.616,0.896,0.616
		c0.242,0,0.466-0.042,0.672-0.126c0.205-0.084,0.401-0.172,0.588-0.266L411.244,97.86z"/>
	<path fill="#A5003B" d="M433.672,91c0,0.99-0.112,1.932-0.337,2.828c-0.224,0.896-0.564,1.689-1.021,2.38
		c-0.458,0.691-1.031,1.242-1.722,1.652c-0.691,0.411-1.503,0.616-2.437,0.616c-0.989,0-1.844-0.187-2.562-0.56
		c-0.719-0.373-1.308-0.886-1.765-1.54c-0.457-0.653-0.798-1.437-1.021-2.352c-0.225-0.915-0.336-1.922-0.336-3.024
		c0-1.008,0.126-1.96,0.378-2.856s0.616-1.685,1.092-2.366c0.476-0.681,1.068-1.222,1.778-1.624
		c0.709-0.401,1.521-0.602,2.436-0.602c0.896,0,1.689,0.192,2.38,0.574c0.69,0.383,1.27,0.91,1.736,1.582s0.816,1.461,1.05,2.366
		C433.555,88.979,433.672,89.955,433.672,91z M431.096,91c0-0.69-0.042-1.372-0.126-2.044s-0.238-1.27-0.462-1.792
		c-0.225-0.522-0.528-0.947-0.91-1.274c-0.383-0.327-0.864-0.49-1.442-0.49c-0.598,0-1.097,0.164-1.498,0.49
		s-0.724,0.751-0.966,1.274c-0.243,0.522-0.411,1.12-0.504,1.792c-0.094,0.672-0.14,1.354-0.14,2.044
		c0,0.691,0.037,1.372,0.111,2.044s0.225,1.274,0.448,1.806c0.224,0.532,0.541,0.961,0.952,1.288c0.41,0.327,0.942,0.49,1.596,0.49
		c0.598,0,1.087-0.168,1.47-0.504s0.682-0.774,0.896-1.316c0.214-0.542,0.364-1.148,0.448-1.82
		C431.054,92.316,431.096,91.654,431.096,91z"/>
	<path fill="#A5003B" d="M452.036,97.86c-0.654,0.411-1.475,0.616-2.464,0.616c-0.952,0-1.686-0.336-2.198-1.008
		c-0.514-0.672-0.771-1.624-0.771-2.856v-6.664c0-0.765-0.178-1.376-0.531-1.834c-0.355-0.457-0.868-0.686-1.54-0.686
		c-0.71,0-1.372,0.248-1.988,0.742c-0.616,0.495-1.139,1.097-1.568,1.806v10.276h-2.38V83.888l2.044-0.308l0.336,2.492
		c0.411-0.709,0.915-1.306,1.513-1.792c0.597-0.485,1.353-0.728,2.268-0.728c1.232,0,2.244,0.374,3.038,1.12
		c0.793,0.747,1.189,1.802,1.189,3.164v6.748c0,0.542,0.065,1.018,0.196,1.428c0.131,0.411,0.43,0.616,0.896,0.616
		c0.242,0,0.466-0.042,0.672-0.126c0.205-0.084,0.401-0.172,0.588-0.266L452.036,97.86z"/>
	<path fill="#A5003B" d="M461.782,97.188c-0.411,0.392-0.92,0.7-1.526,0.924c-0.606,0.224-1.236,0.336-1.89,0.336
		c-1.102,0-1.918-0.34-2.45-1.022c-0.531-0.681-0.798-1.61-0.798-2.786V77.168h2.353V94.08c0,0.336,0.014,0.653,0.042,0.952
		c0.027,0.299,0.084,0.56,0.168,0.784s0.2,0.402,0.35,0.532c0.149,0.131,0.354,0.196,0.616,0.196c0.336,0,0.672-0.088,1.008-0.266
		c0.336-0.177,0.672-0.396,1.008-0.658L461.782,97.188z"/>
	<path fill="#A5003B" d="M464.748,98.252V85.54h-2.744v-1.596l5.151-0.336v14.644H464.748z M467.632,78.302
		c0,0.482-0.173,0.894-0.519,1.236c-0.346,0.343-0.761,0.514-1.246,0.514s-0.9-0.171-1.246-0.514
		c-0.345-0.342-0.518-0.754-0.518-1.236c0-0.481,0.173-0.893,0.518-1.236c0.346-0.342,0.761-0.514,1.246-0.514
		s0.9,0.172,1.246,0.514C467.459,77.409,467.632,77.821,467.632,78.302z"/>
	<path fill="#A5003B" d="M486.35,97.86c-0.654,0.411-1.475,0.616-2.464,0.616c-0.952,0-1.686-0.336-2.198-1.008
		c-0.514-0.672-0.771-1.624-0.771-2.856v-6.664c0-0.765-0.178-1.376-0.531-1.834c-0.355-0.457-0.868-0.686-1.54-0.686
		c-0.71,0-1.372,0.248-1.988,0.742c-0.616,0.495-1.139,1.097-1.568,1.806v10.276h-2.38V83.888l2.044-0.308l0.336,2.492
		c0.411-0.709,0.915-1.306,1.513-1.792c0.597-0.485,1.353-0.728,2.268-0.728c1.232,0,2.244,0.374,3.038,1.12
		c0.793,0.747,1.189,1.802,1.189,3.164v6.748c0,0.542,0.065,1.018,0.196,1.428c0.131,0.411,0.43,0.616,0.896,0.616
		c0.242,0,0.466-0.042,0.672-0.126c0.205-0.084,0.401-0.172,0.588-0.266L486.35,97.86z"/>
	<path fill="#A5003B" d="M499.072,87.92c0,0.896-0.243,1.615-0.728,2.156c-0.486,0.542-1.106,0.971-1.862,1.288
		c-0.756,0.318-1.596,0.537-2.521,0.658c-0.924,0.122-1.834,0.21-2.729,0.266c0.019,0.56,0.088,1.097,0.21,1.61
		c0.121,0.514,0.294,0.971,0.518,1.372c0.225,0.401,0.514,0.724,0.868,0.966c0.354,0.243,0.784,0.364,1.288,0.364
		c0.709,0,1.372-0.117,1.988-0.35s1.194-0.508,1.736-0.826l1.063,1.82c-0.635,0.374-1.358,0.667-2.17,0.882
		c-0.812,0.214-1.676,0.322-2.59,0.322c-0.971,0-1.807-0.196-2.506-0.588c-0.7-0.392-1.274-0.928-1.723-1.61
		c-0.447-0.681-0.779-1.488-0.994-2.422c-0.214-0.934-0.321-1.932-0.321-2.996c0-1.045,0.121-2.011,0.363-2.898
		c0.243-0.887,0.603-1.652,1.078-2.296c0.477-0.644,1.055-1.148,1.736-1.512c0.682-0.364,1.47-0.546,2.366-0.546
		c0.69,0,1.339,0.103,1.946,0.308c0.605,0.206,1.129,0.5,1.567,0.882c0.438,0.383,0.784,0.84,1.036,1.372
		C498.946,86.674,499.072,87.267,499.072,87.92z M496.553,87.906c0-0.724-0.225-1.323-0.673-1.796
		c-0.447-0.473-1.026-0.71-1.735-0.71c-0.561,0-1.022,0.149-1.386,0.446c-0.364,0.297-0.658,0.687-0.883,1.169
		c-0.224,0.483-0.388,1.035-0.489,1.657c-0.104,0.622-0.164,1.258-0.183,1.908c0.578-0.056,1.181-0.125,1.807-0.209
		c0.625-0.083,1.199-0.213,1.722-0.39s0.956-0.427,1.302-0.752C496.38,88.905,496.553,88.464,496.553,87.906z"/>
</g>
</svg>
