<?xml version="1.0" encoding="UTF-8" standalone="no"?>
<!-- Generator: Adobe Illustrator 14.0.0, SVG Export Plug-In . SVG Version: 6.00 Build 43363)  -->

<svg
   version="1.1"
   x="0px"
   y="0px"
   width="678.89423"
   height="310.37732"
   viewBox="0 0 678.8942 310.37732"
   enable-background="new 0 0 768.189 439.37"
   xml:space="preserve"
   id="svg391"
   sodipodi:docname="DDB_Logo_2_s_pos_RGB_R.svg"
   inkscape:version="1.2.2 (b0a8486541, 2022-12-01)"
   xmlns:inkscape="http://www.inkscape.org/namespaces/inkscape"
   xmlns:sodipodi="http://sodipodi.sourceforge.net/DTD/sodipodi-0.dtd"
   xmlns="http://www.w3.org/2000/svg"
   xmlns:svg="http://www.w3.org/2000/svg"><defs
   id="defs395"><linearGradient
     id="SVGID_1_"
     gradientUnits="userSpaceOnUse"
     x1="43.109901"
     y1="235.9883"
     x2="334.98541"
     y2="235.9883">
			<stop
   offset="0"
   style="stop-color:#A51848"
   id="stop260" />
			<stop
   offset="1"
   style="stop-color:#E41E3D"
   id="stop262" />
		</linearGradient><linearGradient
     id="SVGID_2_"
     gradientUnits="userSpaceOnUse"
     x1="557.34808"
     y1="-574.63568"
     x2="659.90479"
     y2="-574.63568"
     gradientTransform="matrix(0.925,0.38,-0.38,0.925,-252.8583,426.7821)">
			<stop
   offset="0"
   style="stop-color:#A51848"
   id="stop269" />
			<stop
   offset="1"
   style="stop-color:#E41E3D"
   id="stop271" />
		</linearGradient><linearGradient
     id="SVGID_3_"
     gradientUnits="userSpaceOnUse"
     x1="-94.208504"
     y1="1080.7178"
     x2="-19.8057"
     y2="1080.7178"
     gradientTransform="matrix(0.8093,-0.5874,0.5874,0.8093,37.2829,-733.841)">
			<stop
   offset="0"
   style="stop-color:#A51848"
   id="stop278" />
			<stop
   offset="1"
   style="stop-color:#E41E3D"
   id="stop280" />
		</linearGradient></defs><sodipodi:namedview
   id="namedview393"
   pagecolor="#ffffff"
   bordercolor="#666666"
   borderopacity="1.0"
   inkscape:showpageshadow="2"
   inkscape:pageopacity="0.0"
   inkscape:pagecheckerboard="0"
   inkscape:deskcolor="#d1d1d1"
   showgrid="false"
   showguides="false"
   inkscape:zoom="1.8302787"
   inkscape:cx="384.09451"
   inkscape:cy="219.63868"
   inkscape:window-width="2524"
   inkscape:window-height="1312"
   inkscape:window-x="36"
   inkscape:window-y="0"
   inkscape:window-maximized="1"
   inkscape:current-layer="svg391" />


<g
   id="g653"
   transform="translate(-43.110756,-64.559)"><g
     id="g267">
		<linearGradient
   id="linearGradient676"
   gradientUnits="userSpaceOnUse"
   x1="43.109901"
   y1="235.9883"
   x2="334.98541"
   y2="235.9883">
			<stop
   offset="0"
   style="stop-color:#A51848"
   id="stop672" />
			<stop
   offset="1"
   style="stop-color:#E41E3D"
   id="stop674" />
		</linearGradient>
		<path
   fill-rule="evenodd"
   clip-rule="evenodd"
   fill="url(#SVGID_1_)"
   d="m 63.02,97.038 c 10.19,-0.007 16.323,10.902 16.323,10.902 4.182,23.805 16.894,34.688 38.076,32.633 4.077,16.392 36.828,31.329 48.948,21.763 6.179,-4.865 4.715,-32.317 5.443,-32.633 2.738,-1.28 14.609,49.694 16.001,3.7 0.039,-1.067 0.683,-1.415 0.873,-0.374 6.015,29.589 29.074,-2.84 26.645,23.856 26.963,-22.238 44.569,-20.439 59.828,-54.388 8.949,25.396 -37.028,42.635 -48.948,65.274 2.341,12.156 26.795,2.203 38.063,5.434 -45.555,-15.309 -4.327,-1.087 10.886,-21.763 -3.769,-13.565 -14.504,10.098 -27.202,5.442 10.538,-11.339 61.168,-29.428 70.728,-59.848 10.102,19.389 -31.706,33.456 -38.089,54.405 12.305,4.517 36.592,-6.33 48.956,-27.189 9.195,32.875 -41.307,52.901 -76.145,59.828 21.556,15.88 54.871,-19.248 81.581,-5.43 -34.918,22.363 -4.843,50.767 -66.624,31.194 15.075,-6.398 21.346,-9.853 38.022,-10.164 -30.83,-7.669 -76.571,2.019 -91.056,-10.157 1.179,24.205 27.505,21.48 39.097,35.271 65.124,-15.203 -27.932,28.614 -44.533,-8.069 -11.497,-13.319 5.719,8.115 16.316,5.43 -1.104,-20.669 -22.882,-20.633 -21.772,-43.505 -15.936,4.615 4.708,18.128 0,27.192 -26.651,51.47 -24.143,143.612 -74.91,168.123 -0.607,0.292 -2.239,1.392 -3.018,0.798 -0.637,-0.506 -0.476,-2.564 -0.456,-3.523 0.296,-15.387 8.211,-41.45 26.703,-46.207 1.964,-0.496 4.787,-0.535 6.074,-0.512 22.448,-44.639 27.925,-69.675 34.74,-129.556 -4.187,36.743 -116.374,27.144 -146.859,-38.082 -7.804,-16.667 -0.87,-10.695 1.687,-18.217 16.375,21.001 73.374,36.349 85.331,34.537 C 117.713,164.076 32.987,144.913 63.02,97.038"
   id="path265"
   style="fill:url(#SVGID_1_)" />
	</g><g
     id="g276">
		
			<linearGradient
   id="linearGradient684"
   gradientUnits="userSpaceOnUse"
   x1="557.34808"
   y1="-574.63568"
   x2="659.90479"
   y2="-574.63568"
   gradientTransform="matrix(0.925,0.38,-0.38,0.925,-252.8583,426.7821)">
			<stop
   offset="0"
   style="stop-color:#A51848"
   id="stop680" />
			<stop
   offset="1"
   style="stop-color:#E41E3D"
   id="stop682" />
		</linearGradient>
		<path
   fill-rule="evenodd"
   clip-rule="evenodd"
   fill="url(#SVGID_2_)"
   d="m 506.072,64.559 c 3.311,1.353 3.855,5.725 3.855,5.725 -1.826,8.28 0.84,13.52 8.01,15.673 -0.859,5.88 7.787,15.108 13,13.624 2.66,-0.755 5.844,-9.871 6.127,-9.881 1.063,-0.053 -1.895,18.096 4.701,3.342 0.164,-0.348 0.412,-0.381 0.34,-0.02 -2.002,10.427 9.824,2.958 5.467,11.326 11.75,-3.631 17.227,-0.696 26.721,-9.691 -0.482,9.445 -17.734,8.903 -24.625,14.675 -0.871,4.268 8.42,4.307 11.641,6.852 -12.752,-11.047 -1.258,-0.933 6.438,-5.617 0.592,-4.915 -6.047,1.346 -9.563,-1.868 4.939,-2.275 23.811,-1.392 30.977,-10.003 0.693,7.655 -14.77,6.645 -19.641,12.6 3.4,3.112 12.736,2.817 19.547,-2.298 -1.412,11.91 -20.486,11.661 -32.742,9.281 4.889,8.02 20.4,1.063 27.232,9.13 -14.326,2.59 -8.346,15.85 -25.811,1.23 5.766,-0.059 8.254,-0.364 13.717,1.776 -8.996,-6.608 -25.168,-9.573 -28.24,-15.463 -2.85,8.027 6.074,10.656 7.988,16.684 23.199,3.763 -12.891,5.565 -13.393,-8.568 -1.949,-5.863 0.775,3.408 4.58,3.946 2.41,-6.868 -4.672,-9.76 -1.258,-17.058 -5.803,-0.624 -0.893,6.526 -3.637,8.841 -15.529,13.174 -27.029,43.446 -46.805,44.642 -0.227,0.016 -0.896,0.095 -1.068,-0.185 -0.127,-0.263 0.172,-0.847 0.309,-1.165 2.141,-4.961 8.201,-12.37 14.846,-11.454 0.703,0.114 1.629,0.47 2.035,0.656 13.268,-11.51 18.393,-18.916 28.602,-37.484 -6.264,11.395 -41.447,-6.714 -42.652,-31.992 -0.301,-6.448 1.156,-3.579 3.002,-5.68 2.508,9.015 18.975,21.611 23.117,22.616 -3.999,-5.105 -28.97,-22.659 -12.817,-34.192"
   id="path274"
   style="fill:url(#SVGID_2_)" />
	</g><g
     id="g285">
		
			<linearGradient
   id="linearGradient692"
   gradientUnits="userSpaceOnUse"
   x1="-94.208504"
   y1="1080.7178"
   x2="-19.8057"
   y2="1080.7178"
   gradientTransform="matrix(0.8093,-0.5874,0.5874,0.8093,37.2829,-733.841)">
			<stop
   offset="0"
   style="stop-color:#A51848"
   id="stop688" />
			<stop
   offset="1"
   style="stop-color:#E41E3D"
   id="stop690" />
		</linearGradient>
		<path
   fill-rule="evenodd"
   clip-rule="evenodd"
   fill="url(#SVGID_3_)"
   d="m 579.167,164.492 c 2.094,-1.527 4.996,-0.204 4.996,-0.204 4.436,4.288 8.678,4.629 12.748,1.041 3.289,2.764 12.285,0.955 13.361,-2.85 0.539,-1.924 -3.873,-7.38 -3.77,-7.541 0.375,-0.67 10.453,8.06 3.848,-1.632 -0.145,-0.227 -0.072,-0.397 0.139,-0.207 5.666,5.204 5.561,-4.94 9.051,0.92 2.236,-8.621 6.152,-10.887 4.213,-20.164 5.646,3.887 -1.262,14.337 -0.336,20.794 2.313,2.15 5.867,-3.559 8.668,-4.583 -11.688,3.661 -1.061,0.421 -0.998,-6.122 -2.811,-2.239 -1.49,4.261 -4.801,5.196 0.473,-3.913 8.215,-15.239 5.621,-22.935 4.986,2.482 -1.529,11.642 0.289,16.914 3.217,-0.916 6.605,-6.776 6.041,-12.938 6.809,5.407 -0.598,17.107 -6.758,23.759 6.816,0.039 8.436,-12.199 16.012,-13.339 -3.844,9.836 6.615,11.195 -9.059,16.405 2.135,-3.572 2.916,-5.227 6.32,-7.797 -7.523,3.03 -15.506,11.891 -20.318,11.553 3.867,4.813 8.891,0.318 13.35,1.425 11.154,-12.902 -1.471,10.075 -10.395,4.996 -4.373,-1.024 2.402,0.831 4.182,-1.316 -3.324,-4.116 -7.818,-0.837 -11.018,-5.729 -2.59,3.349 3.697,3.04 4.078,5.62 2.219,14.616 16.533,33.24 9.717,45.909 -0.064,0.145 -0.275,0.581 -0.518,0.581 -0.203,-0.017 -0.467,-0.424 -0.604,-0.627 -2.236,-3.211 -4.512,-9.783 -1.387,-13.532 0.316,-0.404 0.9,-0.841 1.17,-1.018 -2.063,-12.581 -4.676,-18.553 -12.246,-31.937 4.635,8.214 -19.951,23.039 -36,14.143 -4.104,-2.269 -1.789,-2.068 -2.391,-4.012 6.533,1.885 20.59,-3.493 22.783,-5.653 -4.669,0.513 -25.019,9.246 -25.988,-5.12"
   id="path283"
   style="fill:url(#SVGID_3_)" />
	</g><g
     id="neu">
	<g
   id="g388">
		<g
   id="g342">
			<path
   fill="#58585a"
   d="m 231.147,294.445 h -4.22 v -21.489 h 4.22 c 7.092,0 10.497,4.574 10.497,10.851 0,5.958 -3.759,10.638 -10.497,10.638 z m 0,-19.078 h -1.241 v 16.561 h 1.241 c 4.823,0 7.305,-3.546 7.305,-8.121 0.001,-4.859 -2.482,-8.44 -7.305,-8.44 z"
   id="path290" />
			<path
   fill="#58585a"
   d="m 260.193,275.332 h -8.156 v 6.56 h 6.809 l -0.425,2.341 h -6.383 v 7.872 h 8.653 l -0.39,2.341 H 249.06 V 272.92 h 11.667 z"
   id="path292" />
			<path
   fill="#58585a"
   d="m 274.522,294.729 c -4.113,0 -6.915,-2.233 -6.915,-6.205 V 272.92 h 2.979 v 15.284 c 0,2.589 1.525,4.043 3.936,4.043 2.482,0 4.043,-1.419 4.043,-3.972 V 272.92 h 2.943 v 15.213 c 0.001,4.078 -2.765,6.596 -6.986,6.596 z"
   id="path294" />
			<path
   fill="#58585a"
   d="m 301.902,275.509 h -5.816 v 18.937 h -2.979 v -18.937 h -5.78 v -2.553 h 14.823 z"
   id="path296" />
			<path
   fill="#58585a"
   d="m 312.827,294.835 c -2.589,0 -4.61,-0.886 -6.631,-2.411 l 1.738,-2.376 c 1.702,1.313 3.085,2.306 5.354,2.306 1.844,0 3.156,-1.348 3.156,-3.156 0,-4.575 -9.717,-4.469 -9.717,-10.852 0,-3.617 2.908,-5.78 6.383,-5.78 2.305,0 4.503,0.815 6.383,2.163 l -1.631,2.234 c -1.49,-1.063 -2.979,-1.844 -4.858,-1.844 -1.809,0 -3.156,1.063 -3.156,2.943 0,4.503 9.716,4.042 9.716,11.063 10e-4,3.689 -3.403,5.71 -6.737,5.71 z"
   id="path298" />
			<path
   fill="#58585a"
   d="m 337.688,277.353 c -1.028,-1.418 -2.34,-2.305 -4.22,-2.305 -3.404,0 -4.823,4.078 -4.823,8.795 0,4.574 1.383,8.439 4.929,8.439 1.915,0 3.049,-0.852 4.22,-1.809 l 1.951,1.95 c -1.419,1.348 -3.511,2.341 -6.17,2.341 -5.851,0 -8.192,-4.752 -8.192,-10.922 0,-6.525 2.873,-11.277 8.192,-11.277 2.872,0 4.964,1.276 6.418,3.121 z"
   id="path300" />
			<path
   fill="#58585a"
   d="m 357.656,294.445 v -10.106 h -9.255 v 10.106 h -2.943 V 272.92 h 2.979 v 8.972 h 9.22 v -8.972 h 2.908 v 21.525 z"
   id="path302" />
			<path
   fill="#58585a"
   d="m 380.355,275.332 h -8.156 v 6.56 h 6.809 l -0.425,2.341 H 372.2 v 7.872 h 8.653 l -0.39,2.341 H 369.22 V 272.92 h 11.667 z"
   id="path304" />
			<path
   fill="#58585a"
   d="m 400.855,294.445 h -4.22 v -21.489 h 4.22 c 7.092,0 10.496,4.574 10.496,10.851 0,5.958 -3.758,10.638 -10.496,10.638 z m 0,-19.078 h -1.241 v 16.561 h 1.241 c 4.822,0 7.305,-3.546 7.305,-8.121 0,-4.859 -2.483,-8.44 -7.305,-8.44 z"
   id="path306" />
			<path
   fill="#58585a"
   d="m 417.525,294.445 v -21.489 h 2.873 v 21.489 z"
   id="path308" />
			<path
   fill="#58585a"
   d="m 440.257,277.211 c -1.348,-1.312 -2.907,-2.128 -4.822,-2.128 -3.546,0 -4.93,3.865 -4.93,8.476 0,4.717 1.242,8.83 4.895,8.83 1.348,0 2.588,-0.106 3.652,-0.426 v -7.589 h -4.113 l 0.39,-2.376 h 6.524 v 11.135 c -1.631,0.993 -3.971,1.702 -6.453,1.702 -5.816,0 -8.121,-5 -8.121,-11.276 0,-6.276 2.837,-10.887 8.156,-10.887 2.908,0 5.07,1.028 6.844,2.802 z"
   id="path310" />
			<path
   fill="#58585a"
   d="m 449.694,294.445 v -21.489 h 2.872 v 21.489 z"
   id="path312" />
			<path
   fill="#58585a"
   d="m 473.313,275.509 h -5.815 v 18.937 h -2.979 v -18.937 h -5.781 v -2.553 h 14.823 z"
   id="path314" />
			<path
   fill="#58585a"
   d="m 490.443,294.445 -1.596,-5.887 h -7.766 l -1.737,5.887 h -3.156 l 7.021,-21.525 h 4.113 l 6.206,21.525 z m -5,-19.256 h -0.354 l -3.264,10.958 h 6.42 z"
   id="path316" />
			<path
   fill="#58585a"
   d="M 510.199,294.445 H 499.347 V 272.92 h 2.873 v 19.043 h 8.227 z"
   id="path318" />
			<path
   fill="#58585a"
   d="m 527.044,275.332 h -8.156 v 6.56 h 6.809 l -0.425,2.341 h -6.384 v 7.872 h 8.653 l -0.39,2.341 H 515.91 V 272.92 h 11.668 z"
   id="path320" />
			<path
   fill="#58585a"
   d="m 549.781,294.445 h -5.745 v -21.489 h 5.319 c 4.256,0 7.199,1.915 7.199,5.354 0,2.163 -1.348,3.652 -3.086,4.504 2.163,0.886 3.582,2.801 3.582,5.318 0,3.831 -2.978,6.313 -7.269,6.313 z m -0.426,-19.184 h -2.482 v 6.524 h 2.66 c 2.482,0 3.971,-1.312 3.971,-3.262 -10e-4,-2.199 -1.667,-3.262 -4.149,-3.262 z m 0.142,8.759 h -2.624 v 8.05 h 2.908 c 2.766,0 4.148,-1.596 4.148,-3.937 0,-2.376 -1.773,-4.113 -4.432,-4.113 z"
   id="path322" />
			<path
   fill="#58585a"
   d="m 564.287,294.445 v -21.489 h 2.873 v 21.489 z"
   id="path324" />
			<path
   fill="#58585a"
   d="m 581.914,294.445 h -5.745 v -21.489 h 5.319 c 4.256,0 7.199,1.915 7.199,5.354 0,2.163 -1.348,3.652 -3.086,4.504 2.163,0.886 3.582,2.801 3.582,5.318 0,3.831 -2.978,6.313 -7.269,6.313 z m -0.426,-19.184 h -2.482 v 6.524 h 2.66 c 2.482,0 3.971,-1.312 3.971,-3.262 -10e-4,-2.199 -1.667,-3.262 -4.149,-3.262 z m 0.141,8.759 h -2.624 v 8.05 h 2.908 c 2.766,0 4.148,-1.596 4.148,-3.937 10e-4,-2.376 -1.772,-4.113 -4.432,-4.113 z"
   id="path326" />
			<path
   fill="#58585a"
   d="M 606.562,294.445 H 595.71 V 272.92 h 2.873 v 19.043 h 8.227 z"
   id="path328" />
			<path
   fill="#58585a"
   d="m 612.274,294.445 v -21.489 h 2.872 v 21.489 z"
   id="path330" />
			<path
   fill="#58585a"
   d="m 630.68,294.765 c -5.745,0 -8.298,-4.539 -8.298,-11.1 0,-6.276 2.624,-11.1 8.298,-11.1 5.603,0 8.228,5.036 8.228,11.064 0,6.136 -2.554,11.136 -8.228,11.136 z m 0,-19.894 c -3.546,0 -5.071,4.007 -5.071,8.794 0,5.071 1.49,8.865 5.071,8.865 3.652,0 5,-3.972 5,-8.865 0,-4.787 -1.667,-8.794 -5,-8.794 z"
   id="path332" />
			<path
   fill="#58585a"
   d="m 657.882,275.509 h -5.815 v 18.937 h -2.979 v -18.937 h -5.78 v -2.553 h 14.822 z"
   id="path334" />
			<path
   fill="#58585a"
   d="m 676.148,294.445 v -10.106 h -9.256 v 10.106 h -2.943 V 272.92 h 2.979 v 8.972 h 9.221 v -8.972 h 2.907 v 21.525 z"
   id="path336" />
			<path
   fill="#58585a"
   d="m 699.201,275.332 h -8.156 v 6.56 h 6.809 l -0.426,2.341 h -6.383 v 7.872 h 8.652 l -0.39,2.341 H 688.066 V 272.92 h 11.666 z"
   id="path338" />
			<path
   fill="#58585a"
   d="m 718.353,294.445 -6.383,-9.894 h -2.021 v 9.894 H 706.97 V 272.92 h 2.979 v 9.008 h 1.95 l 6.596,-9.221 2.482,1.49 -6.702,8.9 7.73,11.348 z"
   id="path340" />
		</g>
		<g
   id="g386">
			<path
   fill="#a51848"
   d="m 276.125,327.813 -4.833,-7.627 h -1.695 v 7.627 h -2.061 v -16.33 h 2.039 v 6.916 h 1.649 l 4.993,-7.076 1.695,1.053 -5.062,6.803 5.794,8.635 h -2.519 z"
   id="path344" />
			<path
   fill="#a51848"
   d="m 290.14,327.996 c -1.008,0 -1.833,-0.482 -2.222,-1.672 -0.435,0.641 -1.489,1.693 -3.092,1.693 -2.176,0 -3.458,-1.373 -3.458,-3.596 v -8.451 h 1.947 v 8.451 c 0,1.375 0.756,2.016 1.741,2.016 1.191,0 2.268,-1.053 2.657,-1.855 v -8.611 h 1.947 v 8.842 c 0,0.916 0.137,1.672 0.893,1.672 0.436,0 0.756,-0.16 1.031,-0.322 l 0.573,1.33 c -0.459,0.296 -1.238,0.503 -2.017,0.503 z"
   id="path346" />
			<path
   fill="#a51848"
   d="m 297.559,327.973 c -1.787,0 -2.657,-1.215 -2.657,-3.115 v -14.291 h 1.924 v 13.832 c 0,1.078 0.137,2.016 0.962,2.016 0.55,0 1.1,-0.342 1.649,-0.756 l 0.917,1.283 c -0.665,0.64 -1.718,1.031 -2.795,1.031 z"
   id="path348" />
			<path
   fill="#a51848"
   d="m 305.895,327.973 c -1.787,0 -2.657,-1.215 -2.657,-3.115 v -7.443 h -1.74 v -1.443 h 1.763 l 0.687,-3.848 h 1.214 v 3.848 h 3.069 v 1.443 h -3.046 v 6.984 c 0,1.078 0.115,2.016 0.939,2.016 0.549,0 1.099,-0.342 1.649,-0.756 l 0.916,1.283 c -0.665,0.64 -1.718,1.031 -2.794,1.031 z"
   id="path350" />
			<path
   fill="#a51848"
   d="m 320.322,327.996 c -1.008,0 -1.833,-0.482 -2.222,-1.672 -0.435,0.641 -1.489,1.693 -3.092,1.693 -2.176,0 -3.458,-1.373 -3.458,-3.596 v -8.451 h 1.947 v 8.451 c 0,1.375 0.756,2.016 1.741,2.016 1.191,0 2.268,-1.053 2.657,-1.855 v -8.611 h 1.947 v 8.842 c 0,0.916 0.137,1.672 0.893,1.672 0.436,0 0.756,-0.16 1.031,-0.322 l 0.573,1.33 c -0.46,0.296 -1.238,0.503 -2.017,0.503 z"
   id="path352" />
			<path
   fill="#a51848"
   d="m 330.512,317.85 c -0.184,-0.047 -0.39,-0.115 -0.619,-0.115 -1.237,0 -2.222,0.848 -2.909,1.971 v 8.107 h -1.901 v -11.91 l 1.489,-0.16 0.389,2.244 c 0.687,-1.168 1.695,-2.199 2.932,-2.199 0.481,0 0.939,0.068 1.352,0.184 z"
   id="path354" />
			<path
   fill="#a51848"
   d="m 351.557,327.996 c -1.008,0 -1.832,-0.482 -2.222,-1.672 -0.435,0.641 -1.489,1.693 -3.092,1.693 -2.176,0 -3.458,-1.373 -3.458,-3.596 v -8.451 h 1.947 v 8.451 c 0,1.375 0.756,2.016 1.741,2.016 1.191,0 2.268,-1.053 2.657,-1.855 v -8.611 h 1.947 v 8.842 c 0,0.916 0.137,1.672 0.893,1.672 0.436,0 0.756,-0.16 1.031,-0.322 l 0.573,1.33 c -0.46,0.296 -1.239,0.503 -2.017,0.503 z"
   id="path356" />
			<path
   fill="#a51848"
   d="m 365.297,327.996 c -1.557,0 -2.428,-1.146 -2.428,-3.162 v -5.451 c 0,-1.236 -0.595,-2.061 -1.695,-2.061 -1.168,0 -2.199,0.939 -2.909,2.084 v 8.406 h -1.947 v -11.75 l 1.672,-0.252 0.275,2.039 c 0.664,-1.146 1.603,-2.063 3.092,-2.063 2.016,0 3.458,1.283 3.458,3.504 v 5.521 c 0,0.893 0.138,1.672 0.893,1.672 0.39,0 0.733,-0.16 1.031,-0.322 l 0.573,1.33 c -0.503,0.322 -1.19,0.505 -2.015,0.505 z"
   id="path358" />
			<path
   fill="#a51848"
   d="m 378.67,327.996 c -1.146,0 -1.855,-0.596 -2.199,-1.582 -0.321,0.527 -1.123,1.65 -2.703,1.65 -2.978,0 -4.168,-2.703 -4.168,-6.07 0,-3.252 1.443,-6.139 4.26,-6.139 1.1,0 1.833,0.504 2.405,1.078 v -6.367 h 1.924 v 14.246 c 0,0.916 0.114,1.672 0.916,1.672 0.412,0 0.733,-0.16 1.008,-0.322 l 0.572,1.33 c -0.504,0.321 -1.259,0.504 -2.015,0.504 z m -2.405,-9.117 c -0.366,-0.801 -1.168,-1.465 -2.267,-1.465 -1.764,0 -2.291,2.244 -2.291,4.557 0,2.314 0.527,4.559 2.291,4.559 1.099,0 2.016,-1.213 2.267,-1.832 z"
   id="path360" />
			<path
   fill="#a51848"
   d="m 405.83,327.813 h -2.68 l -2.887,-12.941 -3.114,12.941 h -2.68 l -4.282,-16.057 2.198,-0.434 3.413,14.955 3.504,-14.795 h 1.9 l 3.391,14.795 3.389,-14.955 2.153,0.572 z"
   id="path362" />
			<path
   fill="#a51848"
   d="m 414.896,327.813 v -10.398 h -2.245 v -1.307 l 4.214,-0.273 v 11.979 h -1.969 z m 0.916,-14.889 c -0.802,0 -1.443,-0.641 -1.443,-1.441 0,-0.803 0.642,-1.443 1.443,-1.443 0.801,0 1.442,0.641 1.442,1.443 0,0.8 -0.641,1.441 -1.442,1.441 z"
   id="path364" />
			<path
   fill="#a51848"
   d="m 424.537,328.018 c -1.396,0 -2.771,-0.436 -3.871,-1.305 l 0.894,-1.396 c 0.916,0.709 1.97,1.145 3.138,1.145 1.123,0 1.947,-0.459 1.947,-1.672 0,-1.168 -1.146,-1.604 -2.359,-2.152 -1.42,-0.643 -3.275,-1.467 -3.275,-3.734 0,-2.107 2.062,-3.115 3.803,-3.115 1.305,0 2.541,0.436 3.664,1.076 l -0.756,1.33 c -0.871,-0.482 -1.764,-0.895 -2.771,-0.895 -1.053,0 -1.832,0.551 -1.832,1.627 0,1.191 1.374,1.648 2.474,2.176 1.466,0.709 3.161,1.488 3.161,3.549 -0.003,2.313 -2.178,3.366 -4.217,3.366 z"
   id="path366" />
			<path
   fill="#a51848"
   d="m 435.346,328.018 c -1.397,0 -2.771,-0.436 -3.87,-1.305 l 0.893,-1.396 c 0.916,0.709 1.97,1.145 3.138,1.145 1.122,0 1.946,-0.459 1.946,-1.672 0,-1.168 -1.145,-1.604 -2.358,-2.152 -1.42,-0.643 -3.275,-1.467 -3.275,-3.734 0,-2.107 2.062,-3.115 3.802,-3.115 1.306,0 2.543,0.436 3.665,1.076 l -0.756,1.33 c -0.87,-0.482 -1.764,-0.895 -2.771,-0.895 -1.054,0 -1.832,0.551 -1.832,1.627 0,1.191 1.374,1.648 2.474,2.176 1.466,0.709 3.16,1.488 3.16,3.549 -0.002,2.313 -2.178,3.366 -4.216,3.366 z"
   id="path368" />
			<path
   fill="#a51848"
   d="m 445.125,322.934 c 0.068,1.809 0.732,3.527 2.359,3.527 1.168,0 2.176,-0.436 3.045,-0.963 l 0.871,1.49 c -1.031,0.617 -2.404,0.984 -3.893,0.984 -3.184,0 -4.535,-2.727 -4.535,-6.23 0,-3.412 1.625,-5.932 4.535,-5.932 2.289,0 4.029,1.42 4.029,3.551 10e-4,2.909 -3.503,3.412 -6.411,3.573 z m 2.382,-5.635 c -1.811,0 -2.338,2.131 -2.406,4.26 1.879,-0.205 4.375,-0.389 4.375,-2.197 0,-1.192 -0.801,-2.063 -1.969,-2.063 z"
   id="path370" />
			<path
   fill="#a51848"
   d="m 464.615,327.996 c -1.559,0 -2.428,-1.146 -2.428,-3.162 v -5.451 c 0,-1.236 -0.596,-2.061 -1.695,-2.061 -1.168,0 -2.199,0.939 -2.91,2.084 v 8.406 h -1.945 v -11.75 l 1.672,-0.252 0.273,2.039 c 0.666,-1.146 1.604,-2.063 3.094,-2.063 2.016,0 3.457,1.283 3.457,3.504 v 5.521 c 0,0.893 0.139,1.672 0.895,1.672 0.389,0 0.732,-0.16 1.029,-0.322 l 0.572,1.33 c -0.504,0.322 -1.19,0.505 -2.014,0.505 z"
   id="path372" />
			<path
   fill="#a51848"
   d="m 481.697,327.996 c -3.23,0 -4.65,-2.543 -4.65,-6.115 0,-3.275 1.65,-6.094 4.65,-6.094 2.953,0 4.512,2.68 4.512,6.094 -10e-4,3.205 -1.467,6.115 -4.512,6.115 z m 0,-10.697 c -1.971,0 -2.543,2.314 -2.543,4.582 0,2.268 0.389,4.604 2.543,4.604 1.945,0 2.404,-2.451 2.404,-4.604 0,-2.268 -0.504,-4.582 -2.404,-4.582 z"
   id="path374" />
			<path
   fill="#a51848"
   d="m 499.285,327.996 c -1.559,0 -2.428,-1.146 -2.428,-3.162 v -5.451 c 0,-1.236 -0.596,-2.061 -1.695,-2.061 -1.168,0 -2.199,0.939 -2.91,2.084 v 8.406 h -1.945 v -11.75 l 1.672,-0.252 0.273,2.039 c 0.666,-1.146 1.604,-2.063 3.094,-2.063 2.016,0 3.457,1.283 3.457,3.504 v 5.521 c 0,0.893 0.139,1.672 0.895,1.672 0.389,0 0.732,-0.16 1.029,-0.322 l 0.572,1.33 c -0.505,0.322 -1.19,0.505 -2.014,0.505 z"
   id="path376" />
			<path
   fill="#a51848"
   d="m 506.703,327.973 c -1.787,0 -2.656,-1.215 -2.656,-3.115 v -14.291 h 1.924 v 13.832 c 0,1.078 0.137,2.016 0.961,2.016 0.551,0 1.1,-0.342 1.65,-0.756 l 0.916,1.283 c -0.665,0.64 -1.719,1.031 -2.795,1.031 z"
   id="path378" />
			<path
   fill="#a51848"
   d="m 513.136,327.813 v -10.398 h -2.244 v -1.307 l 4.215,-0.273 v 11.979 h -1.971 z m 0.918,-14.889 c -0.803,0 -1.443,-0.641 -1.443,-1.441 0,-0.803 0.641,-1.443 1.443,-1.443 0.801,0 1.441,0.641 1.441,1.443 10e-4,0.8 -0.64,1.441 -1.441,1.441 z"
   id="path380" />
			<path
   fill="#a51848"
   d="m 529.49,327.996 c -1.559,0 -2.428,-1.146 -2.428,-3.162 v -5.451 c 0,-1.236 -0.596,-2.061 -1.695,-2.061 -1.168,0 -2.199,0.939 -2.91,2.084 v 8.406 h -1.945 v -11.75 l 1.672,-0.252 0.273,2.039 c 0.666,-1.146 1.604,-2.063 3.094,-2.063 2.016,0 3.457,1.283 3.457,3.504 v 5.521 c 0,0.893 0.139,1.672 0.895,1.672 0.389,0 0.732,-0.16 1.029,-0.322 l 0.572,1.33 c -0.504,0.322 -1.19,0.505 -2.014,0.505 z"
   id="path382" />
			<path
   fill="#a51848"
   d="m 535.945,322.934 c 0.07,1.809 0.734,3.527 2.359,3.527 1.168,0 2.176,-0.436 3.047,-0.963 l 0.871,1.49 c -1.031,0.617 -2.406,0.984 -3.895,0.984 -3.184,0 -4.535,-2.727 -4.535,-6.23 0,-3.412 1.627,-5.932 4.535,-5.932 2.291,0 4.031,1.42 4.031,3.551 0.001,2.909 -3.503,3.412 -6.413,3.573 z m 2.383,-5.635 c -1.809,0 -2.336,2.131 -2.404,4.26 1.877,-0.205 4.375,-0.389 4.375,-2.197 -10e-4,-1.192 -0.803,-2.063 -1.971,-2.063 z"
   id="path384" />
		</g>
	</g>
</g></g></svg>
