<?xml version="1.0" encoding="UTF-8" standalone="no"?>
<!-- Generator: Adobe Illustrator 16.0.0, SVG Export Plug-In . SVG Version: 6.00 Build 0)  -->

<svg
   version="1.1"
   id="neu"
   x="0px"
   y="0px"
   width="650"
   height="125"
   viewBox="0 0 649.99999 125"
   enable-background="new 0 0 603.174 125.363"
   xml:space="preserve"
   sodipodi:docname="DZP_Logo_RGB_Reduziert.svg"
   inkscape:version="1.1.2 (b8e25be833, 2022-02-05)"
   xmlns:inkscape="http://www.inkscape.org/namespaces/inkscape"
   xmlns:sodipodi="http://sodipodi.sourceforge.net/DTD/sodipodi-0.dtd"
   xmlns="http://www.w3.org/2000/svg"
   xmlns:svg="http://www.w3.org/2000/svg"><defs
   id="defs62" /><sodipodi:namedview
   id="namedview60"
   pagecolor="#ffffff"
   bordercolor="#666666"
   borderopacity="1.0"
   inkscape:pageshadow="2"
   inkscape:pageopacity="0.0"
   inkscape:pagecheckerboard="0"
   showgrid="false"
   inkscape:zoom="1.871765"
   inkscape:cx="283.95659"
   inkscape:cy="62.507847"
   inkscape:window-width="1920"
   inkscape:window-height="1017"
   inkscape:window-x="1912"
   inkscape:window-y="-8"
   inkscape:window-maximized="1"
   inkscape:current-layer="neu" />
<g
   id="g9">
	
		<linearGradient
   id="SVGID_1_"
   gradientUnits="userSpaceOnUse"
   x1="0"
   y1="-16190.738"
   x2="131.66701"
   y2="-16190.738"
   gradientTransform="matrix(1,0,0,-1,0,-16128.059)">
		<stop
   offset="0"
   style="stop-color:#2D4693"
   id="stop2" />
		<stop
   offset="1"
   style="stop-color:#1C95C2"
   id="stop4" />
	</linearGradient>
	<path
   fill-rule="evenodd"
   clip-rule="evenodd"
   fill="url(#SVGID_1_)"
   d="m 8.981,0 c 4.597,-0.003 7.363,4.918 7.363,4.918 1.887,10.738 7.621,15.647 17.176,14.721 1.839,7.395 16.613,14.133 22.081,9.817 2.787,-2.195 2.126,-14.578 2.456,-14.721 1.235,-0.578 6.59,22.417 7.218,1.669 0.018,-0.481 0.308,-0.639 0.394,-0.169 2.713,13.348 13.115,-1.281 12.02,10.762 12.163,-10.031 20.105,-9.221 26.988,-24.534 4.037,11.456 -16.703,19.232 -22.081,29.445 1.056,5.484 12.087,0.994 17.17,2.451 -20.55,-6.905 -1.952,-0.49 4.91,-9.817 -1.7,-6.119 -6.542,4.556 -12.271,2.455 C 97.161,21.883 120,13.723 124.312,0 c 4.557,8.746 -14.303,15.092 -17.183,24.542 5.551,2.038 16.507,-2.855 22.084,-12.265 4.148,14.83 -18.633,23.863 -34.35,26.988 9.724,7.164 24.753,-8.683 36.802,-2.449 -15.752,10.088 -2.185,22.901 -30.055,14.072 6.8,-2.887 9.629,-4.445 17.152,-4.585 -13.907,-3.46 -34.541,0.91 -41.075,-4.582 0.532,10.919 12.407,9.689 17.637,15.911 29.377,-6.858 -12.6,12.908 -20.089,-3.641 -5.186,-6.009 2.58,3.661 7.36,2.449 -0.498,-9.323 -10.322,-9.307 -9.822,-19.625 -7.188,2.082 2.124,8.178 0,12.267 -12.022,23.219 -10.891,64.784 -33.792,75.841 -0.273,0.133 -1.01,0.629 -1.361,0.36 -0.288,-0.228 -0.214,-1.156 -0.206,-1.589 0.133,-6.941 3.704,-18.699 12.046,-20.845 0.886,-0.224 2.159,-0.241 2.74,-0.23 C 62.326,82.482 64.797,71.188 67.872,44.176 65.983,60.751 15.374,56.42 1.622,26.996 -1.899,19.477 1.23,22.172 2.383,18.778 9.77,28.253 35.483,35.175 40.876,34.358 33.654,30.241 -4.567,21.597 8.981,0"
   id="path7" />
</g>
<g
   id="g57">
	<path
   fill="#323232"
   d="m 160.688,61.707 c 0,1.48 -0.225,2.865 -0.675,4.155 -0.45,1.29 -1.115,2.41 -1.995,3.36 -0.88,0.95 -1.96,1.7 -3.24,2.25 -1.28,0.55 -2.75,0.825 -4.41,0.825 h -4.05 v -21.39 h 4.05 c 1.74,0 3.255,0.27 4.545,0.81 1.29,0.54 2.365,1.29 3.225,2.25 0.86,0.96 1.5,2.1 1.92,3.42 0.42,1.32 0.63,2.759 0.63,4.32 z m -2.85,0 c 0,-1.22 -0.161,-2.36 -0.482,-3.42 -0.321,-1.06 -0.793,-1.975 -1.415,-2.745 -0.622,-0.77 -1.399,-1.375 -2.333,-1.815 -0.934,-0.44 -2.012,-0.66 -3.236,-0.66 h -1.385 v 16.98 h 1.385 c 1.224,0 2.302,-0.215 3.236,-0.645 0.933,-0.43 1.711,-1.02 2.333,-1.77 0.622,-0.75 1.094,-1.635 1.415,-2.655 0.321,-1.02 0.482,-2.11 0.482,-3.27 z"
   id="path11" />
	<path
   fill="#323232"
   d="m 178.441,53.096 h -8.19 v 6.72 h 6.78 l -0.36,2.25 h -6.42 v 7.92 h 8.61 l -0.33,2.31 h -10.86 v -21.42 l 11.22,0.029 z"
   id="path13" />
	<path
   fill="#323232"
   d="m 199.207,66.116 c 0,1 -0.16,1.9 -0.48,2.7 -0.32,0.8 -0.775,1.48 -1.365,2.04 -0.59,0.56 -1.305,0.99 -2.145,1.29 -0.84,0.3 -1.78,0.45 -2.82,0.45 -1.02,0 -1.94,-0.135 -2.76,-0.405 -0.82,-0.27 -1.525,-0.665 -2.115,-1.185 -0.59,-0.52 -1.045,-1.155 -1.365,-1.905 -0.32,-0.75 -0.48,-1.615 -0.48,-2.595 v -15.6 h 2.67 v 15.27 c 0,1.34 0.36,2.375 1.08,3.105 0.72,0.73 1.71,1.095 2.97,1.095 1.28,0 2.295,-0.36 3.045,-1.08 0.75,-0.72 1.125,-1.74 1.125,-3.06 v -15.33 h 2.64 z"
   id="path15" />
	<path
   fill="#323232"
   d="m 219.661,53.216 h -5.79 v 19.08 h -2.7 v -19.08 h -5.76 v -2.31 h 14.46 z"
   id="path17" />
	<path
   fill="#323232"
   d="m 236.539,54.836 c -0.7,-0.56 -1.445,-1.03 -2.235,-1.41 -0.791,-0.379 -1.625,-0.57 -2.505,-0.57 -0.46,0 -0.896,0.06 -1.305,0.18 -0.41,0.12 -0.77,0.305 -1.08,0.555 -0.31,0.25 -0.555,0.565 -0.735,0.945 -0.18,0.38 -0.27,0.82 -0.27,1.32 0,0.54 0.11,1.015 0.33,1.425 0.22,0.41 0.51,0.785 0.87,1.125 0.36,0.34 0.76,0.655 1.2,0.945 0.44,0.29 0.89,0.575 1.35,0.855 0.7,0.44 1.385,0.87 2.055,1.29 0.669,0.42 1.265,0.88 1.785,1.38 0.52,0.5 0.935,1.075 1.245,1.725 0.31,0.65 0.465,1.435 0.465,2.355 0,0.86 -0.16,1.645 -0.48,2.355 -0.32,0.71 -0.765,1.315 -1.335,1.815 -0.57,0.5 -1.245,0.89 -2.025,1.17 -0.78,0.28 -1.62,0.42 -2.52,0.42 -0.78,0 -1.495,-0.07 -2.145,-0.21 -0.65,-0.14 -1.245,-0.33 -1.785,-0.57 -0.54,-0.24 -1.04,-0.51 -1.5,-0.81 -0.46,-0.3 -0.89,-0.62 -1.29,-0.96 l 1.62,-2.1 c 0.32,0.28 0.665,0.56 1.035,0.84 0.37,0.28 0.77,0.54 1.2,0.78 0.43,0.24 0.895,0.435 1.395,0.585 0.5,0.15 1.04,0.225 1.62,0.225 0.98,0 1.79,-0.295 2.43,-0.885 0.64,-0.59 0.96,-1.365 0.96,-2.325 0,-0.62 -0.13,-1.165 -0.39,-1.635 -0.26,-0.47 -0.605,-0.89 -1.035,-1.26 -0.431,-0.37 -0.92,-0.715 -1.47,-1.035 -0.55,-0.32 -1.105,-0.65 -1.665,-0.99 -0.58,-0.36 -1.15,-0.735 -1.71,-1.125 -0.56,-0.39 -1.065,-0.83 -1.515,-1.32 -0.45,-0.49 -0.815,-1.05 -1.095,-1.68 -0.28,-0.63 -0.42,-1.365 -0.42,-2.205 0,-0.86 0.175,-1.63 0.525,-2.31 0.35,-0.68 0.805,-1.255 1.365,-1.725 0.56,-0.47 1.2,-0.825 1.92,-1.065 0.72,-0.24 1.46,-0.36 2.22,-0.36 1.28,0 2.465,0.221 3.555,0.66 1.09,0.44 2.055,0.99 2.895,1.65 z"
   id="path19" />
	<path
   fill="#323232"
   d="m 256.455,55.106 c -0.48,-0.68 -1.065,-1.225 -1.755,-1.635 -0.69,-0.41 -1.515,-0.615 -2.475,-0.615 -0.88,0 -1.635,0.25 -2.265,0.75 -0.63,0.5 -1.145,1.165 -1.545,1.995 -0.4,0.83 -0.69,1.785 -0.87,2.865 -0.18,1.08 -0.27,2.21 -0.27,3.39 0,1.16 0.09,2.26 0.27,3.3 0.18,1.041 0.475,1.955 0.885,2.745 0.41,0.791 0.935,1.42 1.575,1.89 0.64,0.47 1.42,0.705 2.34,0.705 0.98,0 1.785,-0.18 2.415,-0.54 0.63,-0.36 1.215,-0.77 1.755,-1.23 l 1.77,1.77 c -0.64,0.62 -1.46,1.145 -2.46,1.575 -1,0.43 -2.16,0.645 -3.48,0.645 -1.42,0 -2.64,-0.275 -3.66,-0.825 -1.02,-0.55 -1.85,-1.31 -2.49,-2.28 -0.64,-0.97 -1.11,-2.115 -1.41,-3.435 -0.3,-1.32 -0.45,-2.76 -0.45,-4.32 0,-1.64 0.175,-3.145 0.525,-4.515 0.35,-1.37 0.86,-2.55 1.53,-3.54 0.669,-0.99 1.504,-1.765 2.505,-2.325 1,-0.56 2.149,-0.84 3.45,-0.84 1.4,0 2.61,0.28 3.63,0.84 1.02,0.56 1.87,1.27 2.55,2.13 z"
   id="path21" />
	<path
   fill="#323232"
   d="m 277.008,72.296 v -10.2 h -9.51 v 10.2 h -2.64 v -21.42 h 2.67 v 9.06 h 9.48 v -9.06 h 2.61 v 21.42 z"
   id="path23" />
	<path
   fill="#323232"
   d="m 298.572,53.096 h -8.19 v 6.72 h 6.78 l -0.36,2.25 h -6.42 v 7.92 h 8.61 l -0.33,2.31 h -10.86 v -21.42 l 11.22,0.029 z"
   id="path25" />
	<path
   fill="#323232"
   d="m 317.265,54.836 c -0.7,-0.56 -1.445,-1.03 -2.235,-1.41 -0.791,-0.379 -1.625,-0.57 -2.505,-0.57 -0.46,0 -0.896,0.06 -1.305,0.18 -0.41,0.12 -0.77,0.305 -1.08,0.555 -0.31,0.25 -0.555,0.565 -0.735,0.945 -0.18,0.38 -0.27,0.82 -0.27,1.32 0,0.54 0.11,1.015 0.33,1.425 0.22,0.41 0.51,0.785 0.87,1.125 0.36,0.34 0.76,0.655 1.2,0.945 0.44,0.29 0.89,0.575 1.35,0.855 0.7,0.44 1.385,0.87 2.055,1.29 0.669,0.42 1.265,0.88 1.785,1.38 0.52,0.5 0.935,1.075 1.245,1.725 0.31,0.65 0.465,1.435 0.465,2.355 0,0.86 -0.16,1.645 -0.48,2.355 -0.32,0.71 -0.765,1.315 -1.335,1.815 -0.57,0.5 -1.245,0.89 -2.025,1.17 -0.78,0.28 -1.62,0.42 -2.52,0.42 -0.78,0 -1.495,-0.07 -2.145,-0.21 -0.65,-0.14 -1.245,-0.33 -1.785,-0.57 -0.54,-0.24 -1.04,-0.51 -1.5,-0.81 -0.46,-0.3 -0.89,-0.62 -1.29,-0.96 l 1.62,-2.1 c 0.32,0.28 0.665,0.56 1.035,0.84 0.37,0.28 0.77,0.54 1.2,0.78 0.43,0.24 0.895,0.435 1.395,0.585 0.5,0.15 1.04,0.225 1.62,0.225 0.98,0 1.79,-0.295 2.43,-0.885 0.64,-0.59 0.96,-1.365 0.96,-2.325 0,-0.62 -0.13,-1.165 -0.39,-1.635 -0.26,-0.47 -0.605,-0.89 -1.035,-1.26 -0.431,-0.37 -0.92,-0.715 -1.47,-1.035 -0.55,-0.32 -1.105,-0.65 -1.665,-0.99 -0.58,-0.36 -1.15,-0.735 -1.71,-1.125 -0.56,-0.39 -1.065,-0.83 -1.515,-1.32 -0.45,-0.49 -0.815,-1.05 -1.095,-1.68 -0.28,-0.63 -0.42,-1.365 -0.42,-2.205 0,-0.86 0.175,-1.63 0.525,-2.31 0.35,-0.68 0.805,-1.255 1.365,-1.725 0.56,-0.47 1.2,-0.825 1.92,-1.065 0.72,-0.24 1.46,-0.36 2.22,-0.36 1.28,0 2.465,0.221 3.555,0.66 1.09,0.44 2.055,0.99 2.895,1.65 z"
   id="path27" />
	<path
   fill="#323232"
   d="m 336.914,72.296 c 0,-1.417 0.125,-2.676 0.375,-3.774 0.25,-1.098 0.604,-2.097 1.065,-2.995 0.46,-0.899 1.03,-1.737 1.71,-2.517 0.68,-0.778 1.459,-1.557 2.34,-2.336 0.68,-0.619 1.301,-1.208 1.859,-1.767 0.561,-0.559 1.041,-1.133 1.441,-1.723 0.398,-0.588 0.709,-1.198 0.93,-1.827 0.219,-0.629 0.33,-1.323 0.33,-2.082 h -9.72 v -2.37 h 12.48 c 0,1.403 -0.09,2.604 -0.27,3.606 -0.18,1.002 -0.477,1.913 -0.885,2.734 -0.41,0.821 -0.945,1.608 -1.605,2.359 -0.66,0.751 -1.461,1.558 -2.4,2.419 -0.619,0.581 -1.221,1.167 -1.801,1.758 -0.58,0.591 -1.09,1.207 -1.529,1.848 -0.439,0.641 -0.795,1.317 -1.065,2.028 -0.27,0.711 -0.405,1.467 -0.405,2.268 h 10.261 v 2.37 h -13.111 z"
   id="path29" />
	<path
   fill="#323232"
   d="m 367.579,53.096 h -8.189 v 6.72 h 6.779 l -0.359,2.25 h -6.42 v 7.92 h 8.609 l -0.33,2.31 H 356.81 v -21.42 l 11.22,0.029 z"
   id="path31" />
	<path
   fill="#323232"
   d="m 374.816,72.296 v -21.39 h 2.609 v 21.39 z"
   id="path33" />
	<path
   fill="#323232"
   d="m 397.879,53.216 h -5.79 v 19.08 h -2.7 v -19.08 h -5.76 v -2.31 h 14.46 z"
   id="path35" />
	<path
   fill="#323232"
   d="m 417.661,66.116 c 0,1 -0.161,1.9 -0.48,2.7 -0.32,0.8 -0.775,1.48 -1.365,2.04 -0.59,0.56 -1.305,0.99 -2.145,1.29 -0.84,0.3 -1.78,0.45 -2.82,0.45 -1.02,0 -1.94,-0.135 -2.76,-0.405 -0.82,-0.27 -1.525,-0.665 -2.115,-1.185 -0.59,-0.52 -1.045,-1.155 -1.365,-1.905 -0.319,-0.75 -0.479,-1.615 -0.479,-2.595 v -15.6 h 2.67 v 15.27 c 0,1.34 0.36,2.375 1.08,3.105 0.72,0.73 1.71,1.095 2.97,1.095 1.28,0 2.295,-0.36 3.045,-1.08 0.75,-0.72 1.125,-1.74 1.125,-3.06 v -15.33 h 2.641 v 15.21 z"
   id="path37" />
	<path
   fill="#323232"
   d="m 436.831,72.296 -6.66,-13.83 c -0.24,-0.5 -0.439,-0.94 -0.6,-1.32 -0.161,-0.38 -0.306,-0.74 -0.436,-1.08 -0.13,-0.34 -0.26,-0.685 -0.39,-1.035 -0.13,-0.35 -0.295,-0.754 -0.495,-1.215 -0.04,1.02 -0.035,2.04 0.016,3.06 0.049,1.02 0.074,2.16 0.074,3.42 v 12 h -2.52 v -20.67 l 3.09,-1.14 6.93,14.22 c 0.44,0.9 0.825,1.78 1.155,2.64 0.33,0.86 0.715,1.74 1.155,2.64 0.02,-1.02 0.01,-2.07 -0.03,-3.15 -0.04,-1.08 -0.06,-2.16 -0.06,-3.24 v -12.69 h 2.52 v 21.39 z"
   id="path39" />
	<path
   fill="#323232"
   d="m 460.891,54.836 c -0.641,-0.64 -1.355,-1.15 -2.146,-1.53 -0.79,-0.379 -1.675,-0.57 -2.654,-0.57 -0.921,0 -1.7,0.235 -2.34,0.705 -0.641,0.47 -1.166,1.105 -1.575,1.905 -0.41,0.8 -0.705,1.721 -0.886,2.76 -0.18,1.04 -0.27,2.14 -0.27,3.3 0,1.181 0.085,2.315 0.255,3.405 0.17,1.09 0.45,2.055 0.84,2.895 0.391,0.84 0.905,1.51 1.545,2.01 0.641,0.5 1.43,0.75 2.37,0.75 0.7,0 1.37,-0.04 2.01,-0.12 0.641,-0.08 1.23,-0.2 1.771,-0.36 v -7.89 h -4.08 l 0.36,-2.1 h 6.239 v 11.01 c -0.76,0.48 -1.689,0.87 -2.79,1.17 -1.1,0.3 -2.27,0.45 -3.51,0.45 -1.42,0 -2.63,-0.29 -3.63,-0.87 -1,-0.58 -1.82,-1.37 -2.46,-2.37 -0.641,-1 -1.11,-2.185 -1.41,-3.555 -0.3,-1.37 -0.45,-2.845 -0.45,-4.425 0,-1.58 0.175,-3.03 0.525,-4.35 0.35,-1.32 0.859,-2.46 1.53,-3.42 0.67,-0.96 1.505,-1.71 2.505,-2.25 1,-0.54 2.149,-0.81 3.45,-0.81 1.439,0 2.694,0.235 3.765,0.705 1.069,0.47 2.015,1.125 2.835,1.965 z"
   id="path41" />
	<path
   fill="#323232"
   d="m 481.126,54.836 c -0.7,-0.56 -1.445,-1.03 -2.235,-1.41 -0.79,-0.379 -1.625,-0.57 -2.505,-0.57 -0.46,0 -0.895,0.06 -1.305,0.18 -0.41,0.12 -0.771,0.305 -1.08,0.555 -0.311,0.25 -0.555,0.565 -0.735,0.945 -0.18,0.38 -0.27,0.82 -0.27,1.32 0,0.54 0.109,1.015 0.33,1.425 0.22,0.41 0.51,0.785 0.87,1.125 0.359,0.34 0.76,0.655 1.2,0.945 0.439,0.29 0.89,0.575 1.35,0.855 0.7,0.44 1.385,0.87 2.055,1.29 0.67,0.42 1.265,0.88 1.785,1.38 0.52,0.5 0.935,1.075 1.245,1.725 0.31,0.65 0.465,1.435 0.465,2.355 0,0.86 -0.16,1.645 -0.479,2.355 -0.32,0.71 -0.766,1.315 -1.335,1.815 -0.57,0.5 -1.245,0.89 -2.025,1.17 -0.78,0.28 -1.62,0.42 -2.52,0.42 -0.78,0 -1.496,-0.07 -2.146,-0.21 -0.65,-0.14 -1.245,-0.33 -1.785,-0.57 -0.54,-0.24 -1.04,-0.51 -1.5,-0.81 -0.46,-0.3 -0.89,-0.62 -1.29,-0.96 l 1.62,-2.1 c 0.319,0.28 0.665,0.56 1.035,0.84 0.37,0.28 0.77,0.54 1.2,0.78 0.43,0.24 0.895,0.435 1.395,0.585 0.5,0.15 1.04,0.225 1.62,0.225 0.979,0 1.79,-0.295 2.43,-0.885 0.641,-0.59 0.96,-1.365 0.96,-2.325 0,-0.62 -0.13,-1.165 -0.39,-1.635 -0.26,-0.47 -0.605,-0.89 -1.035,-1.26 -0.43,-0.37 -0.92,-0.715 -1.47,-1.035 -0.551,-0.32 -1.105,-0.65 -1.665,-0.99 -0.58,-0.36 -1.15,-0.735 -1.71,-1.125 -0.561,-0.39 -1.065,-0.83 -1.515,-1.32 -0.45,-0.49 -0.815,-1.05 -1.096,-1.68 -0.28,-0.63 -0.42,-1.365 -0.42,-2.205 0,-0.86 0.175,-1.63 0.525,-2.31 0.35,-0.68 0.805,-1.255 1.365,-1.725 0.56,-0.47 1.199,-0.825 1.92,-1.065 0.72,-0.24 1.459,-0.36 2.22,-0.36 1.279,0 2.465,0.221 3.555,0.66 1.09,0.44 2.056,0.99 2.896,1.65 z"
   id="path43" />
	<path
   fill="#323232"
   d="m 501.766,57.176 c 0,0.94 -0.195,1.79 -0.585,2.55 -0.39,0.76 -0.925,1.41 -1.604,1.95 -0.681,0.54 -1.496,0.956 -2.445,1.245 -0.95,0.29 -1.976,0.435 -3.075,0.435 h -1.89 v 8.94 h -2.58 v -21.39 h 4.77 c 2.34,0 4.16,0.56 5.46,1.68 1.3,1.12 1.949,2.651 1.949,4.59 z m -2.85,0 c 0,-1.32 -0.391,-2.355 -1.17,-3.105 -0.78,-0.75 -1.91,-1.125 -3.391,-1.125 h -2.189 v 8.34 h 1.89 c 0.72,0 1.375,-0.09 1.965,-0.27 0.59,-0.18 1.1,-0.445 1.53,-0.795 0.43,-0.35 0.765,-0.78 1.005,-1.29 0.24,-0.51 0.36,-1.095 0.36,-1.755 z"
   id="path45" />
	<path
   fill="#323232"
   d="m 524.293,61.556 c 0,1.541 -0.161,2.98 -0.48,4.32 -0.32,1.34 -0.815,2.51 -1.485,3.51 -0.67,1 -1.51,1.791 -2.52,2.37 -1.011,0.58 -2.205,0.87 -3.585,0.87 -1.4,0 -2.61,-0.266 -3.63,-0.795 -1.021,-0.53 -1.86,-1.28 -2.521,-2.25 -0.661,-0.97 -1.15,-2.13 -1.47,-3.48 -0.32,-1.35 -0.48,-2.855 -0.48,-4.515 0,-1.58 0.165,-3.04 0.495,-4.38 0.33,-1.34 0.825,-2.505 1.485,-3.495 0.66,-0.99 1.5,-1.765 2.52,-2.325 1.021,-0.56 2.221,-0.84 3.601,-0.84 1.399,0 2.609,0.29 3.63,0.87 1.02,0.58 1.86,1.37 2.52,2.37 0.66,1 1.146,2.165 1.455,3.495 0.31,1.331 0.465,2.756 0.465,4.275 z m -2.94,0.03 c 0,-1.2 -0.105,-2.345 -0.315,-3.435 -0.21,-1.09 -0.524,-2.05 -0.944,-2.88 -0.42,-0.83 -0.956,-1.49 -1.605,-1.98 -0.65,-0.49 -1.405,-0.735 -2.265,-0.735 -0.92,0 -1.705,0.246 -2.355,0.735 -0.649,0.49 -1.185,1.15 -1.604,1.98 -0.42,0.83 -0.726,1.79 -0.915,2.88 -0.19,1.09 -0.285,2.235 -0.285,3.435 0,1.28 0.095,2.47 0.285,3.57 0.189,1.1 0.489,2.055 0.899,2.865 0.41,0.81 0.94,1.45 1.591,1.92 0.649,0.47 1.444,0.705 2.385,0.705 0.939,0 1.734,-0.24 2.385,-0.72 0.649,-0.48 1.18,-1.135 1.59,-1.965 0.41,-0.83 0.705,-1.79 0.885,-2.88 0.178,-1.089 0.268,-2.254 0.268,-3.495 z"
   id="path47" />
	<path
   fill="#323232"
   d="m 547.191,71.876 c -0.301,0.22 -0.676,0.395 -1.125,0.525 -0.45,0.13 -0.936,0.195 -1.455,0.195 -1.261,0 -2.19,-0.34 -2.79,-1.02 -0.601,-0.68 -0.9,-1.66 -0.9,-2.94 v -2.1 c 0,-0.66 -0.11,-1.265 -0.33,-1.815 -0.22,-0.55 -0.535,-1.015 -0.944,-1.395 -0.41,-0.379 -0.891,-0.675 -1.44,-0.885 -0.551,-0.21 -1.155,-0.315 -1.815,-0.315 h -1.979 v 10.17 h -2.67 v -21.42 h 5.01 c 1.1,0 2.104,0.115 3.015,0.345 0.91,0.23 1.69,0.575 2.341,1.035 0.649,0.46 1.154,1.04 1.515,1.74 0.361,0.7 0.54,1.51 0.54,2.43 0,0.641 -0.115,1.226 -0.345,1.755 -0.23,0.53 -0.536,0.996 -0.915,1.395 -0.381,0.4 -0.806,0.74 -1.275,1.02 -0.47,0.28 -0.955,0.48 -1.455,0.6 1.141,0.4 1.99,1.075 2.55,2.025 0.56,0.95 0.841,2.055 0.841,3.315 v 1.92 c 0,0.54 0.079,1.01 0.239,1.41 0.16,0.4 0.48,0.6 0.96,0.6 0.34,0 0.62,-0.04 0.84,-0.12 0.221,-0.08 0.44,-0.18 0.66,-0.3 z m -5.85,-15.419 c 0,-0.6 -0.12,-1.115 -0.359,-1.545 -0.24,-0.43 -0.565,-0.785 -0.976,-1.065 -0.41,-0.28 -0.896,-0.49 -1.455,-0.63 -0.56,-0.14 -1.16,-0.21 -1.8,-0.21 h -2.34 v 6.93 h 2.37 c 1.319,0 2.409,-0.295 3.27,-0.885 0.86,-0.59 1.29,-1.456 1.29,-2.595 z"
   id="path49" />
	<path
   fill="#323232"
   d="m 564.126,53.216 h -5.79 v 19.08 h -2.7 v -19.08 h -5.76 v -2.31 h 14.46 z"
   id="path51" />
	<path
   fill="#323232"
   d="m 580.387,72.296 -1.59,-5.91 h -7.92 l -1.74,5.91 h -2.851 l 6.931,-21.39 h 3.84 l 6.12,21.39 z m -4.981,-19.379 h -0.54 l -3.33,11.34 h 6.75 z"
   id="path53" />
	<path
   fill="#323232"
   d="m 600.055,72.296 h -10.53 v -21.39 h 2.58 v 19.17 h 8.16 z"
   id="path55" />
</g>
</svg>
