<?xml version="1.0" encoding="utf-8"?>
<!-- Generator: Adobe Illustrator 16.0.0, SVG Export Plug-In . SVG Version: 6.00 Build 0)  -->
<!DOCTYPE svg PUBLIC "-//W3C//DTD SVG 1.1//EN" "http://www.w3.org/Graphics/SVG/1.1/DTD/svg11.dtd">
<svg version="1.1" id="neu" xmlns="http://www.w3.org/2000/svg" xmlns:xlink="http://www.w3.org/1999/xlink" x="0px" y="0px"
	 width="603.174px" height="125.363px" viewBox="0 0 603.174 125.363" enable-background="new 0 0 603.174 125.363"
	 xml:space="preserve">
<g>
	
		<linearGradient id="SVGID_1_" gradientUnits="userSpaceOnUse" x1="0" y1="-16190.7383" x2="131.667" y2="-16190.7383" gradientTransform="matrix(1 0 0 -1 0 -16128.0586)">
		<stop  offset="0" style="stop-color:#2D4693"/>
		<stop  offset="1" style="stop-color:#1C95C2"/>
	</linearGradient>
	<path fill-rule="evenodd" clip-rule="evenodd" fill="url(#SVGID_1_)" d="M8.981,0c4.597-0.003,7.363,4.918,7.363,4.918
		c1.887,10.738,7.621,15.647,17.176,14.721c1.839,7.395,16.613,14.133,22.081,9.817c2.787-2.195,2.126-14.578,2.456-14.721
		c1.235-0.578,6.59,22.417,7.218,1.669c0.018-0.481,0.308-0.639,0.394-0.169c2.713,13.348,13.115-1.281,12.02,10.762
		c12.163-10.031,20.105-9.221,26.988-24.534c4.037,11.456-16.703,19.232-22.081,29.445c1.056,5.484,12.087,0.994,17.17,2.451
		c-20.55-6.905-1.952-0.49,4.91-9.817c-1.7-6.119-6.542,4.556-12.271,2.455C97.161,21.883,120,13.723,124.312,0
		c4.557,8.746-14.303,15.092-17.183,24.542c5.551,2.038,16.507-2.855,22.084-12.265c4.148,14.83-18.633,23.863-34.35,26.988
		c9.724,7.164,24.753-8.683,36.802-2.449c-15.752,10.088-2.185,22.901-30.055,14.072c6.8-2.887,9.629-4.445,17.152-4.585
		c-13.907-3.46-34.541,0.91-41.075-4.582c0.532,10.919,12.407,9.689,17.637,15.911c29.377-6.858-12.6,12.908-20.089-3.641
		c-5.186-6.009,2.58,3.661,7.36,2.449c-0.498-9.323-10.322-9.307-9.822-19.625c-7.188,2.082,2.124,8.178,0,12.267
		c-12.022,23.219-10.891,64.784-33.792,75.841c-0.273,0.133-1.01,0.629-1.361,0.36c-0.288-0.228-0.214-1.156-0.206-1.589
		c0.133-6.941,3.704-18.699,12.046-20.845c0.886-0.224,2.159-0.241,2.74-0.23c10.126-20.137,12.597-31.431,15.672-58.443
		c-1.889,16.575-52.498,12.244-66.25-17.18c-3.521-7.519-0.392-4.824,0.761-8.218c7.387,9.475,33.1,16.397,38.493,15.58
		C33.654,30.241-4.567,21.597,8.981,0"/>
</g>
<g>
	<path fill="#323232" d="M160.688,61.707c0,1.48-0.225,2.865-0.675,4.155s-1.115,2.41-1.995,3.36c-0.88,0.95-1.96,1.7-3.24,2.25
		c-1.28,0.55-2.75,0.825-4.41,0.825h-4.05v-21.39h4.05c1.74,0,3.255,0.27,4.545,0.81s2.365,1.29,3.225,2.25
		c0.86,0.96,1.5,2.1,1.92,3.42C160.478,58.707,160.688,60.146,160.688,61.707z M157.838,61.707c0-1.22-0.161-2.36-0.482-3.42
		c-0.321-1.06-0.793-1.975-1.415-2.745c-0.622-0.77-1.399-1.375-2.333-1.815c-0.934-0.44-2.012-0.66-3.236-0.66h-1.385v16.98h1.385
		c1.224,0,2.302-0.215,3.236-0.645c0.933-0.43,1.711-1.02,2.333-1.77c0.622-0.75,1.094-1.635,1.415-2.655
		C157.677,63.957,157.838,62.867,157.838,61.707z"/>
	<path fill="#323232" d="M178.441,53.096h-8.19v6.72h6.78l-0.36,2.25h-6.42v7.92h8.61l-0.33,2.31h-10.86v-21.42l11.22,0.029
		L178.441,53.096z"/>
	<path fill="#323232" d="M199.207,66.116c0,1-0.16,1.9-0.48,2.7c-0.32,0.8-0.775,1.48-1.365,2.04c-0.59,0.56-1.305,0.99-2.145,1.29
		c-0.84,0.3-1.78,0.45-2.82,0.45c-1.02,0-1.94-0.135-2.76-0.405c-0.82-0.27-1.525-0.665-2.115-1.185
		c-0.59-0.52-1.045-1.155-1.365-1.905c-0.32-0.75-0.48-1.615-0.48-2.595v-15.6h2.67v15.27c0,1.34,0.36,2.375,1.08,3.105
		c0.72,0.73,1.71,1.095,2.97,1.095c1.28,0,2.295-0.36,3.045-1.08s1.125-1.74,1.125-3.06v-15.33h2.64V66.116z"/>
	<path fill="#323232" d="M219.661,53.216h-5.79v19.08h-2.7v-19.08h-5.76v-2.31h14.46L219.661,53.216z"/>
	<path fill="#323232" d="M236.539,54.836c-0.7-0.56-1.445-1.03-2.235-1.41c-0.791-0.379-1.625-0.57-2.505-0.57
		c-0.46,0-0.896,0.06-1.305,0.18c-0.41,0.12-0.77,0.305-1.08,0.555c-0.31,0.25-0.555,0.565-0.735,0.945s-0.27,0.82-0.27,1.32
		c0,0.54,0.11,1.015,0.33,1.425c0.22,0.41,0.51,0.785,0.87,1.125c0.36,0.34,0.76,0.655,1.2,0.945s0.89,0.575,1.35,0.855
		c0.7,0.44,1.385,0.87,2.055,1.29c0.669,0.42,1.265,0.88,1.785,1.38s0.935,1.075,1.245,1.725c0.31,0.65,0.465,1.435,0.465,2.355
		c0,0.86-0.16,1.645-0.48,2.355s-0.765,1.315-1.335,1.815c-0.57,0.5-1.245,0.89-2.025,1.17s-1.62,0.42-2.52,0.42
		c-0.78,0-1.495-0.07-2.145-0.21c-0.65-0.14-1.245-0.33-1.785-0.57c-0.54-0.24-1.04-0.51-1.5-0.81c-0.46-0.3-0.89-0.62-1.29-0.96
		l1.62-2.1c0.32,0.28,0.665,0.56,1.035,0.84c0.37,0.28,0.77,0.54,1.2,0.78c0.43,0.24,0.895,0.435,1.395,0.585s1.04,0.225,1.62,0.225
		c0.98,0,1.79-0.295,2.43-0.885c0.64-0.59,0.96-1.365,0.96-2.325c0-0.62-0.13-1.165-0.39-1.635c-0.26-0.47-0.605-0.89-1.035-1.26
		c-0.431-0.37-0.92-0.715-1.47-1.035c-0.55-0.32-1.105-0.65-1.665-0.99c-0.58-0.36-1.15-0.735-1.71-1.125
		c-0.56-0.39-1.065-0.83-1.515-1.32c-0.45-0.49-0.815-1.05-1.095-1.68c-0.28-0.63-0.42-1.365-0.42-2.205
		c0-0.86,0.175-1.63,0.525-2.31c0.35-0.68,0.805-1.255,1.365-1.725c0.56-0.47,1.2-0.825,1.92-1.065c0.72-0.24,1.46-0.36,2.22-0.36
		c1.28,0,2.465,0.221,3.555,0.66c1.09,0.44,2.055,0.99,2.895,1.65L236.539,54.836z"/>
	<path fill="#323232" d="M256.455,55.106c-0.48-0.68-1.065-1.225-1.755-1.635c-0.69-0.41-1.515-0.615-2.475-0.615
		c-0.88,0-1.635,0.25-2.265,0.75c-0.63,0.5-1.145,1.165-1.545,1.995c-0.4,0.83-0.69,1.785-0.87,2.865s-0.27,2.21-0.27,3.39
		c0,1.16,0.09,2.26,0.27,3.3c0.18,1.041,0.475,1.955,0.885,2.745c0.41,0.791,0.935,1.42,1.575,1.89c0.64,0.47,1.42,0.705,2.34,0.705
		c0.98,0,1.785-0.18,2.415-0.54c0.63-0.36,1.215-0.77,1.755-1.23l1.77,1.77c-0.64,0.62-1.46,1.145-2.46,1.575
		c-1,0.43-2.16,0.645-3.48,0.645c-1.42,0-2.64-0.275-3.66-0.825c-1.02-0.55-1.85-1.31-2.49-2.28c-0.64-0.97-1.11-2.115-1.41-3.435
		c-0.3-1.32-0.45-2.76-0.45-4.32c0-1.64,0.175-3.145,0.525-4.515c0.35-1.37,0.86-2.55,1.53-3.54c0.669-0.99,1.504-1.765,2.505-2.325
		c1-0.56,2.149-0.84,3.45-0.84c1.4,0,2.61,0.28,3.63,0.84s1.87,1.27,2.55,2.13L256.455,55.106z"/>
	<path fill="#323232" d="M277.008,72.296v-10.2h-9.51v10.2h-2.64v-21.42h2.67v9.06h9.48v-9.06h2.61v21.42H277.008z"/>
	<path fill="#323232" d="M298.572,53.096h-8.19v6.72h6.78l-0.36,2.25h-6.42v7.92h8.61l-0.33,2.31h-10.86v-21.42l11.22,0.029
		L298.572,53.096z"/>
	<path fill="#323232" d="M317.265,54.836c-0.7-0.56-1.445-1.03-2.235-1.41c-0.791-0.379-1.625-0.57-2.505-0.57
		c-0.46,0-0.896,0.06-1.305,0.18c-0.41,0.12-0.77,0.305-1.08,0.555c-0.31,0.25-0.555,0.565-0.735,0.945s-0.27,0.82-0.27,1.32
		c0,0.54,0.11,1.015,0.33,1.425c0.22,0.41,0.51,0.785,0.87,1.125c0.36,0.34,0.76,0.655,1.2,0.945s0.89,0.575,1.35,0.855
		c0.7,0.44,1.385,0.87,2.055,1.29c0.669,0.42,1.265,0.88,1.785,1.38s0.935,1.075,1.245,1.725c0.31,0.65,0.465,1.435,0.465,2.355
		c0,0.86-0.16,1.645-0.48,2.355s-0.765,1.315-1.335,1.815c-0.57,0.5-1.245,0.89-2.025,1.17s-1.62,0.42-2.52,0.42
		c-0.78,0-1.495-0.07-2.145-0.21c-0.65-0.14-1.245-0.33-1.785-0.57c-0.54-0.24-1.04-0.51-1.5-0.81c-0.46-0.3-0.89-0.62-1.29-0.96
		l1.62-2.1c0.32,0.28,0.665,0.56,1.035,0.84c0.37,0.28,0.77,0.54,1.2,0.78c0.43,0.24,0.895,0.435,1.395,0.585s1.04,0.225,1.62,0.225
		c0.98,0,1.79-0.295,2.43-0.885c0.64-0.59,0.96-1.365,0.96-2.325c0-0.62-0.13-1.165-0.39-1.635c-0.26-0.47-0.605-0.89-1.035-1.26
		c-0.431-0.37-0.92-0.715-1.47-1.035c-0.55-0.32-1.105-0.65-1.665-0.99c-0.58-0.36-1.15-0.735-1.71-1.125
		c-0.56-0.39-1.065-0.83-1.515-1.32c-0.45-0.49-0.815-1.05-1.095-1.68c-0.28-0.63-0.42-1.365-0.42-2.205
		c0-0.86,0.175-1.63,0.525-2.31c0.35-0.68,0.805-1.255,1.365-1.725c0.56-0.47,1.2-0.825,1.92-1.065c0.72-0.24,1.46-0.36,2.22-0.36
		c1.28,0,2.465,0.221,3.555,0.66c1.09,0.44,2.055,0.99,2.895,1.65L317.265,54.836z"/>
	<path fill="#323232" d="M336.914,72.296c0-1.417,0.125-2.676,0.375-3.774c0.25-1.098,0.604-2.097,1.065-2.995
		c0.46-0.899,1.03-1.737,1.71-2.517c0.68-0.778,1.459-1.557,2.34-2.336c0.68-0.619,1.301-1.208,1.859-1.767
		c0.561-0.559,1.041-1.133,1.441-1.723c0.398-0.588,0.709-1.198,0.93-1.827c0.219-0.629,0.33-1.323,0.33-2.082h-9.72v-2.37h12.48
		c0,1.403-0.09,2.604-0.27,3.606s-0.477,1.913-0.885,2.734c-0.41,0.821-0.945,1.608-1.605,2.359c-0.66,0.751-1.461,1.558-2.4,2.419
		c-0.619,0.581-1.221,1.167-1.801,1.758s-1.09,1.207-1.529,1.848s-0.795,1.317-1.065,2.028c-0.27,0.711-0.405,1.467-0.405,2.268
		h10.261v2.37H336.914z"/>
	<path fill="#323232" d="M367.579,53.096h-8.189v6.72h6.779l-0.359,2.25h-6.42v7.92h8.609l-0.33,2.31H356.81v-21.42l11.22,0.029
		L367.579,53.096z"/>
	<path fill="#323232" d="M374.816,72.296v-21.39h2.609v21.39H374.816z"/>
	<path fill="#323232" d="M397.879,53.216h-5.79v19.08h-2.7v-19.08h-5.76v-2.31h14.46L397.879,53.216z"/>
	<path fill="#323232" d="M417.661,66.116c0,1-0.161,1.9-0.48,2.7c-0.32,0.8-0.775,1.48-1.365,2.04c-0.59,0.56-1.305,0.99-2.145,1.29
		c-0.84,0.3-1.78,0.45-2.82,0.45c-1.02,0-1.94-0.135-2.76-0.405c-0.82-0.27-1.525-0.665-2.115-1.185
		c-0.59-0.52-1.045-1.155-1.365-1.905c-0.319-0.75-0.479-1.615-0.479-2.595v-15.6h2.67v15.27c0,1.34,0.36,2.375,1.08,3.105
		c0.72,0.73,1.71,1.095,2.97,1.095c1.28,0,2.295-0.36,3.045-1.08s1.125-1.74,1.125-3.06v-15.33h2.641V66.116z"/>
	<path fill="#323232" d="M436.831,72.296l-6.66-13.83c-0.24-0.5-0.439-0.94-0.6-1.32s-0.306-0.74-0.436-1.08
		c-0.13-0.34-0.26-0.685-0.39-1.035c-0.13-0.35-0.295-0.754-0.495-1.215c-0.04,1.02-0.035,2.04,0.016,3.06
		c0.049,1.02,0.074,2.16,0.074,3.42v12h-2.52v-20.67l3.09-1.14l6.93,14.22c0.44,0.9,0.825,1.78,1.155,2.64
		c0.33,0.86,0.715,1.74,1.155,2.64c0.02-1.02,0.01-2.07-0.03-3.15s-0.06-2.16-0.06-3.24v-12.69h2.52v21.39H436.831z"/>
	<path fill="#323232" d="M460.891,54.836c-0.641-0.64-1.355-1.15-2.146-1.53c-0.79-0.379-1.675-0.57-2.654-0.57
		c-0.921,0-1.7,0.235-2.34,0.705c-0.641,0.47-1.166,1.105-1.575,1.905c-0.41,0.8-0.705,1.721-0.886,2.76
		c-0.18,1.04-0.27,2.14-0.27,3.3c0,1.181,0.085,2.315,0.255,3.405c0.17,1.09,0.45,2.055,0.84,2.895
		c0.391,0.84,0.905,1.51,1.545,2.01c0.641,0.5,1.43,0.75,2.37,0.75c0.7,0,1.37-0.04,2.01-0.12c0.641-0.08,1.23-0.2,1.771-0.36v-7.89
		h-4.08l0.36-2.1h6.239v11.01c-0.76,0.48-1.689,0.87-2.79,1.17c-1.1,0.3-2.27,0.45-3.51,0.45c-1.42,0-2.63-0.29-3.63-0.87
		c-1-0.58-1.82-1.37-2.46-2.37c-0.641-1-1.11-2.185-1.41-3.555c-0.3-1.37-0.45-2.845-0.45-4.425c0-1.58,0.175-3.03,0.525-4.35
		c0.35-1.32,0.859-2.46,1.53-3.42c0.67-0.96,1.505-1.71,2.505-2.25s2.149-0.81,3.45-0.81c1.439,0,2.694,0.235,3.765,0.705
		c1.069,0.47,2.015,1.125,2.835,1.965L460.891,54.836z"/>
	<path fill="#323232" d="M481.126,54.836c-0.7-0.56-1.445-1.03-2.235-1.41c-0.79-0.379-1.625-0.57-2.505-0.57
		c-0.46,0-0.895,0.06-1.305,0.18c-0.41,0.12-0.771,0.305-1.08,0.555c-0.311,0.25-0.555,0.565-0.735,0.945
		c-0.18,0.38-0.27,0.82-0.27,1.32c0,0.54,0.109,1.015,0.33,1.425c0.22,0.41,0.51,0.785,0.87,1.125c0.359,0.34,0.76,0.655,1.2,0.945
		c0.439,0.29,0.89,0.575,1.35,0.855c0.7,0.44,1.385,0.87,2.055,1.29c0.67,0.42,1.265,0.88,1.785,1.38
		c0.52,0.5,0.935,1.075,1.245,1.725c0.31,0.65,0.465,1.435,0.465,2.355c0,0.86-0.16,1.645-0.479,2.355
		c-0.32,0.71-0.766,1.315-1.335,1.815c-0.57,0.5-1.245,0.89-2.025,1.17s-1.62,0.42-2.52,0.42c-0.78,0-1.496-0.07-2.146-0.21
		c-0.65-0.14-1.245-0.33-1.785-0.57c-0.54-0.24-1.04-0.51-1.5-0.81c-0.46-0.3-0.89-0.62-1.29-0.96l1.62-2.1
		c0.319,0.28,0.665,0.56,1.035,0.84c0.37,0.28,0.77,0.54,1.2,0.78c0.43,0.24,0.895,0.435,1.395,0.585s1.04,0.225,1.62,0.225
		c0.979,0,1.79-0.295,2.43-0.885c0.641-0.59,0.96-1.365,0.96-2.325c0-0.62-0.13-1.165-0.39-1.635c-0.26-0.47-0.605-0.89-1.035-1.26
		s-0.92-0.715-1.47-1.035c-0.551-0.32-1.105-0.65-1.665-0.99c-0.58-0.36-1.15-0.735-1.71-1.125c-0.561-0.39-1.065-0.83-1.515-1.32
		c-0.45-0.49-0.815-1.05-1.096-1.68c-0.28-0.63-0.42-1.365-0.42-2.205c0-0.86,0.175-1.63,0.525-2.31
		c0.35-0.68,0.805-1.255,1.365-1.725c0.56-0.47,1.199-0.825,1.92-1.065c0.72-0.24,1.459-0.36,2.22-0.36
		c1.279,0,2.465,0.221,3.555,0.66c1.09,0.44,2.056,0.99,2.896,1.65L481.126,54.836z"/>
	<path fill="#323232" d="M501.766,57.176c0,0.94-0.195,1.79-0.585,2.55s-0.925,1.41-1.604,1.95c-0.681,0.54-1.496,0.956-2.445,1.245
		c-0.95,0.29-1.976,0.435-3.075,0.435h-1.89v8.94h-2.58v-21.39h4.77c2.34,0,4.16,0.56,5.46,1.68S501.766,55.237,501.766,57.176z
		 M498.916,57.176c0-1.32-0.391-2.355-1.17-3.105c-0.78-0.75-1.91-1.125-3.391-1.125h-2.189v8.34h1.89c0.72,0,1.375-0.09,1.965-0.27
		c0.59-0.18,1.1-0.445,1.53-0.795c0.43-0.35,0.765-0.78,1.005-1.29C498.796,58.421,498.916,57.836,498.916,57.176z"/>
	<path fill="#323232" d="M524.293,61.556c0,1.541-0.161,2.98-0.48,4.32c-0.32,1.34-0.815,2.51-1.485,3.51
		c-0.67,1-1.51,1.791-2.52,2.37c-1.011,0.58-2.205,0.87-3.585,0.87c-1.4,0-2.61-0.266-3.63-0.795c-1.021-0.53-1.86-1.28-2.521-2.25
		s-1.15-2.13-1.47-3.48c-0.32-1.35-0.48-2.855-0.48-4.515c0-1.58,0.165-3.04,0.495-4.38s0.825-2.505,1.485-3.495
		c0.66-0.99,1.5-1.765,2.52-2.325c1.021-0.56,2.221-0.84,3.601-0.84c1.399,0,2.609,0.29,3.63,0.87c1.02,0.58,1.86,1.37,2.52,2.37
		c0.66,1,1.146,2.165,1.455,3.495C524.138,58.612,524.293,60.037,524.293,61.556z M521.353,61.586c0-1.2-0.105-2.345-0.315-3.435
		c-0.21-1.09-0.524-2.05-0.944-2.88c-0.42-0.83-0.956-1.49-1.605-1.98c-0.65-0.49-1.405-0.735-2.265-0.735
		c-0.92,0-1.705,0.246-2.355,0.735c-0.649,0.49-1.185,1.15-1.604,1.98c-0.42,0.83-0.726,1.79-0.915,2.88
		c-0.19,1.09-0.285,2.235-0.285,3.435c0,1.28,0.095,2.47,0.285,3.57c0.189,1.1,0.489,2.055,0.899,2.865s0.94,1.45,1.591,1.92
		c0.649,0.47,1.444,0.705,2.385,0.705c0.939,0,1.734-0.24,2.385-0.72c0.649-0.48,1.18-1.135,1.59-1.965
		c0.41-0.83,0.705-1.79,0.885-2.88C521.263,63.992,521.353,62.827,521.353,61.586z"/>
	<path fill="#323232" d="M547.191,71.876c-0.301,0.22-0.676,0.395-1.125,0.525c-0.45,0.13-0.936,0.195-1.455,0.195
		c-1.261,0-2.19-0.34-2.79-1.02c-0.601-0.68-0.9-1.66-0.9-2.94v-2.1c0-0.66-0.11-1.265-0.33-1.815
		c-0.22-0.55-0.535-1.015-0.944-1.395c-0.41-0.379-0.891-0.675-1.44-0.885c-0.551-0.21-1.155-0.315-1.815-0.315h-1.979v10.17h-2.67
		v-21.42h5.01c1.1,0,2.104,0.115,3.015,0.345c0.91,0.23,1.69,0.575,2.341,1.035c0.649,0.46,1.154,1.04,1.515,1.74
		s0.54,1.51,0.54,2.43c0,0.641-0.115,1.226-0.345,1.755c-0.23,0.53-0.536,0.996-0.915,1.395c-0.381,0.4-0.806,0.74-1.275,1.02
		c-0.47,0.28-0.955,0.48-1.455,0.6c1.141,0.4,1.99,1.075,2.55,2.025c0.56,0.95,0.841,2.055,0.841,3.315v1.92
		c0,0.54,0.079,1.01,0.239,1.41c0.16,0.4,0.48,0.6,0.96,0.6c0.34,0,0.62-0.04,0.84-0.12c0.221-0.08,0.44-0.18,0.66-0.3
		L547.191,71.876z M541.341,56.457c0-0.6-0.12-1.115-0.359-1.545c-0.24-0.43-0.565-0.785-0.976-1.065
		c-0.41-0.28-0.896-0.49-1.455-0.63c-0.56-0.14-1.16-0.21-1.8-0.21h-2.34v6.93h2.37c1.319,0,2.409-0.295,3.27-0.885
		C540.911,58.462,541.341,57.596,541.341,56.457z"/>
	<path fill="#323232" d="M564.126,53.216h-5.79v19.08h-2.7v-19.08h-5.76v-2.31h14.46L564.126,53.216z"/>
	<path fill="#323232" d="M580.387,72.296l-1.59-5.91h-7.92l-1.74,5.91h-2.851l6.931-21.39h3.84l6.12,21.39H580.387z M575.406,52.917
		h-0.54l-3.33,11.34h6.75L575.406,52.917z"/>
	<path fill="#323232" d="M600.055,72.296h-10.53v-21.39h2.58v19.17h8.16L600.055,72.296z"/>
</g>
</svg>
