<?xml version="1.0" encoding="UTF-8"?><svg id="a" xmlns="http://www.w3.org/2000/svg" viewBox="0 0 512 512"><defs><style>.b{fill:#de1738;}</style></defs><path class="b" d="M256,0C114.6,0,0,114.6,0,256s114.6,256,256,256,256-114.6,256-256S397.4,0,256,0Zm0,464c-114.7,0-208-93.31-208-208S141.3,48,256,48s208,93.31,208,208-93.3,208-208,208Zm40-128h-16v-88c0-13.2-10.7-24-24-24h-32c-13.2,0-24,10.8-24,24s10.8,24,24,24h8v64h-16c-13.2,0-24,10.8-24,24s10.8,24,24,24h80c13.25,0,24-10.75,24-24s-10.7-24-24-24Zm-40-144c17.67,0,32-14.33,32-32s-14.33-32-32-32-32,14.3-32,32,14.3,32,32,32Z"/></svg>