<?xml version="1.0" encoding="UTF-8"?><svg id="a" xmlns="http://www.w3.org/2000/svg" viewBox="0 0 512 512"><defs><style>.b{fill:#70777c;}</style></defs><path class="b" d="M352,320c-17.62,0-32,14.38-32,32s14.38,32,32,32,32-14.38,32-32-14.4-32-32-32ZM192,192c0-17.62-14.38-32-32-32s-32,14.38-32,32,14.38,32,32,32,32-14.4,32-32Zm0,128c-17.62,0-32,14.38-32,32s14.38,32,32,32,32-14.38,32-32-14.4-32-32-32Zm96-96c-17.62,0-32,14.38-32,32s14.38,32,32,32,32-14.38,32-32-14.4-32-32-32Zm222.5,31.9c-70-.9-126.5-57.8-126.5-127.9-70.13,0-127-56.5-127.8-126.5C249.6,.5,242.9,0,236.3,0,215.68,0,195.17,4.88,176.55,14.38L107.4,49.5c-24.88,12.75-45.13,33-57.88,57.88L14.52,176.25C1.75,201.2-2.75,229.5,1.63,257.2l12.13,76.25c4.38,27.62,17.37,53.13,37.12,72.88l54.75,54.87c19.75,19.63,45.13,32.63,72.75,37l76.63,12.13c6.89,1.17,13.89,1.67,20.79,1.67,20.62,0,41.25-4.88,59.87-14.38l69.13-35.25c24.87-12.62,45.12-32.88,57.75-57.75l35.13-68.87c12.42-24.65,16.92-52.65,12.82-79.85Zm-55.6,58l-35.12,68.88c-8.12,16-20.88,28.75-36.88,36.87l-69.12,35.25c-11.78,6-24.88,9.1-37.98,9.1-4.38,0-8.88-.38-13.13-1l-76.75-12.12c-17.62-2.88-33.62-10.98-46.32-23.68l-54.85-54.7c-12.63-12.75-20.88-28.75-23.63-46.5l-12.12-76.2c-2.75-17.88,0-35.63,8.25-51.75l35.13-68.88c8.12-15.97,20.92-28.67,36.72-36.79l69.13-35.25c5.5-2.88,11.38-5,17.38-6.5,17.88,58.88,65.88,104.9,125.8,120.1,15.12,59.75,61.13,107.7,120.1,125.6-1.61,6.17-3.71,12.07-6.61,17.57Z"/></svg>