<svg width="60" height="60" viewBox="0 0 60 60" fill="none" xmlns="http://www.w3.org/2000/svg">
<path d="M30 0C13.3594 0 0 13.4766 0 30C0 46.6406 13.3594 60 30 60C46.5234 60 60 46.6406 60 30C60 13.4766 46.5234 0 30 0ZM30 56.25C15.4688 56.25 3.75 44.5312 3.75 30C3.75 15.5859 15.4688 3.75 30 3.75C44.4141 3.75 56.25 15.5859 56.25 30C56.25 44.5312 44.4141 56.25 30 56.25ZM28.125 40.3125C26.4844 40.3125 25.3125 41.6016 25.3125 43.125C25.3125 44.7656 26.4844 45.9375 28.125 45.9375C29.6484 45.9375 30.9375 44.7656 30.9375 43.125C30.9375 41.6016 29.6484 40.3125 28.125 40.3125ZM33.3984 15H26.4844C22.1484 15 18.75 18.5156 18.75 22.8516V23.9062C18.75 24.9609 19.5703 25.7813 20.625 25.7813C21.5625 25.7813 22.5 24.9609 22.5 23.9062V22.8516C22.5 20.625 24.2578 18.75 26.4844 18.75H33.3984C35.625 18.75 37.5 20.625 37.5 22.8516C37.5 24.2578 36.6797 25.6641 35.3906 26.3672L28.3594 29.8828C27.0703 30.5859 26.25 31.9922 26.25 33.5156V35.625C26.25 36.6797 27.0703 37.5 28.125 37.5C29.0625 37.5 30 36.6797 30 35.625V33.5156C30 33.3984 30 33.2812 30.1172 33.1641L37.1484 29.6484C39.6094 28.2422 41.25 25.6641 41.25 22.8516C41.25 18.5156 37.7344 15 33.3984 15Z" fill="#DE1738"/>
</svg>
